<svg xmlns="http://www.w3.org/2000/svg" width="2500" height="2500" viewBox="0 0 498.503 498.503"><path d="M240.367 356.721c-32.058-2.784-61.113-19.661-79.83-46.37l-2.61-3.726h-39.069l-7.673-7.683-7.672-7.684h23.217c21.932 0 23.196-.046 22.846-.84-.649-1.469-4.5-13.244-5.026-15.368l-.506-2.04H85.241l-7.431-7.444-7.432-7.444h71.201l.007-9.124.007-9.124H52.107l-7.673-7.684-7.672-7.684h107.607l1.267-4.508c.697-2.48 2.007-6.478 2.911-8.884l1.644-4.376H18.97l-7.673-7.684-7.672-7.683h154.721l2.157-3.242c4.858-7.303 13.932-17.086 21.275-22.94 13.54-10.793 29.529-18.197 46.661-21.607 41.192-8.2 83.794 8.75 108.313 43.094l3.352 4.695h154.772l-7.672 7.683-7.673 7.684h-65.677c-36.122 0-65.676.067-65.676.148 0 .081.674 1.973 1.498 4.202.825 2.23 2.096 6.107 2.826 8.616l1.328 4.562 53.6.122c29.48.068 53.601.286 53.601.486s-3.298 3.657-7.329 7.682l-7.33 7.318h-89.79l.06 9.004.059 9.004 35.708.123 35.709.124-7.43 7.44-7.428 7.44h-59.202l-1.018 4.058c-.56 2.231-1.774 6.175-2.7 8.764-.925 2.589-1.682 4.869-1.682 5.067 0 .198 10.424.36 23.165.36h23.165l-7.672 7.684-7.672 7.683H340.15l-1.82 2.762c-7.788 11.824-19.842 23.48-32.413 31.343-13.502 8.446-30.643 14.238-46.785 15.809-4.885.475-14.333.567-18.766.182zm16.328-14.559c33.241-3.02 61.72-22.507 76.141-52.104 11.867-24.355 12.56-52.168 1.926-77.346-4.62-10.94-11.097-20.46-19.931-29.294-19.37-19.369-44.31-28.73-72.063-27.046-37.161 2.255-69.96 27.566-81.866 63.176-5.369 16.058-6.304 32.238-2.852 49.31 4.223 20.882 17.286 41.416 34.774 54.662 18.206 13.79 41.724 20.654 63.87 18.642zm-81.66-69.273c-.126-.33-.173-11.189-.104-24.131l.125-23.531 8.025-.132 8.024-.131 1.207 3.973c.663 2.186 2.825 9.458 4.804 16.162 1.978 6.704 3.703 12.294 3.831 12.423.129.128.363-.278.52-.904.158-.625 2.285-7.944 4.726-16.264l4.439-15.127 8.024-.132 8.024-.131v48.526h-9.604v-18.585c0-11.008-.176-18.398-.432-18.128-.237.25-2.69 8.56-5.45 18.465l-5.019 18.008h-10.469l-5.06-18.008c-2.783-9.905-5.197-18.333-5.365-18.73-.167-.396-.322 7.762-.343 18.13l-.038 18.848h-4.817c-3.41 0-4.884-.175-5.047-.6zm62.326-23.53l.124-24.132 5.403-.136 5.403-.136v48.535h-11.055zm21.495-.137v-24.268l5.162.136 5.162.137 10.806 15.847 10.805 15.848.24-15.848.24-15.847 4.922-.137 4.923-.137v48.537l-5.403-.02-5.403-.019-9.844-14.409c-5.415-7.925-10.323-14.994-10.908-15.709l-1.063-1.3-.02 15.727-.019 15.728h-9.604zm53.785.017v-24.252h10.565v48.503h-10.565z"/></svg>