<svg xmlns="http://www.w3.org/2000/svg" width="2500" height="2500" viewBox="0 0 498.503 498.503"><path d="M237.11 443.39a176.12 176.12 0 00-4.306-.346 95.024 95.024 0 01-4.96-.486 285.521 285.521 0 00-3.65-.463 141.38 141.38 0 01-10.857-1.679c-3.88-.75-4.765-.93-6.053-1.237-.6-.142-1.262-.26-1.472-.26-.21 0-.771-.121-1.248-.27a32.528 32.528 0 00-1.617-.456c-1.288-.315-4.455-1.177-5.321-1.448-.456-.142-.968-.259-1.138-.259-.36 0-3.684-1.052-4.161-1.317-.179-.099-.432-.18-.562-.18-.307 0-4.854-1.433-5.946-1.874-.463-.187-1.39-.52-2.059-.74-1.642-.54-3.667-1.293-4.623-1.717-.431-.192-.91-.35-1.065-.35-.154 0-.325-.072-.38-.162-.056-.09-.345-.212-.643-.271-.487-.098-2.924-1.123-6.159-2.591-.643-.293-1.212-.532-1.264-.532-.127 0-4.048-1.836-4.398-2.06-.154-.099-.66-.357-1.123-.574-2.488-1.165-7.055-3.479-7.612-3.857-.352-.239-.759-.435-.902-.435-.144 0-.314-.084-.378-.188-.064-.103-.477-.352-.92-.553-.441-.202-1.468-.776-2.281-1.277-.813-.501-1.605-.971-1.76-1.045-.43-.205-.945-.522-2.097-1.29-.58-.385-1.11-.701-1.18-.701-.068 0-.475-.242-.903-.538-.665-.459-3.188-2.073-4.719-3.019-2.26-1.396-10.487-7.372-13.156-9.556-1.063-.87-2.423-1.96-3.02-2.424-.6-.463-1.95-1.6-3.005-2.527a267.235 267.235 0 00-3.343-2.89c-2.888-2.436-11.928-11.461-14.813-14.788a53.192 53.192 0 00-1.69-1.863 16.25 16.25 0 01-1.214-1.425c-.632-.856-.742-.992-2.36-2.901a148.552 148.552 0 01-6.516-8.237 974.935 974.935 0 00-2.059-2.8c-.264-.356-.523-.735-.574-.842-.052-.107-.726-1.118-1.498-2.247-3.6-5.263-8.263-12.938-10.523-17.322-.398-.772-.794-1.53-.879-1.685-.67-1.215-2.779-5.45-5.175-10.39-.8-1.646-1.9-3.683-2.444-4.524-1.221-1.884-3.054-4.037-3.971-4.663-.378-.258-1.109-.766-1.624-1.13a14.085 14.085 0 00-1.965-1.121 46.5 46.5 0 01-1.31-.606c-.336-.172-3.12-1.031-4.306-1.329-.463-.116-1.455-.288-2.203-.383-.749-.094-1.445-.223-1.547-.286-.102-.063-1.048-.2-2.102-.302-2.78-.27-4.746-.473-7.813-.804a961.352 961.352 0 00-4.492-.475c-.978-.1-2.073-.268-2.433-.375-.36-.106-1.075-.2-1.59-.208-.516-.008-1.528-.118-2.248-.244l-1.31-.23-.053-2.796c-.046-2.465-.014-2.824.27-3.032.255-.186 5.693-.235 26.09-.235 24.725 0 25.78.014 26.077.342.17.189.31.408.31.487 0 .08.119.41.264.734a24.2 24.2 0 01.642 1.72c.207.623.478 1.38.6 1.686.124.304.287.722.363.928.076.206.276.693.445 1.082.168.39.306.795.306.901 0 .106.198.63.44 1.164.811 1.794 1.62 3.732 1.62 3.883 0 .666 6.48 13.765 7.225 14.605.144.163.262.426.262.585 0 .16.127.395.281.523a.86.86 0 01.28.574c0 .187.08.39.177.45.097.059.693 1.047 1.324 2.194a69.239 69.239 0 002.135 3.6c1.914 2.936 2.812 4.324 3.004 4.64.28.463 2.55 3.783 3.555 5.203a140.62 140.62 0 011.178 1.684c.318.47 1.735 2.259 1.928 2.434.057.051.301.418.543.816.242.397.647.945.902 1.217.254.271.684.789.955 1.149.27.36.585.74.7.842.113.103.782.904 1.486 1.779.704.875 1.33 1.633 1.394 1.684.063.052.565.642 1.116 1.31.998 1.214 3.894 4.38 6.56 7.174 2.92 3.06 5.796 5.783 9.694 9.177a90.69 90.69 0 012.005 1.796c.412.387 1.475 1.293 2.363 2.013.888.72 1.856 1.533 2.15 1.806.296.274.636.498.758.498.12 0 .248.063.282.14.224.504 5.786 4.59 11.022 8.096 4.182 2.802 5.18 3.434 6.572 4.166.245.128.709.423 1.032.654.324.232.644.422.712.422.068 0 .392.2.72.444.328.245 1.101.72 1.719 1.054.618.336 1.207.675 1.31.754.103.079 2.04 1.089 4.306 2.245a2299.34 2299.34 0 014.586 2.344c.924.48 5.54 2.64 6.364 2.978.464.19 1.348.58 1.966.865.618.286 1.923.83 2.901 1.21l3.903 1.51c1.169.452 2.268.822 2.443.822.175 0 .398.071.496.158.098.087 1.063.434 2.144.772 1.08.339 2.134.682 2.34.764.205.082.88.29 1.497.463.618.173 1.292.388 1.498.478.773.34 4.447 1.405 7.02 2.036.36.089 1.244.335 1.965.547 1.098.323 3.74.92 8.33 1.879.92.192 4.247.8 6.177 1.13.67.114 2.312.339 3.65.5 1.339.16 3.066.374 3.838.475.772.1 2.33.257 3.463.35 1.132.09 2.59.245 3.239.342.649.097 1.997.186 2.995.199.998.012 2.32.109 2.938.215.697.119 4.107.164 8.985.119 8.162-.076 13.857-.339 14.758-.681.288-.11 1.165-.199 1.95-.199.785 0 1.896-.083 2.468-.185.573-.102 2.81-.407 4.972-.678 3.958-.497 4.682-.604 6.74-1a99.97 99.97 0 012.058-.372c2.774-.461 7.271-1.457 9.734-2.156a67.4 67.4 0 011.779-.476c1.576-.393 4.708-1.272 5.334-1.498.206-.074.88-.282 1.498-.463a25.14 25.14 0 001.498-.478 28.02 28.02 0 011.31-.45c1.391-.444 4.29-1.403 5.99-1.98 2.243-.762 6.739-2.529 8.798-3.457 1.835-.827 2.356-1.034 2.611-1.034.143 0 .287-.063.322-.14.034-.077.61-.402 1.279-.722 6.088-2.909 9.135-4.422 10.04-4.984.398-.247 1.44-.812 2.315-1.255.875-.444 1.717-.912 1.871-1.04.155-.129.787-.508 1.404-.843.618-.335 1.392-.81 1.72-1.054.327-.244.652-.444.721-.444.07 0 .5-.253.958-.562.458-.309.86-.562.896-.562.43 0 10.406-6.808 12.553-8.567a154.53 154.53 0 012.824-2.194c.886-.677 3.36-2.667 4.008-3.223.258-.221 1.1-.928 1.872-1.571a59.512 59.512 0 002.308-2.026c.497-.471 1.21-1.11 1.585-1.418 1.958-1.615 9.412-8.99 11.058-10.942a65.864 65.864 0 012.247-2.468c.76-.793 1.518-1.646 1.685-1.898.167-.251.781-.995 1.365-1.653 1.19-1.343 1.92-2.242 3.48-4.286.59-.772 1.12-1.446 1.18-1.497.217-.192 3.107-4.063 3.92-5.253 2.047-2.995 5.428-8.074 5.428-8.153 0-.048.158-.316.351-.594 1.633-2.359 3.769-6.082 6.09-10.616.421-.824.813-1.54.87-1.591.058-.052.843-1.61 1.746-3.463a284.448 284.448 0 011.986-4.025c.19-.36.513-1.076.718-1.59a52.79 52.79 0 01.796-1.873 33.544 33.544 0 001.227-3.089 28.98 28.98 0 01.836-2.025c.298-.65.543-1.298.543-1.44 0-.14.07-.3.155-.352.085-.053.31-.626.5-1.275.19-.648.406-1.263.48-1.366.072-.103.193-.482.269-.842.075-.36.2-.74.276-.842.077-.103.193-.409.257-.68.146-.612.959-1.163 1.707-1.156.312.003 12.005.07 25.984.15l25.416.145-.052 2.734-.051 2.733-.527.252c-.29.139-1.389.314-2.442.39-1.054.074-2.001.189-2.106.253-.104.065-1.195.207-2.425.316a195.8 195.8 0 00-4.761.498c-1.39.165-3.244.363-4.119.44-.875.078-1.717.189-1.872.247-.154.059-.938.153-1.742.21-.803.057-1.526.144-1.605.193-.079.048-.769.176-1.533.282-3.235.451-6.123 1.198-6.995 1.808-.206.145-.511.263-.677.263-.336 0-3.16 1.669-3.902 2.306-3.19 2.738-5.13 5.713-8.38 12.857a30.062 30.062 0 01-.626 1.31c-.086.155-.653 1.25-1.26 2.434-2.335 4.548-3.405 6.544-4.82 8.985a374.159 374.159 0 00-1.935 3.37c-.842 1.507-2.752 4.514-5.16 8.12-1.298 1.945-2.36 3.594-2.36 3.665 0 .071-.21.327-.468.57-.257.24-.468.53-.468.642 0 .112-.19.413-.42.67-.232.256-.658.802-.946 1.214-1.45 2.071-1.883 2.65-2.479 3.31-.356.393-.648.779-.648.856 0 .077-.274.447-.608.822a57.745 57.745 0 00-1.731 2.117c-.618.79-1.465 1.83-1.883 2.313a36.23 36.23 0 00-1.186 1.44c-.233.308-.777.94-1.207 1.403a85.783 85.783 0 00-1.901 2.153c-2.795 3.274-8.882 9.487-13.392 13.667-2.26 2.096-7.434 6.57-8.824 7.63-.24.182-.772.62-1.183.972-1.948 1.665-3.26 2.721-3.384 2.721-.074 0-.581.358-1.126.796a47.305 47.305 0 01-1.78 1.357c-.435.309-1.548 1.13-2.474 1.825-.927.695-1.74 1.263-1.807 1.263-.067 0-.286.15-.485.335-.2.184-1.121.826-2.048 1.426-.926.601-2.148 1.406-2.714 1.79-1.404.95-8.417 5.257-8.784 5.395-.162.06-.748.399-1.302.751-.554.353-1.354.807-1.778 1.009-.424.202-.94.469-1.146.594-.206.124-.795.456-1.31.736-.515.28-1.063.59-1.217.687-.318.201-8.395 4.126-9.828 4.776-.514.233-1.67.772-2.57 1.197-.898.425-1.675.772-1.726.772-.05 0-.537.2-1.08.445-2.254 1.015-8.527 3.412-11.564 4.42-.67.222-1.386.478-1.592.569-.482.213-2.659.92-5.147 1.672-1.081.327-2.112.673-2.29.769-.18.096-.472.175-.65.175-.178 0-.663.117-1.079.261-.415.144-1.092.35-1.503.46-.412.108-1.255.333-1.872.5-.618.166-1.418.377-1.779.467-.36.091-1.118.29-1.684.443-1.072.288-2.122.528-5.897 1.343a226.31 226.31 0 00-2.901.642c-2.158.516-9.23 1.62-13.16 2.055-.906.1-1.71.22-1.785.268-.075.046-.85.143-1.722.215-.872.071-1.656.172-1.743.223-.088.052-1.394.166-2.902.254-1.508.089-3.627.244-4.708.346-2.368.223-22.086.212-24.335-.013zM16.47 275.909c-.203-.204-.247-5.032-.247-26.796 0-24.036.028-26.559.296-26.662.162-.062 3.604-.113 7.648-.113h7.352l6.756 6.785c3.715 3.733 8.92 8.976 11.563 11.653 15.91 16.105 21.283 21.434 21.615 21.434.352 0 .359-.405.364-19.77.003-10.873.051-19.844.108-19.935.136-.222 11.259-.218 11.395.004.127.204.157 53.317.03 53.522-.048.078-3.4.12-7.448.091l-7.36-.051-8.474-8.475a9623.913 9623.913 0 01-19.954-20.04c-7.803-7.86-11.568-11.53-11.757-11.457-.243.093-.276 2.578-.267 19.93.005 10.903-.058 19.892-.142 19.975-.083.083-2.644.152-5.69.152-4.343 0-5.594-.054-5.788-.248zm94.35.19a.67.67 0 01-.512-.469c-.15-.56-.145-50.701.005-52.142l.12-1.15 5.543.003c3.165.002 5.662.079 5.823.18.247.156.286 3.346.33 26.54.038 20.975 0 26.426-.188 26.673-.208.273-.86.316-5.477.366-2.883.03-5.423.03-5.644-.002zm37.138-.018a.824.824 0 01-.37-.281c-.076-.113-.14-2.45-.141-5.193-.002-4.377.033-5.002.293-5.101.163-.063 11.43-.115 25.037-.116 20.072-.002 24.917-.05 25.677-.253a5.488 5.488 0 003.745-3.492c.439-1.244.364-3.17-.169-4.344-.816-1.798-1.735-2.46-4.138-2.985-1.368-.298-3.101-.327-20.03-.328-18.223-.002-18.556-.008-20.029-.395a603.39 603.39 0 00-2.07-.54c-2.921-.75-7.033-4.541-8.394-7.737l-.58-1.364c-.155-.364-.28-.786-.28-.938a1.6 1.6 0 00-.168-.602c-.288-.56-.648-2.895-.626-4.07.022-1.224.329-3.494.632-4.68.321-1.251 1.817-4.085 2.826-5.353 1.027-1.29 2.886-2.992 3.793-3.473 2.084-1.104 2.991-1.486 4.96-2.09.945-.288 3.182-.315 26.956-.315h25.926l.05 5.289.05 5.288h-24.416c-24.22 0-24.423.003-25.32.385-2.01.855-2.745 1.676-3.364 3.759-.237.798-.233 1.036.034 2.068.166.64.415 1.38.552 1.642.366.698 1.391 1.58 2.247 1.935 1.425.59 4.795.692 22.838.698 16.514.005 17.89.03 19.29.346.829.188 1.966.577 2.527.864.56.288 1.273.653 1.582.81 1.35.689 3.672 2.795 4.317 3.919.192.334.4.608.462.608.214 0 1.866 3.518 1.866 3.975 0 .148.062.33.137.406.402.402.674 2.475.689 5.26.015 2.731-.028 3.143-.485 4.68-.646 2.17-.902 2.838-1.417 3.709-.232.39-.422.753-.422.805 0 .15-1.235 1.727-2.022 2.58-1.177 1.277-3.213 2.685-4.715 3.26-3.524 1.349-1.537 1.228-21.248 1.29-9.78.03-21.848.076-26.816.102-4.968.025-9.138.013-9.266-.028zm90.558.016c-.512-.033-.995-.159-1.073-.281-.078-.122-.142-2.43-.144-5.13-.003-4.66.015-4.916.36-5.1.244-.131 8.449-.194 25.241-.194 23.675 0 24.93-.017 25.926-.345 2.29-.756 3.753-2.846 3.753-5.364 0-1.987-.995-3.889-2.482-4.744-1.492-.858-1.203-.846-21.568-.897-20.743-.053-19.72-.006-22.716-1.04-4.75-1.64-8.228-5.664-9.46-10.942-.396-1.702-.526-6.381-.2-7.218.093-.237.271-.81.398-1.273.703-2.58 2.28-5.195 4.176-6.93 1.033-.943 3.414-2.616 3.725-2.616.1 0 .404-.115.677-.255.77-.395 1.743-.72 2.463-.82.36-.051.773-.188.917-.305.192-.154 7.24-.226 26.15-.267 25.77-.055 25.886-.054 26.087.321.133.249.185 2.048.152 5.297l-.05 4.92-24.522.095c-19.206.074-24.673.146-25.215.334-.966.333-2.483 1.833-2.945 2.912-.483 1.126-.498 2.543-.04 3.75.478 1.258 1.11 1.992 2.252 2.614.92.5 1.15.537 4.38.693 1.876.091 10.79.169 19.81.172 11.176.005 16.722.072 17.41.213 1.73.353 2.297.497 2.973.756 1.235.471 3.962 2.261 4.742 3.112l.97 1.056c.645.695 1.401 1.799 1.401 2.046 0 .159.082.34.182.402.411.253 1.743 3.88 1.958 5.328.068.459.209.937.314 1.064.247.298.111 3.971-.193 5.217-.455 1.859-.831 3.186-.956 3.37-.07.102-.22.465-.336.806-.415 1.233-2.096 3.712-3.344 4.932-2.802 2.738-6.033 4.042-10.447 4.215-2.649.104-49.204.192-50.726.096zm80.986.021c-.59-.117-.503-.374.891-2.606a383.88 383.88 0 001.381-2.223c.125-.205.395-.625.6-.932.207-.307.46-.7.562-.873.74-1.245 1.75-2.823 2.278-3.556.343-.477.624-.934.624-1.016 0-.169.797-1.445 3.855-6.165.6-.927 1.201-1.888 1.337-2.136.223-.411 2.746-4.499 3.419-5.54.154-.238.954-1.503 1.778-2.81a629.94 629.94 0 011.817-2.872c.175-.272.457-.764.625-1.094.169-.33.425-.698.57-.819.145-.12.264-.298.264-.395 0-.097.2-.445.444-.773.245-.328.645-.952.89-1.387.244-.436 1.888-3.09 3.653-5.897a773.004 773.004 0 003.557-5.69c.191-.322 1.106-1.781 2.032-3.242.927-1.461 1.783-2.83 1.902-3.043.12-.213.33-.459.468-.546.426-.27 12.39-.205 12.734.069.162.129.86 1.118 1.553 2.2a121.88 121.88 0 001.8 2.744c.299.429.543.843.543.92 0 .196 1.179 2.031 1.354 2.107.079.034.144.175.144.313s.195.49.433.78c.239.291.618.89.843 1.332.225.441.802 1.41 1.282 2.153l1.497 2.318c.343.532.624 1.045.624 1.14 0 .096.17.327.377.515.208.187.56.706.782 1.152.223.446.466.811.539.811.074 0 .187.21.251.468.065.257.2.468.301.468.101 0 .184.082.184.183 0 .152 1.33 2.277 1.82 2.907.08.103.35.567.601 1.03.412.758 1.408 2.367 4.058 6.55 4.058 6.408 6.938 11.03 7.114 11.419.07.154.31.533.534.842.537.742 2.533 3.992 2.533 4.124 0 .057.21.331.468.609.257.277.468.566.468.64 0 .183 1.983 3.444 2.532 4.163.24.316.525.805.633 1.088.194.51.188.514-.596.522-.435.005-3.57.002-6.968-.005l-6.177-.012-.375-.504c-.394-.53-.492-.684-1.175-1.85-.235-.4-.592-.98-.793-1.288a12.314 12.314 0 01-.51-.843c-.078-.154-.643-1.038-1.256-1.965-.612-.927-1.244-1.936-1.404-2.244-.16-.307-.492-.658-.74-.78-.336-.165-5.274-.213-19.869-.19-18.811.03-19.433.043-19.814.388-.217.196-.394.426-.394.51 0 .177-2.204 3.812-3.012 4.967-.3.429-.545.82-.545.87 0 .05-.304.542-.676 1.093-.372.551-.749 1.191-.838 1.423l-.161.421-6.23.003c-3.425.002-6.396.034-6.602.072-.206.038-.572.03-.814-.018zm52.467-19.82c.163-.163.238-.394.168-.515a85.37 85.37 0 00-.984-1.536c-.471-.725-1.024-1.63-1.227-2.012-.204-.383-.436-.695-.515-.695-.08 0-.145-.086-.145-.192 0-.105-.303-.674-.674-1.263-.37-.59-1.645-2.63-2.832-4.535a948.25 948.25 0 00-2.696-4.306 21.752 21.752 0 01-.823-1.404 13.327 13.327 0 00-.609-1.05c-.177-.268-.645-.984-1.041-1.59-.396-.607-.902-1.38-1.123-1.716-.425-.645-.982-.746-1.272-.23a96.47 96.47 0 01-1.083 1.778c-.51.824-1.322 2.172-1.807 2.995-.484.824-.953 1.526-1.041 1.56a.265.265 0 00-.161.225c0 .09-.24.524-.533.967-.293.443-.693 1.1-.89 1.46-.195.36-.407.698-.47.75-.064.05-.728 1.096-1.478 2.323a229.04 229.04 0 01-1.757 2.842c-.217.337-.9 1.425-1.518 2.419-.617.994-1.312 2.098-1.544 2.454-.232.356-.421.854-.421 1.107v.46h13.09c11.683 0 13.122-.032 13.386-.296zm43.955 19.8c-.46-.033-.795-.152-.795-.28l-.012-26.337c-.008-14.363-.008-26.345-.002-26.628l.013-.515h15.202l9.387 9.493c23.264 23.529 29.97 30.252 30.28 30.355.115.038.282-.046.372-.187.089-.142.163-9.124.165-19.962l.003-19.704 5.85.049 5.85.05.033 26.627c.028 22.21-.008 26.67-.22 26.882-.208.208-1.554.242-7.334.188a8876.37 8876.37 0 00-7.292-.067c-.213 0-3.91-3.706-37.04-37.12-1.647-1.66-3.137-3.032-3.311-3.047-.296-.025-.318 1.303-.333 19.925-.01 13.347-.08 20.016-.208 20.144-.177.177-8.555.283-10.608.134zM30.2 191.702c-.07-.069-.125-1.42-.125-3.001 0-2.14.06-2.894.234-2.945.876-.255 5.746-.83 8.778-1.035 1.198-.082 2.27-.205 2.382-.274.112-.069.936-.171 1.83-.227.896-.056 1.83-.179 2.076-.272.247-.094.878-.17 1.403-.17.526 0 1.468-.08 2.094-.175a106.19 106.19 0 013.104-.4c3.147-.36 7.51-1.476 9.281-2.372l1.015-.517c.36-.183 1.094-.659 1.63-1.056.536-.397 1.028-.722 1.095-.722.204 0 1.869-1.773 2.729-2.907 1.502-1.98 3.344-5 3.344-5.486 0-.095.37-.843.824-1.662.453-.82 1.01-1.946 1.238-2.503.45-1.1.699-1.608 2.665-5.413a216.154 216.154 0 013.365-6.27c1.42-2.527 2.423-4.27 2.811-4.887.254-.401.52-.919.594-1.15.074-.232.212-.422.308-.422a.172.172 0 00.175-.168c0-.093.275-.577.61-1.076.54-.802 1.333-2.018 2.055-3.15 1.618-2.538 4.166-6.296 5.27-7.774.423-.567 1.022-1.387 1.331-1.824.928-1.312 1.424-1.96 3.062-3.997a707.9 707.9 0 002.083-2.602c1.243-1.57 2.295-2.855 2.588-3.16.174-.181.569-.658.878-1.06a35.418 35.418 0 012.527-2.893c.36-.37.984-1.048 1.387-1.507 2.88-3.281 9.764-10.112 14.611-14.498 2.253-2.038 2.387-2.153 2.524-2.153.066 0 .46-.315.874-.702a22.792 22.792 0 011.49-1.256c.404-.305 1.62-1.3 2.7-2.213 2.298-1.94 2.375-2.002 3.016-2.414a6.36 6.36 0 00.748-.562c.144-.136.598-.48 1.01-.764a109.61 109.61 0 002.08-1.497c.733-.54 1.955-1.418 2.715-1.952a81.226 81.226 0 001.85-1.331c.534-.411 3.928-2.704 4.212-2.845.103-.052.903-.564 1.778-1.139 1.827-1.2 5.908-3.635 8.236-4.915a91.23 91.23 0 002.34-1.327c2.467-1.488 12.214-6.311 15.537-7.69a122.5 122.5 0 004.118-1.776c1.565-.712 2.123-.937 2.324-.937.115 0 .355-.075.534-.166.178-.092.662-.315 1.073-.496.412-.18.895-.4 1.074-.488.179-.088.419-.16.534-.16.114 0 .473-.113.798-.25.942-.4 1.863-.717 2.368-.816.257-.05.827-.253 1.266-.451.72-.324 2.93-1.06 7.813-2.604a92.778 92.778 0 013.556-1.026c1.03-.271 2.293-.618 2.808-.77a182.22 182.22 0 013.557-1.007 54.883 54.883 0 012.059-.463 48.866 48.866 0 002.246-.518c.727-.2 1.42-.337 3.37-.664.514-.086 1.12-.257 1.345-.38.224-.123.688-.224 1.03-.225.34-.002 1.033-.128 1.539-.281.505-.154 1.24-.279 1.635-.279.394 0 1.075-.08 1.514-.179a50.811 50.811 0 014.449-.762c.67-.08 1.596-.198 2.06-.263 3.843-.539 5.08-.689 7.206-.871 5.66-.487 8.95-.594 18.345-.596 11.345-.002 17.813.307 22.896 1.091.96.148 2.197.27 2.75.27.554 0 1.059.084 1.122.187.064.103.58.187 1.147.187.567 0 1.2.09 1.407.201.207.111 1.022.277 1.812.37.79.092 2.195.303 3.122.47a63.9 63.9 0 002.758.432c.59.072 1.176.234 1.301.359.125.125.585.227 1.021.227.437 0 .846.084.91.187.064.103.4.188.748.188.347 0 .869.091 1.159.203.521.201 1.039.317 3.46.777.686.13 1.31.3 1.388.377.077.077.335.14.573.14.238 0 .75.117 1.139.26.388.143 1.885.568 3.326.946s3.084.842 3.65 1.032c.567.19 1.704.534 2.527.764 1.816.506 5.287 1.629 5.803 1.876.444.213 2.943 1.07 3.744 1.283.309.082.94.319 1.404.525.737.33 1.251.538 2.902 1.18 1.262.49 2.607 1.06 3.804 1.61.754.348 1.448.632 1.541.632.094 0 1.078.43 2.186.953 1.109.524 2.394 1.104 2.858 1.29 2.924 1.167 13.95 7.023 17.596 9.345.669.426 1.47.9 1.778 1.054.682.34 1.125.61 1.906 1.163.328.232.64.422.693.422.12 0 7.633 5.045 9.22 6.19 3.389 2.447 6.415 4.692 6.994 5.188.652.559 1.164.975 3.388 2.755.644.515 1.391 1.147 1.661 1.404.27.257.95.814 1.512 1.237.561.422 1.526 1.25 2.143 1.84.618.588 1.418 1.295 1.779 1.57.36.275 1.256 1.09 1.99 1.811 7.093 6.96 11.044 10.968 12.088 12.261a39.409 39.409 0 001.818 2.026c.626.65 1.138 1.254 1.138 1.341 0 .087.064.187.142.22.078.035.436.442.795.906.36.463.827 1.01 1.038 1.216.378.368 1.846 2.196 2.642 3.29.223.306.698.913 1.056 1.348a96.063 96.063 0 013.612 4.628c1.462 1.99 4.27 6.039 5.41 7.804a541.913 541.913 0 013.33 5.205c.124.206.395.626.6.934.207.308.474.747.594.976.534 1.014.914 1.655 1.038 1.748.073.055.419.645.768 1.31.349.666.887 1.674 1.195 2.24a271.637 271.637 0 013.33 6.271c.634 1.236 1.25 2.415 1.365 2.62.117.207 1.14 2.296 2.274 4.644 1.916 3.967 3.603 6.874 4.636 7.99.237.257.431.53.431.607 0 .223 3.594 3.14 3.87 3.14.137 0 .248.07.248.156 0 .174 1.452.916 3.01 1.54 2.23.89 4.24 1.333 8.503 1.87.823.104 2.012.27 2.642.37.63.1 1.583.181 2.118.181.536 0 1.116.075 1.289.166.173.091 1.102.223 2.064.293.962.07 1.846.163 1.966.205.119.043 1.227.16 2.463.262 1.235.102 2.414.22 2.62.265.206.043 1.049.134 1.872.2.824.066 1.919.201 2.434.3.514.1 1.146.202 1.404.228l.468.047.051 2.782c.036 1.893-.016 2.866-.163 3.042-.181.219-4.287.26-26.208.26H416.26l-.28-.429c-.271-.413-.814-1.796-1.632-4.158-.214-.617-.463-1.203-.553-1.3-.09-.098-.164-.33-.164-.516s-.21-.775-.468-1.308c-.258-.534-.469-1.06-.47-1.17 0-.109-.113-.415-.251-.679a5.543 5.543 0 01-.383-1.007c-.073-.29-.455-1.21-.849-2.046-.394-.836-.94-2.08-1.211-2.763-.859-2.154-6.316-12.828-7.795-15.244-.408-.665-.74-1.25-.74-1.3 0-.18-2.69-4.491-2.84-4.552-.086-.034-.156-.161-.156-.282 0-.12-.463-.873-1.03-1.673-.566-.799-1.029-1.494-1.029-1.545 0-.16-2.472-3.738-5.616-8.126-.36-.503-1.329-1.735-2.152-2.737a111.274 111.274 0 01-3.463-4.405c-.486-.647-.85-1.065-4.576-5.243-3.379-3.79-12.204-12.48-15.094-14.862a521.4 521.4 0 01-2.341-1.966 186.493 186.493 0 00-3.062-2.527 241.08 241.08 0 01-1.973-1.59c-1.237-1.014-6.776-5.04-8.37-6.085a1774.83 1774.83 0 01-3.26-2.168c-1.636-1.09-3.69-2.419-4.566-2.953a242.571 242.571 0 01-1.872-1.152c-.396-.253-4.377-2.528-4.696-2.684-.145-.071-.685-.37-1.2-.666-1.67-.957-8.601-4.51-8.798-4.51-.056 0-.795-.33-1.642-.732-2.027-.964-6.303-2.836-7.718-3.38a81.656 81.656 0 01-2.62-1.042 80.357 80.357 0 00-4.306-1.642c-4.497-1.579-9.889-3.275-11.7-3.682-1.57-.352-4.718-1.192-6.364-1.699-.619-.19-4.544-1.04-6.926-1.5a38.263 38.263 0 01-1.685-.375 15.778 15.778 0 00-1.497-.294 58.08 58.08 0 01-2.153-.354c-1.938-.35-6.904-1.033-8.71-1.197-.776-.07-1.495-.18-1.598-.245-.104-.064-.986-.165-1.96-.225s-2.319-.18-2.988-.269c-.67-.088-2.138-.176-3.264-.196-1.126-.02-2.11-.075-2.188-.123-.202-.125-16.947-.14-17.15-.016-.093.058-1.09.12-2.215.14-1.125.018-2.635.108-3.355.199-1.216.154-3.011.343-6.74.708a41.74 41.74 0 00-2.62.347c-.618.11-1.966.299-2.995.42-1.03.122-2.251.306-2.714.41-.464.103-1.348.257-1.966.343-.618.085-1.713.292-2.433.46-.721.167-1.748.374-2.283.461-.535.087-1.066.215-1.18.286-.115.071-.646.2-1.181.287-.535.086-1.562.292-2.282.457l-1.98.449c-.369.082-.763.207-.877.277-.114.07-.57.202-1.015.293-.686.14-3.932.98-5.862 1.518-1.484.413-4.592 1.414-7.301 2.352-1.647.57-3.248 1.103-3.557 1.183-.308.08-.935.328-1.392.55-.457.221-.9.403-.984.403-.084 0-.59.21-1.123.468-.533.257-1.046.468-1.14.468-.094 0-.436.117-.76.261-.325.144-1.223.519-1.995.833a49.26 49.26 0 00-2.385 1.048c-.54.263-1.054.478-1.142.478-.087 0-.404.117-.703.26-.298.143-1.301.617-2.228 1.052-3.16 1.485-9.105 4.485-9.636 4.863-.292.207-.579.377-.638.377-.06 0-.659.337-1.332.749s-1.264.749-1.315.749c-.158 0-3.71 2.075-4.3 2.512-.31.23-.707.47-.884.535-.178.066-.936.523-1.685 1.017-.75.494-1.505.982-1.68 1.084-.174.103-1.227.813-2.34 1.579a446.98 446.98 0 01-3.154 2.153c-2.152 1.446-5.004 3.575-7.173 5.355-1.198.982-2.354 1.909-2.57 2.059-.488.34-1.81 1.43-3.51 2.893a98.768 98.768 0 01-2.285 1.906c-.54.43-1.095.936-1.235 1.123-.139.187-1.18 1.18-2.312 2.208-2.207 2.002-6.22 5.99-7.553 7.503a92.568 92.568 0 01-2.161 2.329c-.742.772-1.533 1.645-1.758 1.94-.225.295-.905 1.096-1.51 1.779-1.283 1.445-3.407 4.037-3.678 4.487a2.697 2.697 0 01-.286.405c-.328.31-3.526 4.309-3.818 4.773-.194.309-.912 1.32-1.596 2.246-1.147 1.554-1.666 2.304-2.16 3.122a42.53 42.53 0 01-.985 1.449c-.437.624-.795 1.181-.795 1.238 0 .057-.09.205-.2.33-.429.485-3.176 4.825-4.292 6.777-.646 1.133-1.357 2.312-1.578 2.621-.222.309-.566.94-.765 1.404-.198.463-.744 1.516-1.211 2.34-1.2 2.113-4.685 9.189-5.625 11.419-.434 1.03-1.06 2.461-1.39 3.182-.33.72-.83 1.942-1.11 2.714-.28.772-.628 1.657-.772 1.966a16.096 16.096 0 00-.574 1.547c-.171.542-.386 1.031-.476 1.087-.09.056-.165.256-.165.444s-.126.583-.28.878c-.153.295-.28.72-.28.946 0 .226-.086.463-.189.526-.103.064-.187.28-.187.48 0 .2-.168.531-.374.737-.371.37-.624.374-26.363.374-14.294 0-26.045-.056-26.113-.124z"/></svg>