<svg xmlns="http://www.w3.org/2000/svg" width="2500" height="2500" viewBox="0 0 498.503 498.503"><path d="M156.842 415.276c-9.417-3.526-10.565-6.092-10.622-23.76l-.048-15.583h11.187v14.384c0 19.18 1.704 21.11 18.048 20.445l11.518-.468.454-17.18.453-17.18h11.08v35.322l-5.678 2.373c-8.395 3.507-28.936 4.437-36.39 1.647zm81.222.82c-17.58-4.661-25.55-17.834-17.876-29.547 5.068-7.734 14.564-11.244 30.662-11.334 17.813-.1 23.173 1.222 23.173 5.714 0 2.342-.73 3.057-2.45 2.397-1.347-.517-7.053-1.789-12.68-2.825-8.936-1.647-11.176-1.525-17.69.963-12.551 4.793-15.17 17.283-5.354 25.542 5.23 4.4 15.84 6.444 22.992 4.428 4.07-1.147 4.87-2.241 5.29-7.239.468-5.547.814-5.887 5.994-5.887h5.497v7.804c0 6.74-.49 7.938-3.596 8.78-6.329 1.715-29.001 2.518-33.962 1.203zm139.042-.003c-13.007-3.442-19.977-10.087-19.977-19.045 0-10.102 5.702-16.437 18.27-20.294 16.12-4.947 32.871-2.135 42.64 7.158 15.107 14.37 2.393 31.405-24.504 32.833-6.399.34-13.792.048-16.429-.652zm23.815-5.63c15.203-6.352 13.596-25.471-2.505-29.807-14.828-3.993-28.502 3.515-28.502 15.651 0 12.877 16.28 20.309 31.007 14.155zM10.323 395.75v-20.138l20.377.607c21.753.648 28.844 2.727 32.48 9.522 4.828 9.02-5.942 15.83-27.286 17.253l-13.584.907-.496 5.993c-.47 5.668-.795 5.993-5.994 5.993h-5.497zm35.854.717c7.176-3.27 7.146-10.642-.057-13.924-2.19-.998-8.623-1.815-14.295-1.815H21.512v17.58h10.313c5.672 0 12.13-.828 14.353-1.84zm39.038 16.366c-3.524-2.854-3.772-4.142-3.772-19.578v-16.523l22.774-.443c19.332-.376 22.774-.082 22.774 1.944 0 1.941-3.21 2.472-17.18 2.84l-17.181.454v10.723l15.982.233c13.037.19 15.981.675 15.981 2.63 0 1.947-3.11 2.483-16.57 2.855l-16.569.457 1.012 5.057c.556 2.781 1.9 5.62 2.985 6.31 1.085.69 8.626 1.265 16.756 1.278 12.065.016 14.784.465 14.784 2.422 0 1.997-3.177 2.398-19.001 2.398-16.327 0-19.533-.43-22.775-3.055zm214.735.567c-3.303-2.313-3.552-3.716-3.552-19.977v-17.49h22.374c18.824 0 22.375.381 22.375 2.398 0 1.979-2.93 2.397-16.78 2.397h-16.782l-.002 5.993-.002 5.994h15.559c13.545 0 15.629.361 16.1 2.796.489 2.515-1.082 2.797-15.555 2.797h-16.1v4.475c0 7.279 2.42 8.31 19.497 8.31 12.857 0 15.662.43 15.662 2.398 0 3.577-37.673 3.497-42.795-.09zm155.92-14.692l-.453-17.18-10.788-.473c-8.156-.357-10.787-1.04-10.787-2.797 0-1.942 4.463-2.324 27.169-2.324 23.085 0 27.169.361 27.169 2.398 0 1.885-2.22 2.397-10.388 2.397h-10.389v35.16h-11.079zm-308.895-88.3c2.016-16.609 2.888-17.269 28.76-21.78l7.991-1.394.228-11.28c.197-9.765 1.103-13.022 6.757-24.266 3.59-7.142 9.781-18.487 13.756-25.21 3.975-6.724 7.201-12.705 7.17-13.292-.128-2.335-12.052-9.981-18.109-11.612-3.703-.997-15.798-1.501-28.496-1.187-12.134.3-22.06.006-22.06-.653.002-2.055-7.927-1.314-12.776 1.194-4.348 2.248-4.778 2.178-7.113-1.155-3.317-4.736-3.131-9.687.641-17.082 3.719-7.289 10.584-10.517 28.179-13.253 6.515-1.013 11.846-2.334 11.846-2.936 0-1.987-12.097-9.52-15.289-9.52-1.722 0-3.846-1.618-4.72-3.596-1.321-2.99-2.636-3.512-7.814-3.096-10.572.847-12.209-7.087-3.253-15.768 5.436-5.269 6.195-5.508 17.495-5.508 11.485 0 12.477.33 35.91 11.964l24.097 11.963 3.899-4.772c6.63-8.113 4.29-12.597-4.013-7.693-5.721 3.38-8.453 2.216-14.032-5.979-3.356-4.928-3.449-5.572-1.061-7.318 1.44-1.053 4.894-1.552 7.675-1.11 2.78.443 7.063.04 9.516-.906 3.883-1.49 4.23-2.139 2.692-5.014-.972-1.816-2.8-3.698-4.063-4.183-3.16-1.212-9.562.572-12.464 3.474-3.297 3.297-8.724.68-13.399-6.463-5.508-8.414-4.77-11.06 3.996-14.32 4.175-1.554 9.389-4.476 11.586-6.495 9.791-8.995 31.37-13.187 45.554-8.85 19.357 5.92 29.726 10.644 30.548 13.918.467 1.861 4.057 6.532 7.978 10.38l7.128 6.996 4.08-5.213c4.494-5.742 11.456-9.945 16.473-9.945 6.461 0 16.194 5.146 18.625 9.847 2.074 4.01 11.814 38.302 11.842 41.694.033 3.478-5.97.222-13.542-7.35-8.158-8.16-9.975-11.773-12.775-25.413-2.084-10.153-12.029-2.428-12.029 9.345 0 8.375 1.926 13.747 14.843 41.398 5.75 12.306 10.945 25.024 11.548 28.263 1.625 8.742-1.424 15.613-11.223 25.29-4.826 4.767-8.775 9.21-8.775 9.875 0 .665 4.24 7.664 9.42 15.555 10.042 15.293 28.936 51.126 28.936 54.877 0 1.239-2.933 5.429-6.519 9.31l-6.519 7.059h-59.14l1.067-8.79c1.709-14.072 3.451-16.414 14.266-19.17 5.194-1.323 9.738-3.294 10.097-4.38.668-2.021-3.606-4.324-10.871-5.858-2.245-.473-11.432-6.277-20.416-12.896-8.983-6.619-16.907-12.034-17.608-12.034-.702 0-9.494 9.148-19.54 20.329l-18.264 20.33.344 11.404.344 11.405-35.235-.17-35.234-.17zm191.476-2.35l5.972-7.144-7.356-14.648c-13.293-26.468-30.306-51.51-59.29-87.276-13.669-16.866-16.133-22.883-10.546-25.75 1.538-.79 8.068-2.704 14.51-4.255 15.052-3.623 15.575-4.672 13.201-26.49l-1.792-16.474-10.268-10.637c-5.648-5.85-10.733-12.486-11.3-14.747-1.21-4.815-10.392-9.286-28.682-13.964-10.203-2.61-12.802-2.736-20.257-.99-9.887 2.315-14.942 4.72-20.538 9.772-2.197 1.984-6.682 4.466-9.966 5.515-6.972 2.227-8.596 4.16-6.062 7.212 1.534 1.848 3.663 1.576 13.288-1.697 14.547-4.948 26.835-6.45 32.657-3.99 6.9 2.914 24.421 27.65 24.421 34.48 0 3.506-7.696 21.476-11.479 26.8-1.947 2.741-4.59 4.395-7.022 4.395-2.146 0-19.897-8.013-39.447-17.806-31.99-16.026-36.589-17.883-45.98-18.569-8.29-.606-10.873-.235-12.566 1.806-2.665 3.21-1.522 3.654 12.136 4.715 8.508.66 13.258 2.527 33.561 13.19 76.501 40.176 98.336 59.867 137.695 124.172 9.433 15.412 9.176 16.28-5.767 19.492-22.96 4.937-24.372 5.778-24.372 14.516 0 3.747.286 3.819 17.18 4.324 9.45.283 18.287.666 19.639.853 1.352.187 5.146-2.875 8.43-6.805zM206.9 97.981c0-1.878 6.492-4.926 10.492-4.926 3.738 0 2.61 2.77-1.554 3.816-2.116.53-4.992 1.405-6.392 1.942-1.405.539-2.546.166-2.546-.832zm-44.412 208.085c1.412-5.478 4.352-6.815 20.44-9.294 10.262-1.582 11.186-2.813 11.186-14.904 0-13.13 3.032-19.51 21.648-45.548 7.432-10.396 13.512-19.178 13.512-19.516 0-.339-1.801-1.795-4.003-3.238-3.112-2.039-4.507-2.206-6.263-.748-2.821 2.342-12.733 19.02-21.905 36.86-6.212 12.083-7.072 15.083-7.783 27.142l-.8 13.557-14.075 2.573c-7.742 1.415-15.137 3.635-16.435 4.932-1.298 1.298-2.8 5.07-3.337 8.384-.913 5.624-.73 5.988 2.756 5.483 2.666-.387 4.113-2.012 5.059-5.683zm142.38-97.33c7.695-3.887 12.306-8.723 12.306-12.906 0-2.06-3.759-11.104-8.353-20.098-7.454-14.592-8.415-15.836-8.931-11.558-.815 6.759-2.526 8.25-11.962 10.428-9.938 2.294-15.503 5.508-15.503 8.953 0 4.09 20.627 27.766 24.19 27.766 1.726 0 5.44-1.163 8.253-2.584zM194.114 194.02c0-.726-1.741-2.955-3.87-4.954-3.764-3.537-4.293-3.59-19.47-1.94-12.067 1.31-16.338 2.433-18.86 4.954l-3.26 3.26h22.73c12.502 0 22.73-.594 22.73-1.32z"/></svg>