<svg xmlns="http://www.w3.org/2000/svg" width="2500" height="2500" viewBox="0 0 498.503 498.503"><path d="M233.412 400.553c-9.841-.43-13.976-.772-27.873-2.308-9.466-1.047-24.485-3.637-34.158-5.891-11.834-2.758-26.655-6.974-33.042-9.4-.539-.204-2.517-.92-4.395-1.592-15.652-5.591-33.925-14.385-47.412-22.816-13.125-8.206-23.142-16.015-33.168-25.858-18.659-18.32-30.34-37.683-35.706-59.184-2.036-8.158-2.846-15.078-2.846-24.31 0-13.765 2.158-25.01 7.28-37.925 16.554-41.738 60.393-77.18 119.872-96.91 2.878-.955 6.155-2.008 7.282-2.341a87.562 87.562 0 002.733-.845c.376-.132 1.421-.438 2.323-.679.902-.241 2.008-.542 2.46-.67 1.805-.507 5.246-1.417 6.148-1.624.526-.12 2.493-.597 4.372-1.059 9.568-2.351 20.89-4.525 30.742-5.903l4.919-.692c2.076-.293 10.403-1.171 15.44-1.627 3.692-.335 10.065-.754 15.439-1.017 5.382-.262 25.737-.313 28.693-.07 1.352.11 4.304.276 6.558.367 7.547.307 18.824 1.305 26.37 2.333 12.217 1.666 20.82 3.176 30.606 5.375 4.164.936 15.199 3.693 16.805 4.2.451.141 1.742.523 2.87.848 15.812 4.557 32.769 11.145 46.864 18.206 53.801 26.952 86.665 66.963 90.736 110.47.668 7.145.396 18.75-.578 24.57-4.17 24.941-15.602 46.3-35.598 66.516-14.766 14.928-31.952 27.168-53.193 37.886-21 10.596-40.743 17.616-66.813 23.757-3.725.877-14.256 2.94-18.856 3.694-8.565 1.404-13.96 2.089-27.053 3.433-11.801 1.211-33.422 1.693-47.821 1.066zm-1.913-17.14c0-.124-.562-.63-1.248-1.123-3.927-2.82-10.069-10.202-14.283-17.168-1.564-2.586-5.92-11.027-7.013-13.59-3.871-9.08-7.343-19.545-9.656-29.103-.985-4.072-1.396-5.843-1.648-7.105l-.686-3.415c-1.149-5.698-2.229-12.174-2.507-15.03a34.549 34.549 0 00-.408-2.87c-.453-2.228-1.62-14.784-1.932-20.767-.169-3.232-.384-10.359-.48-15.839l-.172-9.963-3.006-.483c-11.206-1.8-24.451-4.624-33.202-7.075a720.432 720.432 0 00-2.869-.799c-6.392-1.75-20.21-6.497-24.484-8.411a914.35 914.35 0 00-4.482-1.977c-7.522-3.297-14.208-6.928-20.905-11.351-18.13-11.977-27.615-26.051-27.286-40.484.041-1.834 0-3.41-.09-3.501-.248-.248-5.788 7.093-8.767 11.618-8.844 13.432-14.522 27.643-16.98 42.493-1.073 6.474-1.12 7.157-1.106 16.122.016 10.074.372 13.587 2.203 21.725 6.345 28.201 24.5 53.997 52.726 74.917 18.211 13.497 41.4 24.908 65.43 32.198l3.69 1.121c3.065.938 8.926 2.444 15.712 4.037 6.14 1.442 18.145 3.511 25.414 4.38 12.067 1.443 18.035 1.92 18.035 1.444zm41.536-.16c3.277-.216 15.471-1.616 18.036-2.07.826-.147 2.732-.456 4.235-.689a145.67 145.67 0 004.782-.826c4.623-.91 9.22-1.846 10.248-2.086.601-.14 1.646-.366 2.323-.502 1.214-.245 6.1-1.481 9.017-2.282l3.006-.824c12.91-3.531 28.944-9.714 41.536-16.019 31.979-16.01 56.554-38.196 70.83-63.945 6.707-12.097 10.778-24.422 12.68-38.394.57-4.19.798-15.233.411-19.948-1.701-20.74-9.823-40.73-24.006-59.077-1.435-1.856-2.683-3.301-2.774-3.21-.09.09-.125 1.6-.076 3.353.16 5.787-1.435 12.187-4.347 17.445-10.52 18.992-36.93 34.932-75.808 45.754-8.789 2.446-26.257 6.128-33.728 7.11-1.116.146-2.12.322-2.232.39-.112.07-.196 2.861-.188 6.204.028 11.92-1.213 31.931-2.504 40.373-.15.977-.406 2.76-.571 3.962-.48 3.495-1.349 8.923-1.619 10.11a72.79 72.79 0 00-.558 2.87c-.318 1.823-.38 2.12-1.361 6.558-3.305 14.946-7.945 28.484-13.706 39.985-3.575 7.136-6.377 11.596-10.502 16.718-2.233 2.774-6.566 7.156-8.11 8.205-1.56 1.058-1.336 1.322.956 1.133 1.09-.09 2.903-.225 4.03-.299zm-20.445-47.698c5.707-1.438 10.593-5.535 15.537-13.027 5.176-7.845 10.075-20.626 12.856-33.544 1.452-6.743 2.746-14.86 3.252-20.388.158-1.728.404-4.126.547-5.329.143-1.202.34-4.675.437-7.718l.177-5.533-1.603.126-5.156.405c-1.954.153-5.028.347-6.831.431-1.804.084-3.771.194-4.373.245-1.405.118-35.17.127-36.617.01-.601-.048-3.368-.222-6.149-.386-2.78-.163-6.47-.402-8.197-.53-2.164-.159-3.2-.14-3.329.06-.102.16-.13.715-.065 1.233.067.519.242 3.538.39 6.71.148 3.173.396 6.875.552 8.228.156 1.352.401 3.504.544 4.782.144 1.277.327 2.753.407 3.279.08.526.274 1.817.431 2.87 2.294 15.317 6.598 29.65 11.993 39.942 5.38 10.263 11.542 16.329 18.418 18.132 2.508.657 4.18.658 6.78.003zm8.695-121.878c8.12-.294 19.88-1.004 20.911-1.263.849-.213.849-.408-.003-4.892-2.696-14.2-6.172-25.074-10.944-34.241-6.096-11.71-13.354-18.173-21.144-18.826-3.3-.277-7.62 1.191-11.178 3.797-7.11 5.209-13.725 16.653-18.325 31.707-1.795 5.873-3.262 11.779-4.125 16.606a89.77 89.77 0 01-.572 2.922c-.443 1.99-.34 2.736.405 2.923 1.014.254 12.99 1.007 19.562 1.229 9.177.31 17.535.323 25.413.038zm-66.24-5.747c.177-.976.47-2.636.65-3.688.549-3.177 1.374-7.584 1.638-8.744.137-.601.507-2.261.823-3.69 6.04-27.318 16.28-49.353 28.603-61.551 5.336-5.283 10.122-8.23 15.947-9.82 3.098-.845 9.726-.908 12.704-.12 4.234 1.12 8.174 3.107 12.063 6.085 2.447 1.873 7.322 6.87 9.714 9.957 3.2 4.128 7.23 10.7 9.707 15.826 3.413 7.068 5.609 12.483 8.127 20.043 1.468 4.405 4.222 14.287 4.925 17.668.11.526.31 1.448.445 2.05.136.6.354 1.646.485 2.322.13.676.437 2.214.68 3.416.779 3.839 1.36 7 1.82 9.905.173 1.089.395 2.03.494 2.09.285.175 10.622-1.667 15.894-2.832 36.347-8.028 59.414-20.903 64.397-35.943.614-1.85.725-2.668.729-5.329.003-2.742-.095-3.434-.774-5.434-4.562-13.428-24.073-25.419-54.242-33.334-6.942-1.821-12.51-3.036-21.314-4.651a101.26 101.26 0 00-3.69-.574 96.414 96.414 0 01-3.552-.55c-1.379-.255-2.144-.362-5.875-.823-5.205-.643-7.16-.86-9.7-1.077-1.504-.128-3.225-.302-3.827-.387-1.38-.194-7.849-.655-12.843-.916-5.083-.265-34.466-.267-39.487-.001-6.393.337-12.037.76-13.822 1.037-.914.141-2.275.257-3.024.257-.75 0-2.03.112-2.847.25-.817.136-2.837.39-4.49.561-1.654.173-3.776.427-4.716.565-9.172 1.349-12.172 1.865-18.376 3.16-1.878.393-3.723.77-4.098.84-.376.068-1.729.37-3.006.67-1.278.299-2.57.601-2.87.67-.3.07-1.96.504-3.689.966l-3.962 1.056c-1.977.528-7.637 2.32-10.52 3.332-15.273 5.36-28.519 13.003-34.251 19.765-5.903 6.962-7.646 13.283-5.517 20.005 4.98 15.732 30.757 29.326 70.373 37.115 5.346 1.052 9.118 1.71 9.554 1.667.269-.026.505-.622.72-1.813z"/></svg>