<svg xmlns="http://www.w3.org/2000/svg" width="2500" height="2500" viewBox="0 0 498.503 498.503"><path d="M236.742 492.355c-13.016-.8-25.284-2.348-36.238-4.573-58.076-11.793-110.216-44.764-145.85-92.23C27.71 359.666 11.898 319.32 6.855 273.597c-1.17-10.615-1.17-38.07 0-48.686 6.33-57.387 30.324-107.9 70.192-147.768 15.029-15.029 32.689-28.614 50.64-38.955 27.473-15.827 58.785-26.342 90.555-30.41 16.982-2.174 39.368-2.47 55.745-.739 73.624 7.787 138.948 47.704 179.272 109.547 5.955 9.133 9.663 15.745 15.015 26.777 5.489 11.314 8.259 18.13 12.168 29.942 16.203 48.954 16.108 103.5-.264 152.629-20.706 62.134-64.974 112.855-123.67 141.696-29.503 14.496-59.41 22.436-92.493 24.553-7.098.454-21.238.544-27.273.173zm35.297-10.622c65.88-6.643 125.297-40.341 164.83-93.483 51.99-69.89 60.468-163.612 21.885-241.967-11.783-23.928-25.571-43.167-44.516-62.111-9.168-9.169-15.935-15.073-25.092-21.89-34.65-25.803-73.017-40.759-116.863-45.555-9.623-1.053-34.408-1.217-43.574-.288-49.81 5.045-92.297 22.718-129.99 54.07-7.197 5.986-22.32 21.108-28.306 28.306-32.67 39.277-51.085 85.302-54.447 136.076-3.939 59.475 16.278 119.967 55.489 166.035 5.755 6.762 19.084 20.085 26.016 26.004 26.506 22.633 59.362 39.746 93.02 48.448 15.434 3.99 28.323 5.966 47.469 7.275 5.596.383 26.847-.191 34.08-.92zm-32.132-69.221c-33.123-2.328-62.213-12.81-87.276-31.449-38.093-28.327-61.411-69.343-66.08-116.23-1.235-12.414-.508-31.292 1.699-44.061 9.42-54.519 47.405-101.671 98.983-122.873 20.158-8.286 39.31-11.973 62.168-11.968 12.824.002 18.391.472 29.454 2.485 40.558 7.381 76.262 29.506 101.3 62.773 11.941 15.865 21.006 34.082 26.5 53.25 3.922 13.683 5.56 24.918 5.93 40.676.37 15.73-.651 26.616-3.813 40.652-10.107 44.874-39.656 84.012-80.663 106.842-25.97 14.458-59.15 21.945-88.202 19.903zm26.534-9.222c8.21-.87 16.882-2.546 25.01-4.835 7.516-2.116 8.639-2.65 11.439-5.45 8.048-8.049 5.802-20.898-4.475-25.601-2.082-.953-3.397-1.068-15.421-1.347-11.775-.273-13.5-.418-16.553-1.396-5.58-1.788-8.943-3.843-13.178-8.05-6.847-6.803-9.865-14.684-9.309-24.305.314-5.426 1.018-8.126 3.293-12.62 3.11-6.145 8.629-11.46 14.889-14.338 6.298-2.896 7.6-3.01 34.503-3.02 27.159-.01 26.52.067 26.52-3.165 0-1.796-.941-3.036-2.59-3.413-.584-.133-12.563-.308-26.621-.389-25.17-.144-25.616-.164-29.211-1.278-4.243-1.315-9.332-3.782-13.167-6.385-3.621-2.457-10.018-9.316-12.28-13.169-10.159-17.296-7.41-39.176 6.694-53.28 5.062-5.061 10.425-8.303 17.779-10.744l4.138-1.374 22.882-.265c22.812-.265 22.888-.269 24.684-1.385 4.54-2.824 5.318-9.42 1.517-12.86-2.601-2.354-2.196-2.33-39.363-2.33h-34.858l.332-1.095c.821-2.705 4.35-8.711 6.605-11.241 1.36-1.526 3.848-3.756 5.53-4.956l3.058-2.182H297.887l1.195-1.195c.657-.657 1.195-1.763 1.195-2.457 0-.693-.538-1.799-1.195-2.456l-1.195-1.195h-19.402c-19.363 0-19.404-.002-20.861-1.095-5.605-4.206-10.797-9.956-13.109-14.518l-1.199-2.366 17.648-.14c20.9-.164 20.132.013 23.834-5.494 4.808-7.152 6.13-7.618 21.461-7.564 12.858.045 15.514-.327 18.477-2.587 5.172-3.945 5.865-11.899 1.44-16.543-3.922-4.118-23.094-12.199-38.314-16.15-28.724-7.458-59.697-6.327-87.963 3.212-6.957 2.348-15.089 5.728-15.61 6.488-.198.289-.359 27.525-.357 60.525l.002 60 23.572.127 23.573.126-1.449 3.29c-2.496 5.664-3.441 10.17-3.713 17.693-.242 6.738-.168 7.453 1.696 16.135l.234 1.09-21.842.127-21.843.127V389.71l3.165 1.566c1.74.862 5.684 2.468 8.763 3.57 23.505 8.407 45.631 11.063 70.35 8.444zm-48.442-200.705c-1.966-.398-1.99-.914-.163-3.577 1.532-2.233 2.952-3.19 5.036-3.394 1.292-.127 1.794-.514 2.54-1.956 1.323-2.56 2.733-10.073 2.906-15.486.143-4.487.115-4.63-.956-4.782-.675-.096-2.256.614-4.072 1.826-3.8 2.538-7.063 2.811-11.03.924-3.043-1.448-4.485-3.826-4.485-7.395 0-3.76 1.177-5.681 4.495-7.335 3.891-1.939 8.508-1.46 11.32 1.174 1.648 1.542 3.704 2.12 4.548 1.276.621-.622.64-1.507.137-6.47-1.039-10.249-2.688-15.243-5.036-15.247-1.78-.005-4.179-1.773-5.74-4.236-1.648-2.597-1.54-2.763 2.094-3.235 4.086-.53 6.841.405 10.11 3.43 2.95 2.733 3.154 3.078 8.223 13.989 2.636 5.673 5.584 9.743 9.778 13.498 1.87 1.674 3.392 3.164 3.381 3.31-.012.147-1.14 1.143-2.51 2.214-3.534 2.763-7.81 8.328-10.108 13.15l-3.924 8.242c-2.024 4.25-5.114 7.9-7.914 9.348-1.686.872-6.092 1.246-8.63.732zm23.2-76.91c-1.017-1.124-1.037-3.19-.04-4.187.672-.67 3.285-.765 21.346-.765 19.32 0 20.63.055 21.387.89 1.15 1.271 1.017 3.289-.276 4.195-.937.656-3.794.758-21.346.758-19.014 0-20.314-.055-21.07-.89zm.39-11.502c-1.805-1.805-1.668-4.65.303-6.308 2.029-1.707 4.028-1.652 5.842.163 1.814 1.814 1.87 3.813.163 5.842-1.659 1.971-4.503 2.108-6.308.303zm18.014 0c-2.595-2.595-.501-7.568 3.186-7.568 1.95 0 4.382 2.292 4.382 4.132 0 1.485-.793 3.153-1.905 4.007-1.372 1.053-4.338.754-5.663-.571zm17.543-.36c-1.063-1.265-1.257-1.88-1.033-3.287.335-2.108 2.274-3.921 4.193-3.921.791 0 2.044.545 2.894 1.26 3.151 2.652 1.329 7.503-2.819 7.503-1.568 0-2.169-.289-3.235-1.555zm45.609 271.958c38.26-20.895 65.795-55.879 76.602-97.326 12.737-48.85.914-100.977-31.555-139.119-2.58-3.03-4-3.777-2.314-1.217 1.96 2.977 4.783 8.884 6.297 13.175 4.728 13.4 4.917 28.675.521 42.205-6.833 21.034-24.061 37.058-46.226 42.996l-5.599 1.5-22.638.269c-16.53.196-22.92.43-23.678.864-1.546.886-1.9 2.96-.765 4.48l.934 1.254 26.482.278c29.275.308 29.125.293 36.302 3.609 9.978 4.61 17.52 12.976 21.128 23.434 1.608 4.663 1.66 5.044 1.665 12.357.005 6.568-.142 8.018-1.135 11.181-4.4 14.013-14.32 23.54-28.527 27.4-3.753 1.019-5.104 1.077-30.864 1.325-25.945.25-26.964.295-27.629 1.205-.973 1.331-.857 3.026.283 4.167.932.931 1.626.974 15.945.977 8.234.002 16.395.225 18.135.495 10.703 1.66 19.9 11.09 21.481 22.019 1.17 8.082-1.643 16.555-7.409 22.32-1.58 1.58-2.772 2.874-2.648 2.874.124 0 2.47-1.225 5.212-2.722zm-176.81-69.576v-48.442H95.266l.26 1.583c.142.87.611 3.773 1.042 6.45 4.086 25.42 16.565 52.238 33.983 73.029 2.242 2.675 14.91 15.823 15.247 15.823.08 0 .145-21.8.145-48.443zm-.01-134.737l-.01-47.833-6.97 7.06c-7.9 8.001-13.234 14.545-19.05 23.368-12.384 18.792-20.287 39.055-23.782 60.979l-.679 4.26H145.942l-.01-47.834zm295.981 68.103c-8.58-2.314-15.015-11.138-16.988-23.295-2.02-12.446 2.393-23.476 11.11-27.768 2.866-1.41 3.665-1.582 7.373-1.582 3.713 0 4.506.17 7.39 1.591 12.374 6.091 18.261 26.679 11.662 40.78-3.887 8.306-12.28 12.503-20.547 10.274zm8.255-11.477c4.554-2.323 6.714-7.152 6.235-13.94-.774-10.98-6.962-17.835-14.617-16.194-2.79.599-5.693 2.974-7.298 5.973-.919 1.716-1.057 2.729-1.034 7.58.029 6.302.954 9.538 3.788 13.245 3.075 4.022 8.723 5.48 12.926 3.336zm-396.97-.767c-8.52-6.567-16.008-12.07-16.64-12.228-.632-.159-1.61-.168-2.174-.02-.935.245-1 .116-.741-1.477.155-.96.661-4.261 1.123-7.336.822-5.469.873-5.603 2.332-6.211 2.847-1.188 39.374-13.382 39.552-13.204.304.304-1.229 9.692-1.644 10.069-.214.194-1.869.837-3.677 1.428-2.517.822-3.34 1.32-3.513 2.13-.124.58-.907 5.656-1.741 11.279-.834 5.623-1.626 10.69-1.76 11.261-.193.828.38 1.51 2.838 3.372a414.19 414.19 0 003.214 2.422c.162.107-1.32 10.097-1.528 10.306-.082.082-7.12-5.224-15.64-11.79zm4.83-17.106c.623-3.976 1.04-7.33.927-7.453-.288-.315-15.745 4.845-15.725 5.25.031.617 13.347 10.387 13.506 9.908.088-.261.669-3.729 1.292-7.705zm350.814-49.62c-5.49-10.578-10.04-19.4-10.111-19.606-.072-.205 6.5-3.962 14.606-8.348 9.507-5.146 15.349-8.606 16.463-9.75l1.728-1.774 9.957 19.215c5.476 10.569 10.014 19.46 10.085 19.757.07.297-1.383 1.361-3.23 2.364-2.578 1.4-3.466 1.682-3.831 1.217-.261-.333-3.613-6.685-7.449-14.116-3.836-7.43-7.114-13.51-7.286-13.51-.171 0-1.552.672-3.067 1.493l-2.756 1.492 2.735 5.202c1.505 2.86 3.801 7.214 5.104 9.673 1.303 2.46 2.368 4.585 2.368 4.723 0 .353-6.065 3.707-6.704 3.707-.288 0-2.763-4.327-5.5-9.615-2.736-5.289-5.01-9.665-5.055-9.725-.136-.185-6.102 3.015-6.103 3.274-.001.134 3.393 6.803 7.542 14.82 4.15 8.018 7.544 14.709 7.544 14.869 0 .27-6.461 3.924-6.874 3.888-.102-.01-4.677-8.671-10.166-19.25zm-343.72 8.265c-12.585-6.613-15.71-8.066-17.42-8.1-1.145-.022-2.02-.17-1.942-.33.931-1.893 5.39-10.55 5.495-10.666.127-.141 18.282 9.237 24.454 12.631l2.553 1.404 6.577-13.147c3.617-7.231 6.705-13.148 6.861-13.148.239 0 6.402 3.29 6.95 3.71.234.178-17.629 35.716-17.948 35.71-.134-.005-7.145-3.631-15.58-8.064zm28.482-48.433c-9.1-8.722-13.17-12.305-14.479-12.742l-1.82-.609 13.415-14.606c7.378-8.033 14.166-15.367 15.083-16.298l1.669-1.692 2.89 2.86 2.889 2.859-10.676 11.568c-5.871 6.363-10.675 11.786-10.675 12.05 0 .265 1.505 1.816 3.346 3.448l3.346 2.966 6.34-6.933c3.486-3.813 6.915-7.468 7.618-8.123l1.279-1.19 2.667 2.634c1.467 1.449 2.667 2.832 2.667 3.075 0 .242-2.672 3.317-5.94 6.832-3.266 3.516-6.599 7.108-7.406 7.984l-1.468 1.591 4.608 4.314 4.608 4.314-3.132 3.345a844.058 844.058 0 00-3.651 3.916c-.385.423-3.809-2.581-13.178-11.563zm293.573 4.832l-3.748-3.594 7.556-10.215c4.156-5.62 7.399-10.275 7.206-10.346-.192-.071-6.446 1.308-13.897 3.064-7.452 1.756-13.671 3.07-13.822 2.919-.15-.15.54-6.678 1.533-14.505.994-7.827 1.801-14.417 1.795-14.644-.005-.228-4.09 3.551-9.075 8.398-4.985 4.847-9.257 8.812-9.492 8.812-.236 0-2.048-1.538-4.027-3.418l-3.599-3.418 9.074-8.872 12.84-12.553c2.607-2.547 3.862-4.16 4.078-5.237.171-.855.413-1.556.537-1.556.125 0 2.461 2.073 5.193 4.606l4.966 4.605-1.45 12.425c-.797 6.833-1.3 12.575-1.115 12.759.184.184 5.429-.798 11.654-2.182 6.226-1.385 11.66-2.517 12.078-2.516.416.001 2.67 1.81 5.01 4.018l4.251 4.017-11.248 14.849c-6.187 8.167-11.542 15.148-11.9 15.513-.546.559-1.247.092-4.398-2.929zM135.773 96.259c-.068-6.761-.187-13.936-.265-15.945a422.022 422.022 0 01-.208-7.69c-.06-3.638-.19-4.162-1.313-5.285-.686-.686-1.179-1.297-1.096-1.358 1.423-1.053 12.697-7.121 13.014-7.006.885.325 36.046 23.052 36.056 23.306.005.145-1.971 1.397-4.393 2.782l-4.404 2.52-3.283-2.105-3.283-2.104-10.692 6.138-10.692 6.138-.244 4.12-.243 4.12-3.895 2.313c-2.142 1.273-4.129 2.322-4.415 2.332-.352.012-.56-3.95-.644-12.276zm15.469-13.588c3.379-1.917 6.432-3.709 6.784-3.981.485-.375-.887-1.495-5.598-4.573-3.432-2.242-6.624-4.292-7.092-4.555-.798-.449-.852.07-.852 8.058 0 4.695.138 8.537.307 8.537.169 0 3.072-1.569 6.45-3.486zm163.64 2.491c-9.38-2.417-17.176-8.054-20.488-14.815-1.45-2.959-1.684-3.96-1.826-7.79-.132-3.564.032-4.914.87-7.146 2.827-7.54 9.004-11.526 18.57-11.982 12.066-.575 24.78 6.248 29.522 15.842 1.733 3.507 1.834 3.964 1.834 8.36 0 4.018-.176 5.026-1.296 7.413-2.423 5.169-6.978 8.897-12.75 10.434-3.56.947-10.086.805-14.435-.316zm12.58-9.346c2.575-1.201 4.659-3.953 5.43-7.169.752-3.135-.253-6.795-2.63-9.572-3.342-3.904-12.735-7.509-17.545-6.733-6.243 1.008-9.994 5.159-10.003 11.07-.012 9.127 15.312 16.807 24.749 12.404zm-99.889-4.59c-.178-.178-.324-8.076-.324-17.55 0-14.72-.112-17.443-.766-18.708-.422-.815-.623-1.626-.447-1.802.176-.176 8.682-.32 18.902-.32 20.743 0 20.268-.069 24.226 3.508 3.164 2.857 4.406 5.964 4.406 11.02 0 4.125-.865 6.5-3.32 9.125-1.214 1.299-2.623 2.492-3.13 2.653-.508.161-.923.504-.923.761 0 .258 1.753 2.797 3.895 5.642 2.142 2.845 3.895 5.358 3.895 5.585 0 .226-2.515.411-5.589.411h-5.589l-3.758-5.355-3.759-5.356H237.96v10.711h-5.031c-2.767 0-5.177-.146-5.356-.325zm34.283-20.496c1.165-1.304 1.42-2.024 1.42-4.009 0-1.984-.255-2.704-1.42-4.008l-1.42-1.59h-22.568l.022 4.016c.012 2.21.033 4.798.046 5.754l.024 1.737 11.239-.155 11.238-.155z" fill="#ffff"/></svg>
