<svg xmlns="http://www.w3.org/2000/svg" width="2500" height="2500" viewBox="0 0 498.503 498.503"><path d="M90.873 327.451c-28.026-3.61-52.397-22.348-63.079-48.5-7.437-18.208-7.685-39.63-.67-57.795 8.48-21.959 26.43-39.184 48.478-46.524 9.817-3.268 13.308-3.791 25.296-3.791 9.33 0 11.155.122 15.276 1.021 12.457 2.718 22.62 7.373 33.376 15.287.637.469 1.31.156 4.377-2.029 13.588-9.684 28.848-14.507 45.946-14.521 17.117-.014 33.157 5.175 46.593 15.073l2.856 2.103 2.33-1.78c8.316-6.35 20.637-11.82 31.78-14.111 5.676-1.167 18.584-1.625 24.74-.879 14.121 1.712 26.671 6.863 39.317 16.139.63.462 1.38.094 4.799-2.36 7.912-5.678 19.414-10.646 29.753-12.852 5.817-1.24 18.93-1.71 25.336-.909 5.152.645 13.325 2.628 17.904 4.343 8.372 3.137 18.201 9.103 25.262 15.333 6.119 5.4 13.635 15.243 17.484 22.9 8.847 17.594 10.807 37.61 5.566 56.846-3.69 13.548-10.861 25.433-21.505 35.642-11.008 10.56-24.442 17.554-39.44 20.535-6.984 1.388-18.493 1.7-25.421.687-14.553-2.125-25.722-6.824-38.508-16.199-.34-.25-1.784.513-4.063 2.148-9.444 6.776-20.487 11.43-32.506 13.698-6.454 1.218-21.42 1.075-28.107-.27-10.815-2.172-20.752-6.324-29.843-12.468l-4.952-3.347-5.073 3.434c-12.884 8.72-26.327 13.045-42.048 13.527-19.104.585-33.466-4.093-51.354-16.73-.375-.266-1.45.272-3.237 1.618-10.035 7.564-22.648 12.674-35.942 14.564-4.985.71-15.835.796-20.72.167zm22.132-17.067c5.288-1.077 11.184-3.08 15.624-5.308 3.533-1.772 8.981-5.189 9.428-5.912.16-.26-.6-1.65-1.69-3.088-14.966-19.735-19.41-47.17-11.561-71.379 1.913-5.899 7.053-16.09 10.577-20.967 1.613-2.232 2.934-4.167 2.936-4.3.002-.134-1.3-1.1-2.894-2.149-21.027-13.824-48.159-13.855-68.924-.078-33.008 21.9-37.71 68.01-9.793 96.025 10.297 10.333 23.13 16.365 38.779 18.227 3.434.41 13.18-.187 17.518-1.07zm98.635.044c8.203-1.59 15.87-4.697 22.445-9.095l3.455-2.31-1.303-1.654c-4.781-6.066-10.168-16.31-12.605-23.973-4.173-13.116-4.836-28.477-1.8-41.71 2.218-9.668 7.28-20.891 12.769-28.303l2.927-3.954-3.722-2.417c-6.927-4.497-13.266-7.107-21.674-8.924-6.07-1.311-17.876-1.417-23.91-.214-8.027 1.6-18.15 5.848-23.836 10l-2.12 1.548 3.558 5.31c8.145 12.161 12.353 24.056 13.6 38.445.861 9.952-.523 21.195-3.861 31.346-1.747 5.313-7.046 15.648-10.404 20.291l-2.935 4.058 1.382 1.14c2.197 1.814 8.5 5.28 12.762 7.017 4.778 1.948 11.414 3.671 16.273 4.225 5.077.58 13.678.205 18.999-.826zm98.255.16c4.978-.87 12.109-3.214 16.53-5.434 3.517-1.765 9.122-5.246 9.542-5.924.138-.224-1.058-2.222-2.657-4.44-3.499-4.854-8.71-15.127-10.513-20.728-7.755-24.086-4.139-48.987 10.132-69.768 1.868-2.72 3.334-4.994 3.258-5.053-1.878-1.44-6.5-4.21-9.77-5.851-19.404-9.742-43.078-8.442-61.34 3.368l-4.158 2.689 1.981 2.592c8.106 10.607 13.533 24.192 15.238 38.15.758 6.206.317 17.667-.919 23.908-2.35 11.87-8.01 24.453-14.964 33.276l-1.306 1.658 3.506 2.316c8.364 5.527 17.63 8.758 28.982 10.108 2.914.347 12.362-.151 16.458-.867zm99.95-.23c22.3-4.532 39.833-20.043 47.056-41.629 2.194-6.557 3.051-12.024 3.051-19.457 0-7.237-.798-12.506-2.885-19.04-4.24-13.274-12.983-24.937-24.475-32.65-7.16-4.805-14.757-7.94-23.553-9.716-2.964-.599-5.988-.8-11.667-.779-11.03.043-18.002 1.653-27.45 6.34-3.84 1.903-9.737 5.548-9.74 6.02-.001.123 1.318 2.05 2.93 4.283 3.524 4.878 8.665 15.068 10.577 20.967 7.841 24.184 3.39 51.664-11.56 71.38-1.09 1.437-1.851 2.827-1.69 3.087.446.723 5.895 4.14 9.428 5.912 6.004 3.012 13.682 5.302 20.79 6.2 4.711.596 13.906.156 19.188-.918zm-256.656-27.28c9.782-15.102 12.52-33.508 7.611-51.166-1.739-6.255-6.184-15.315-9.58-19.526l-1.02-1.265-2.142 3.192c-7.484 11.155-11.013 23.646-10.515 37.214.344 9.376 2.27 17.178 6.21 25.157 1.443 2.92 6.223 10.69 6.578 10.69.04 0 1.327-1.933 2.858-4.297zm98.546.677c4.542-6.831 7.452-13.9 9.277-22.534 1.298-6.139 1.413-16.618.253-22.979-.948-5.2-2.91-11.206-5.238-16.025-2.057-4.26-6.111-10.596-6.78-10.596-.543 0-4.762 6.366-6.426 9.694-2.015 4.03-4.318 10.757-5.333 15.576-1.326 6.294-1.427 17.14-.218 23.428 1.052 5.474 2.9 11.16 5.182 15.94 1.913 4.01 6.153 10.664 6.794 10.664.21 0 1.331-1.425 2.49-3.168zm98.303 1.026c2.425-3.25 7.257-13.36 8.566-17.923 1.96-6.834 2.589-12.232 2.31-19.84-.451-12.272-3.443-21.81-10.018-31.937l-2.585-3.98-1.027 1.275c-5.26 6.522-10.076 18.457-11.496 28.485-1.174 8.293-.005 20.38 2.754 28.477 1.99 5.839 8.36 17.585 9.538 17.585.198 0 1.079-.964 1.958-2.142z" fill="#ffff"/></svg>
