<svg xmlns="http://www.w3.org/2000/svg" width="2500" height="2500" viewBox="0 0 498.503 498.503"><path d="M230.204 488.559c-34.86-3.047-67.687-12.947-97.08-29.28C71.3 424.925 27.808 365.688 13.856 296.83c-3.509-17.316-4.206-25.254-4.2-47.82.007-16.544.224-22.369 1.064-28.363 4.306-30.708 11.305-53.807 23.953-79.056 11.701-23.358 25.75-42.708 44.93-61.89 19.179-19.177 38.533-33.229 61.879-44.924 24.77-12.409 47.795-19.495 76.672-23.598 12.47-1.772 39.384-2.242 53.115-.928 30.748 2.942 58.807 11.033 85.97 24.788 37.537 19.009 68.83 46.803 91.766 81.506 21.446 32.448 33.792 66.248 38.687 105.912 1.66 13.444 1.505 42.024-.302 55.823-2.929 22.369-7.563 40.427-15.333 59.745-24.675 61.355-72.775 109.455-134.13 134.13-19.298 7.762-37.635 12.47-59.444 15.264-11.382 1.459-37.562 2.076-48.279 1.14zm47.496-19.232c42.97-5.79 82.16-23.052 114.541-50.448 7.662-6.482 21.69-20.59 27.89-28.048 22.45-27.007 38.7-60.64 46.048-95.3 3.507-16.546 4.458-26.211 4.488-45.615.035-22.361-1.346-34.623-6.083-54.012-3.87-15.84-8.59-28.74-16.229-44.357-11.187-22.872-24.472-41.402-42.831-59.745-36.547-36.514-85.461-59.242-137.072-63.69-10.91-.94-38.377-.434-47.602.877-15.753 2.239-27.319 4.898-41.339 9.504C103.125 63.59 45.95 128.759 31.085 207.672c-2.55 13.537-3.144 19.835-3.468 36.813-.357 18.66.438 29.89 3.168 44.741 11.698 63.65 50.213 118.586 106.311 151.637 26.576 15.657 58.666 26.165 88.582 29.005 3.651.346 7.589.74 8.75.872 1.162.134 9.31.148 18.105.033 11.731-.154 18.437-.539 25.167-1.446zm-36.935-80.697c-24.546-1.596-48.927-9.832-69.1-23.341-11.637-7.794-25.97-21.372-34.194-32.393-13.975-18.728-23.137-40.723-26.55-63.732-1.297-8.752-1.472-29.799-.315-37.956 2.156-15.204 6.45-29.285 13.067-42.848 20.336-41.686 59.087-70.192 105.023-77.255 9.985-1.535 25.182-1.808 35.304-.635 11.4 1.323 18.262 2.828 28.967 6.356 14.53 4.789 27.503 11.544 39.83 20.743 7.133 5.322 19.212 17.03 25.076 24.306 33.924 42.092 40.363 99.781 16.571 148.465-10.968 22.443-26.85 40.63-47.834 54.777-17.122 11.543-38.087 19.574-58.327 22.342-6.822.934-21.539 1.56-27.518 1.17zm8.187-18.34c1.142-.61 1.167-1.918 1.167-60.348v-59.724h59.725c59.657 0 59.724-.001 60.388-1.242 1.486-2.776-1.106-22.114-4.572-34.119-12.204-42.259-47.145-74.725-90.798-84.365-7.528-1.663-19.196-2.99-23.536-2.677l-2.715.196-.302 60.047-.302 60.047-60.047.302-60.047.302-.196 2.716c-.313 4.34 1.014 16.007 2.677 23.536 4.97 22.505 15.39 42.073 30.954 58.13 21.894 22.589 48.086 34.839 80.02 37.426 5.141.416 6.457.377 7.584-.226zM90.495 156.986c-12.612-10.121-23.172-18.766-23.467-19.21-.756-1.14 31.392-41.208 34.602-43.127 5.54-3.31 12.415-2.294 17.272 2.554 3.538 3.531 4.667 6.766 4.082 11.7-.443 3.743.043 3.907 4.385 1.48 2.39-1.336 3.706-1.64 7.167-1.658 3.596-.019 4.73.249 7.472 1.766 1.777.985 4.016 2.741 4.974 3.903 3.843 4.663 4.554 11.824 1.705 17.186-2.013 3.79-33.33 43.206-34.656 43.619-.333.103-10.924-8.092-23.536-18.213zm35.312-11.473c5.043-6.306 9.58-12.258 10.08-13.225 1.518-2.934.723-6.856-1.87-9.234-1.828-1.674-2.621-1.982-5.109-1.982-2.11 0-3.418.372-4.613 1.312-2.59 2.037-20.22 24.504-20.22 25.767 0 .663 1.898 2.7 4.635 4.976 4.986 4.145 6.142 4.821 7.228 4.232.384-.209 4.825-5.54 9.869-11.846zm-28.85-5.582c4.56-4.861 17.899-22.22 18.189-23.67 1.345-6.724-6.724-12.232-12.18-8.315-2.196 1.577-19.41 23.122-19.41 24.294 0 .848 10.139 9.29 11.203 9.328.353.012 1.342-.724 2.198-1.637zm283.272 29.084c-1.858-3.171-3.377-6.018-3.377-6.325 0-.308 5.73-8.078 12.732-17.268 14.95-19.62 14.304-18.677 13.414-19.568-.504-.503-5.856 1.68-20.68 8.434-11 5.012-20.329 9.11-20.73 9.105-.4-.006-2.893-1.999-5.54-4.432-4.145-3.81-4.73-4.59-4.224-5.63.938-1.93 35.415-47.261 35.944-47.261.263 0 2.674 2.104 5.357 4.677l4.879 4.677-10.274 13.501c-5.651 7.426-10.274 13.876-10.274 14.333 0 .458.495.832 1.101.832s7.87-3.152 16.144-7.003c8.273-3.851 15.65-7.238 16.394-7.526 1.205-.468 1.85.095 5.932 5.17 2.98 3.704 4.415 5.964 4.106 6.464-.261.423-4.85 6.475-10.197 13.449-11.832 15.432-12.127 15.868-11.291 16.704.455.455 5.137-1.407 16.016-6.368 8.455-3.855 15.665-7.01 16.02-7.01.923 0 7.346 11.064 6.767 11.656-.582.596-53.64 25.157-54.345 25.157-.274 0-2.017-2.596-3.874-5.768zm-168.38-77.363c.205-4.564.685-18.12 1.068-30.126s.879-22.012 1.103-22.236c.448-.448 18.62-2.885 18.962-2.543.117.117 3.483 9.692 7.479 21.278 3.996 11.586 7.515 21.315 7.818 21.618.304.304.91.412 1.347.241.437-.17 4.028-9.78 7.98-21.353 3.95-11.573 7.346-21.233 7.544-21.466.374-.44 18.524 1.49 19.06 2.027.167.167.704 11.824 1.193 25.904l1.042 29.941c.084 2.388-.021 4.517-.236 4.73-.213.213-3.364-.07-7-.63l-6.614-1.019-.367-5.823c-.201-3.203-.518-11.527-.703-18.497-.392-14.742-.599-16.596-1.85-16.596-1.141 0-1.232.227-8.688 21.726-3.396 9.791-6.458 18.152-6.804 18.58-.441.546-2.07.725-5.472.603l-4.843-.173-7.044-20.217c-6.857-19.678-8.306-22.732-9.249-19.497-.174.6-.628 9.645-1.007 20.1-.38 10.456-.872 19.202-1.095 19.436-.405.425-10.906 2.283-12.93 2.287-.983.003-1.036-.628-.693-8.295z" fill="#ffff"/></svg>
