<svg xmlns="http://www.w3.org/2000/svg" width="2500" height="2500" viewBox="0 0 498.503 498.503"><path d="M80.45 407.094c-13.97-3.299-15.813-14.642-5.657-34.813 3.438-6.828 6.49-12.955 6.784-13.615.294-.66-2.228-1.217-5.603-1.236-7.692-.04-18.5-4.85-21.935-9.754-1.438-2.052-2.61-6.273-2.603-9.38.032-15.866 20.96-28.244 54.201-32.053 17.019-1.95 19.434-1.979 19.434-.231 0 .759-5.375 1.867-11.944 2.462-39.976 3.623-68.25 31.292-42.504 41.593 10.969 4.39 16.445 3.457 27.505-4.685 34.937-25.72 74.24-43.952 94.746-43.952 28.362 0 23.484 18.915-9.154 35.49-22.107 11.226-69.304 23.456-84.007 21.768-4.645-.533-6.042.24-10.654 5.886C76.203 380.318 72.032 394.92 79 399.8c4.844 3.393 16.48 3.137 27.347-.602 13.907-4.785 36.204-16.89 45.942-24.941 15.745-13.019 34.863-20.438 45.672-17.725 3.982 1 3.766 1.376-8.385 14.626-12.714 13.864-16.248 19.086-14.261 21.073 2.07 2.07 11.934-4.681 23.706-16.222 13.418-13.154 22.548-18.184 34.73-19.136 8.089-.632 9.17-1.264 19.229-11.246 7.9-7.84 11.787-10.577 15.02-10.577 2.4 0 4.363.24 4.363.531 0 .292-10.143 10.558-22.54 22.814-23.86 23.59-26.802 27.215-24.198 29.819 2.89 2.89 8.027-.353 24.668-15.574 10.358-9.476 17.803-15.084 20.069-15.12 1.981-.032 3.602.435 3.602 1.035 0 .6-5.883 7.12-13.074 14.486-11.865 12.156-12.842 13.626-10.567 15.901 2.275 2.275 3.224 2.266 10.272-.1 10.198-3.424 10.198-3.424 15.756-14.528 10.239-20.459 44.152-48.029 47.701-38.78 2.458 6.405-13.984 26.25-32.477 39.197-12.098 8.47-14.51 11.024-13.327 14.108 1.145 2.984 7.172 2.836 17.536-.431 7.88-2.484 8.805-3.321 12.812-11.607 5.131-10.608 28.658-34.887 37.995-39.21 5.639-2.61 6.409-2.64 8.717-.332 2.307 2.308 2.293 3.03-.164 8.182-3.998 8.384-14.59 19.15-29.501 29.983-13.146 9.551-15.71 13.219-10.607 15.177 4.045 1.552 15.862-5.507 28.248-16.875 12.834-11.777 21.887-16.313 34.563-17.317 15.116-1.197 15.252.527 1.274 16.194-6.765 7.583-12.3 14.844-12.3 16.135 0 5.674 7.152 1.67 19.784-11.077 16.202-16.348 27.617-23.363 38.056-23.384 12.305-.024 14.25 6.828 4.312 15.19-6.01 5.058-7.696 4.118-3.097-1.728 7.036-8.945 2.877-12.212-9.026-7.091-8.763 3.77-20.114 14.405-22.69 21.26-1.383 3.68-1.128 4.969 1.508 7.605 1.745 1.745 4.123 3.173 5.284 3.173 3.996 0 19.512-5.078 24.706-8.086 4.217-2.442 5.203-2.574 5.203-.698 0 4.867-27.033 14.778-34.932 12.807-5.575-1.391-9.896-5.354-9.896-9.075 0-3.83-.596-3.731-5.625.929-2.303 2.135-6.37 4.642-9.037 5.572-4.216 1.47-5.27 1.216-8.085-1.945l-3.238-3.635-7.876 3.898c-9.632 4.767-15.77 3.204-15.77-4.015v-4.316l-3.602 3.294c-9.339 8.54-19.833 10.652-25.376 5.109l-3.363-3.363-8.787 3.363c-4.833 1.85-10.833 3.363-13.333 3.363-4.372 0-9.578-3.504-9.578-6.445 0-.777-3.783.348-8.405 2.5-4.623 2.152-10.335 3.92-12.694 3.929-5.278.016-9.835-4.245-8.794-8.228 1.034-3.953.313-3.77-6.624 1.677-10.08 7.915-17.917 7.895-17.917-.048 0-2.725-.853-2.538-8.746 1.916-10.486 5.919-15.851 5.786-16.567-.408l-.497-4.306-7.42 4.706c-9.242 5.86-14.38 6.135-15.709.84l-.97-3.867-5.064 2.937c-4.958 2.875-8.649 3.75-14.27 3.38-2.006-.132-2.801-1.552-2.801-5v-4.816l-9.277 6.332c-11.692 7.981-22.29 12.578-35.551 15.421-11.536 2.473-12.847 2.517-20.606.684zm84.032-19.326c5.436-3.36 26.23-25.112 26.23-27.438 0-3.943-17.11 3.83-26.579 12.073-6.532 5.687-12.33 15.003-10.837 17.417 1.345 2.177 5.61 1.394 11.186-2.052zm43.688.995c4.87-2.518 27.37-25.838 27.37-28.366 0-3.59-17.7 4.502-26.7 12.206-6.411 5.487-12.21 14.802-10.717 17.217 1.191 1.927 5.065 1.52 10.047-1.057zm149.215-3.07c6.044-4.634 12.627-11.749 22.137-23.926 2.103-2.693 1.928-2.823-2.415-1.798-13.028 3.074-34.301 20.344-34.301 27.846 0 5.051 6.445 4.113 14.579-2.122zm-32.19-15.127c16.754-13.054 30.94-29.123 28.164-31.9-2.79-2.79-29.774 22.171-36.063 33.361-4.15 7.386-3.237 7.217 7.899-1.46zm-36.974 1.802c19.036-14.253 33.421-30.196 30.175-33.443-2.844-2.844-30.28 22.606-35.727 33.142-2.964 5.73-1.785 5.794 5.552.301zM136.648 350.41c27.4-6.95 59.052-23.394 67.574-35.104l3.3-4.535-3.78-3.07c-4.569-3.71-9.374-3.846-21.772-.617-18.437 4.802-50.813 22.621-75.883 41.763l-7.093 5.416h11.232c6.59 0 17.51-1.593 26.422-3.853zm299.813 42.272c-.854-1.382-.666-1.704.556-.949 1.175.726 1.849-.093 1.849-2.248 0-2.248-.675-3.01-2.001-2.261-1.59.897-1.595.69-.025-1.002 2.768-2.984 8.108-3.07 10.456-.167 1.574 1.945 1.569 2.198-.024 1.241-1.35-.81-2-.098-2 2.189 0 2.155.673 2.974 1.847 2.248 1.222-.754 1.41-.433.557.949-1.01 1.632-1.765 1.444-3.45-.86-2.095-2.865-2.218-2.865-4.314 0-1.684 2.304-2.44 2.492-3.45.86zm7.997-6.38c.56-.909-.082-1.177-1.507-.63-2.773 1.064-3.281 2.211-.978 2.211.828 0 1.947-.712 2.485-1.582zM272.933 351.84c-1.212-3.158 2.195-7.184 6.08-7.184 3.863 0 5.531 4.1 2.938 7.225-2.561 3.086-7.827 3.062-9.018-.04zm-103.898-93.82c-87.544-14.989-91.759-16.104-104.393-27.63-8.092-7.383-7.937-6.847-15.785-54.639L42.81 138.93l-11.055-15.723c-6.08-8.647-10.71-16.07-10.286-16.493.423-.424 5.648 6.112 11.61 14.523 9.355 13.196 11.464 15.292 15.394 15.292 2.504 0 4.553-.564 4.553-1.253 0-2.424-17.88-22.762-20.01-22.762-1.187 0-4.275-1.781-6.862-3.958-2.587-2.177-5.094-3.567-5.572-3.09-.478.478-3.052-2.306-5.722-6.185l-4.853-7.055 127.44-1.063c149.843-1.25 351.05-1.404 351.05-.268 0 .438-7.248 10.584-16.107 22.549-8.858 11.964-16.754 23.314-17.548 25.22-.793 1.908-4.38 19.678-7.97 39.49-3.589 19.813-7.26 38.317-8.156 41.12-2.237 6.996-12.117 15.492-22.455 19.313-4.738 1.751-44.01 9.972-87.27 18.27l-78.655 15.084zm77.655 9.852c-2.879-1.685-30.407-6.955-83.996-16.078-63.011-10.728-82.63-15.684-93.305-23.57-2.888-2.132-6.036-3.616-6.996-3.296-.96.32.836 2.55 3.99 4.957 13.722 10.466 17.612 11.469 97.112 25.041 41.826 7.14 76.767 13.264 77.648 13.607.88.343 3.042.658 4.803.701 2.64.065 2.77-.175.743-1.361zm64.536-9.912c29.74-5.576 53.434-10.35 52.653-10.611-4.062-1.354-110.723 18.24-113.13 20.783-1.11 1.172-.374 1.426 2.401.828 2.202-.474 28.336-5.425 58.076-11zm-62.879-71.002v-77.648H145.083c-56.795 0-103.264.343-103.264.762s4.36 6.858 9.69 14.31c6.605 9.233 9.924 15.49 10.422 19.65.777 6.493.016 5.772-1.59-1.502-.884-4.003-1.622-4.402-8.146-4.402-5.807 0-7.153.534-7.063 2.801.064 1.541 3.122 20.073 6.804 41.181 6.223 35.68 6.963 38.514 10.527 40.288 4.998 2.489 10.239.488 11.51-4.392.962-3.694 1.02-3.664 1.633.81.398 2.915 2.762 6.359 6.352 9.255 4.853 3.914 10.686 5.69 38.532 11.728 25.519 5.534 120.43 24.029 126.656 24.681.661.073 1.201-34.816 1.201-77.522zm-37.552 61.077l-28.747-5.05-1.335-6.4c-.734-3.52-1.126-10.356-.871-15.19.382-7.255 1.01-8.894 3.599-9.387 1.725-.329 16.314-.08 32.42.558l29.284 1.156v19.839c0 17.887-.276 19.823-2.801 19.682-1.541-.087-15.738-2.43-31.55-5.208zm-123.348-18.17c-4.921-2.655-9.098-7.125-7.837-8.386.389-.39 1.742.771 3.008 2.578 3.837 5.48 10.787 7.31 25.425 6.695 7.438-.312 12.691-.04 11.673.61-3.633 2.31-27.245 1.216-32.269-1.496zm35.054-1.681c-1.35-2.156-5.592-3.214-18.403-4.589-15.883-1.704-14.64-1.796 26.977-2.001l43.627-.214v9.606h-25.224c-22.288 0-25.428-.326-26.977-2.802zm-53.022-34.822c-2.585-15.413-3.113-22.474-2.035-27.217 1.302-5.722 1.37-5.446.634 2.598-.625 6.835-.223 9.601 1.668 11.493 1.37 1.37 2.492 3.384 2.492 4.475 0 1.092.794 6.547 1.765 12.122l1.765 10.137H112.517l-1.125-10.806c-.619-5.944-1.29-11-1.492-11.238-.73-.857-30.489-3.213-31.659-2.507-.66.4-1.2.04-1.2-.808 0-.94 18.916-1.612 48.83-1.736l48.83-.202v28.898h-50.314c-46.64 0-50.354.205-50.866 2.802-.303 1.541-2.123-6.564-4.043-18.01zm110.324 2.001l.502-5.203 32.42-.434 32.42-.433v11.273H179.302zm-110.64-21.613c.072-1.674.45-1.996.933-.8.576 1.427 5.758 2 18.07 2h17.263l-1.183-6.467c-.65-3.557-1.506-6.791-1.902-7.187-.396-.396-8.953-1.346-19.015-2.112-13.333-1.015 6.13-1.454 71.76-1.619l90.056-.225v19.212h-88.054c-82.843 0-88.047-.166-87.929-2.802zm-4.618-9.206c.032-2.641.392-3.528.797-1.97.407 1.557.38 3.718-.056 4.802-.438 1.084-.77-.19-.738-2.832zm-1.6-9.606c.031-2.641.39-3.528.796-1.97.407 1.557.38 3.718-.056 4.802-.438 1.084-.77-.19-.738-2.832zm2.886-3.602c-.001-.66 8.996-.98 19.995-.709l19.997.491-1.359-3.693c-1.493-4.057-9.022-5.625-28.512-5.937-9.048-.144-9.955.15-10.59 3.444-.594 3.089-.724 2.975-.91-.8l-.22-4.403h180.913v12.808h-89.656c-49.31 0-89.657-.54-89.658-1.2zm-10.443-24.815l-7.282-10.007 97.32-.415c53.524-.228 98.038-.141 98.919.195.899.343 1.36 4.561 1.052 9.621l-.548 9.011-71.496-.004-71.497-.004-4.803-7.149c-2.641-3.932-5.682-7.502-6.757-7.933-3.368-1.352-38.87-3.05-38.87-1.86 0 .622 2.57 4.51 5.714 8.64 4.452 5.85 7.016 7.724 11.607 8.482l5.893.974-5.986.227c-5.588.213-6.468-.436-13.266-9.779zm248.994 127.684c43.054-8.039 85.094-16.885 101.767-21.415 8.424-2.29 13.457-7.767 14.318-15.584.377-3.428.296-4.972-.18-3.431-.813 2.622-6.307 2.801-85.72 2.801-79.951 0-84.822.162-84.313 2.802.507 2.635 5.541 2.767 84.524 2.21 80.35-.566 83.883-.47 81.629 2.255-2.63 3.177-13.856 8.695-17.566 8.633-1.321-.024 1.14-1.422 5.47-3.113 9.779-3.819 12.706-6.388 7.258-6.37-12.12.04-32.348 3.538-37.273 6.444-3.846 2.269-22.666 6.334-62.916 13.591-31.586 5.695-57.992 10.358-58.68 10.363-.688.005-1.088 2.426-.89 5.38.265 3.927 1.032 5.222 2.853 4.812 1.37-.308 23.743-4.528 49.72-9.378zm-50.031 6.139c1.1-.444 2.902-.444 4.002 0 1.101.444.2.807-2 .807-2.202 0-3.103-.362-2.002-.807zm6.938-1.17c1.022-.965 33.582-7.398 36.512-7.214 1.418.09-5.346 1.857-15.032 3.928-17.278 3.694-22.81 4.54-21.48 3.286zm57.502-11.478c10.126-2.052 19.852-3.685 21.613-3.63 1.761.056-5.083 1.778-15.21 3.83-10.125 2.051-19.851 3.685-21.613 3.63-1.76-.056 5.084-1.779 15.21-3.83zm43.194-8.076c10.108-2.12 19.082-3.619 19.942-3.332 1.813.604-32.328 7.588-35.92 7.347-1.32-.088 5.87-1.895 15.978-4.015zm23.747-4.925c1.156-.463 2.537-.406 3.069.127.532.531-.414.91-2.101.84-1.865-.08-2.245-.456-.968-.967zm6.404-1.601c1.156-.463 2.537-.406 3.069.126.531.531-.414.91-2.101.84-1.865-.08-2.245-.455-.968-.967zm-20.112 12.841c-1.1-.444-2.902-.444-4.003 0-1.1.444-.2.808 2.002.808 2.201 0 3.102-.363 2-.808zm8.005-1.601c-1.1-.444-2.902-.444-4.003 0-1.1.444-.2.808 2.002.808 2.201 0 3.102-.363 2-.808zm18.704-2.92c16.371-3.443 33.685-11.598 33.718-15.88.006-.797-1.25-.34-2.791 1.014-5.45 4.79-16.707 9.407-32.075 13.153-17.304 4.217-16.494 5.425 1.148 1.713zm35.157-19.634c2.82-2.336 4.581-9.303 10.583-41.882 3.96-21.494 7.2-39.725 7.2-40.513 0-.788-3.42-1.213-7.6-.945l-7.602.488-1.971 8.005-1.972 8.005.914-7.927c.733-6.368 2.955-10.856 11.293-22.815l10.38-14.887H352.53c-101.515 0-102.583.04-102.583 3.202 0 3.098 1.068 3.202 32.82 3.202h32.821v27.151l-32.42.433-32.42.434V158.141l32.42.434 32.42.433v7.939h-65.64v12.298l34.82 1.051c19.153.58 58.51 1.054 87.461 1.056l52.639.004-1.103 8.313c-.606 4.572-1.45 8.875-1.874 9.561-.424.687-39.385.79-86.579.23-73.576-.875-85.7-.697-85.053 1.245.636 1.907 14.157 2.33 85.672 2.678l84.918.415 1.026 6.418c.564 3.53.577 8.206.032 10.392-.896 3.57-.509 3.975 3.802 3.975 2.64 0 6.322-1.261 8.183-2.802zm-10.769-14.01c-.064-1.76.845-7.884 2.02-13.607 1.175-5.724 2.188-8.966 2.252-7.205.064 1.761-.845 7.885-2.02 13.609-1.175 5.723-2.188 8.965-2.252 7.204zm4.85-28.817c.032-2.642.391-3.528.797-1.97.406 1.557.38 3.718-.056 4.802-.439 1.084-.771-.19-.738-2.832zm-4.212-2.87c.601-1.58 1.496-2.468 1.99-1.975.492.493 0 1.785-1.094 2.87-1.581 1.57-1.765 1.386-.896-.896zm-103.367-14.74v-15.21h110.056l1.087 8.192c.598 4.505.69 8.588.206 9.072s-.966-1.22-1.07-3.79l-.19-4.669-1.323 4.803c-.942 3.42-1.075 2.384-.46-3.602l.862-8.405h-5.172c-2.845 0-11.577.852-19.405 1.895-15.8 2.103-14.704.986-16.493 16.812l-.939 8.3 5.245.65c2.884.357-12.227.764-33.58.904l-38.824.257zm109.18 8.004c.032-2.642.391-3.528.797-1.97.406 1.557.38 3.718-.056 4.802-.439 1.084-.771-.19-.738-2.832zm-3.262-.8c0-2.202.363-3.102.808-2.002.444 1.101.444 2.902 0 4.003-.444 1.1-.808.2-.808-2.001zm-104.317-40.025v-4.803l50.03-.016c27.518-.016 52.914-.387 56.436-.839 4.684-.6 5.544-.424 3.202.659-1.761.813-10.258 2.158-18.881 2.989-8.624.83-16.512 2.343-17.531 3.361-1.402 1.402 3.256 1.852 19.165 1.852 20.798 0 21.052-.04 24.335-4.218 3.933-5 4.42-3.754.732 1.873l-2.585 3.946H321.993zm97.022 82.376c.563-2.242.556-4.543-.016-5.113-1.356-1.356-32.787 2.576-36.506 4.567-6.424 3.438-2.24 4.623 16.314 4.623h19.181zm2.257-13.934c.016-1.1.464-4.703 1.01-8.005l.992-6.003-7.013.032c-7.187.032-28.784 2.792-29.8 3.808-.31.311-.989 3.177-1.507 6.368l-.941 5.802h18.62c13.82 0 18.626-.516 18.64-2.001zm44.19-77.558c6.945-9.416 13.682-18.602 14.97-20.412 2.127-2.99-1.783.666-28.358 26.515-4.623 4.497-8.406 8.815-8.406 9.597 0 .78 2.063 1.42 4.584 1.42 3.97 0 6.27-2.287 17.21-17.12zm-217.427-19.302l-.488-7.605-10.806.049c-5.944.024-57.996.207-115.672.4-57.676.192-104.865.913-104.865 1.6 0 .689 5.223 3.888 11.607 7.11l11.607 5.858 104.553.095 104.552.095zm221.681 0l14.778-7.605-115.272-.413c-63.4-.228-116.172-.072-117.273.35-2.076.793-2.833 12.307-.933 14.206.586.587 46.71 1.068 102.495 1.068H454.94zm-14.134 120.526c-3.054-2.31-3.05-2.352.227-2.402 1.92-.032 3.335.968 3.335 2.35 0 2.918.223 2.915-3.563.049z" fill="#ffff"/></svg>
