<?xml version="1.0" encoding="UTF-8" standalone="no"?>
<svg
   xmlns:dc="http://purl.org/dc/elements/1.1/"
   xmlns:cc="http://creativecommons.org/ns#"
   xmlns:rdf="http://www.w3.org/1999/02/22-rdf-syntax-ns#"
   xmlns:svg="http://www.w3.org/2000/svg"
   xmlns="http://www.w3.org/2000/svg"
   xmlns:sodipodi="http://sodipodi.sourceforge.net/DTD/sodipodi-0.dtd"
   xmlns:inkscape="http://www.inkscape.org/namespaces/inkscape"
   height="512"
   viewBox="0 0 60 52"
   width="512"
   version="1.1"
   id="svg10"
   sodipodi:docname="DELUXE.svg"
   inkscape:version="0.92.5 (2060ec1f9f, 2020-04-08)">
  <metadata
     id="metadata16">
    <rdf:RDF>
      <cc:Work
         rdf:about="">
        <dc:format>image/svg+xml</dc:format>
        <dc:type
           rdf:resource="http://purl.org/dc/dcmitype/StillImage" />
      </cc:Work>
    </rdf:RDF>
  </metadata>
  <defs
     id="defs14" />
  <sodipodi:namedview
     pagecolor="#ffffff"
     bordercolor="#666666"
     borderopacity="1"
     objecttolerance="10"
     gridtolerance="10"
     guidetolerance="10"
     inkscape:pageopacity="0"
     inkscape:pageshadow="2"
     inkscape:window-width="1294"
     inkscape:window-height="704"
     id="namedview12"
     showgrid="false"
     inkscape:zoom="0.4609375"
     inkscape:cx="260.33898"
     inkscape:cy="245.15254"
     inkscape:window-x="72"
     inkscape:window-y="27"
     inkscape:window-maximized="1"
     inkscape:current-layer="svg10" />
  <g
     id="021---Car"
     transform="matrix(0.81356244,0,0,0.81356244,5.5932203,4.8473765)"
     style="fill:#ffffff">
    <path
       id="Shape"
       d="M 40,38 H 20 c -1.10457,0 -2,0.895431 -2,2 v 2 c 0,1.104569 0.89543,2 2,2 h 20 c 1.104569,0 2,-0.895431 2,-2 v -2 c 0,-1.104569 -0.895431,-2 -2,-2 z m -20,4 v -2 h 20 v 2 z"
       inkscape:connector-curvature="0"
       style="fill:#ffffff" />
    <path
       id="path3"
       d="m 14,9 c 0.45,0 0.2,0.1 4.6,-3.2 0.285812,-0.2143594 0.435555,-0.5649147 0.39282,-0.9196153 -0.04273,-0.3547005 -0.271453,-0.6596588 -0.6,-0.8 C 18.064273,3.9400436 17.685812,3.9856406 17.4,4.2 l -4,3 C 13.055656,7.4582582 12.915203,7.9078856 13.051317,8.3162278 13.187431,8.7245699 13.56957,9 14,9 Z"
       inkscape:connector-curvature="0"
       style="fill:#ffffff" />
    <path
       id="path5"
       d="m 16.2,11.6 c 0.331371,0.441828 0.958172,0.531371 1.4,0.2 l 8,-6 c 0.285812,-0.2143594 0.435555,-0.5649147 0.39282,-0.9196153 -0.04273,-0.3547005 -0.271453,-0.6596588 -0.6,-0.8 C 25.064273,3.9400435 24.685812,3.9856406 24.4,4.2 l -8,6 c -0.212173,0.15913 -0.352442,0.396028 -0.38995,0.658579 C 15.972543,11.12113 16.04087,11.387827 16.2,11.6 Z"
       inkscape:connector-curvature="0"
       style="fill:#ffffff" />
    <path
       id="path7"
       d="M 56,9 H 51.55 L 50.27,4.91 C 49.356183,1.988974 46.65063,3.1089e-4 43.59,0 H 16.41 C 13.34937,3.1089e-4 10.643816,1.988974 9.73,4.91 L 8.45,9 H 4 C 1.790861,9 0,10.790861 0,13 v 1 c 0.00703268,1.717598 1.1098237,3.238966 2.74,3.78 C 1.6266764,18.902489 1.0013734,20.419029 1,22 V 34.28 C -1.2,35.56 0.44,40 4,40 4,49.71 3.93,49.28 4.18,50 H 2 c -0.5522848,0 -1,0.447715 -1,1 0,0.552285 0.4477152,1 1,1 h 14 c 0.552285,0 1,-0.447715 1,-1 0,-0.552285 -0.447715,-1 -1,-1 h -2.18 c 0.198118,-0.677815 0.259308,-1.388292 0.18,-2.09 0.330584,0.0552 0.664873,0.08528 1,0.09 32.55,0 30.23,0 31,-0.09 -0.07194,0.701787 -0.01088,1.410848 0.18,2.09 H 44 c -0.552285,0 -1,0.447715 -1,1 0,0.552285 0.447715,1 1,1 h 14 c 0.552285,0 1,-0.447715 1,-1 0,-0.552285 -0.447715,-1 -1,-1 H 55.82 C 56.08,49.26 56,49.67 56,40 c 3.54,0 5.22,-4.43 3,-5.72 V 22 C 58.998627,20.419029 58.373324,18.902489 57.26,17.78 58.890176,17.238966 59.992967,15.717598 60,14 V 13 C 60,10.790861 58.209139,9 56,9 Z M 11.64,5.51 C 12.291551,3.4229253 14.223588,2.0012373 16.41,2 h 27.18 c 2.186412,0.00124 4.118449,1.4229253 4.77,3.51 L 51.64,16 H 41.5 C 40.193675,14.516051 38.306943,13.673043 36.33,13.69 34.05981,13.749887 31.950356,12.52292 30.88,10.52 30.705435,10.196577 30.367526,9.9949737 30,9.9949737 c -0.367526,0 -0.705435,0.2016033 -0.88,0.5250263 -1.070356,2.00292 -3.17981,3.229887 -5.45,3.17 -1.976943,-0.01696 -3.863675,0.826051 -5.17,2.31 H 8.36 Z M 3,31 h 10 c 1.10457,0 2,-0.895431 2,-2 v -6 c 0,-1.10457 -0.89543,-2 -2,-2 H 3.14 C 3.5947821,19.238597 5.180843,18.005907 7,18 H 17.33 C 16.85,19.36 17,18.87 17,34 H 3 Z m 0,-8 h 10 v 6 H 3 Z M 41,19.93 V 34 H 39 V 19 c 0,-0.552285 -0.447715,-1 -1,-1 -0.552285,0 -1,0.447715 -1,1 V 34 H 35 V 19 c 0,-0.552285 -0.447715,-1 -1,-1 -0.552285,0 -1,0.447715 -1,1 V 34 H 31 V 19 c 0,-0.552285 -0.447715,-1 -1,-1 -0.552285,0 -1,0.447715 -1,1 V 34 H 27 V 19 c 0,-0.552285 -0.447715,-1 -1,-1 -0.552285,0 -1,0.447715 -1,1 V 34 H 23 V 19 c 0,-0.552285 -0.447715,-1 -1,-1 -0.552285,0 -1,0.447715 -1,1 V 34 H 19 V 19.93 c 0.124025,-2.457932 2.211548,-4.353242 4.67,-4.24 2.434985,0.02689 4.75535,-1.032488 6.33,-2.89 1.572914,1.859804 3.894421,2.919702 6.33,2.89 2.458452,-0.113242 4.545975,1.782068 4.67,4.24 z M 57,29 H 47 V 23 H 57 Z M 47,21 c -1.104569,0 -2,0.89543 -2,2 v 6 c 0,1.104569 0.895431,2 2,2 h 10 v 3 H 43 C 43,18.34 43.11,19.27 42.67,18 H 53 c 1.819157,0.0059 3.405218,1.238597 3.86,3 z M 2,14 V 13 C 2,11.895431 2.8954305,11 4,11 H 7.83 L 6.26,16 H 4 C 2.8954305,16 2,15.10457 2,14 Z m 10,35 c 0,0.552285 -0.447715,1 -1,1 H 7 C 6.4477152,50 6,49.552285 6,49 v -9 h 1 c 1.1045695,0 2,0.895431 2,2 0.0022,2.141395 1.145496,4.119303 3,5.19 z m 42,0 c 0,0.552285 -0.447715,1 -1,1 h -4 c -0.552285,0 -1,-0.447715 -1,-1 v -1.81 c 1.854504,-1.070697 2.997804,-3.048605 3,-5.19 0,-1.104569 0.895431,-2 2,-2 h 1 z m 2,-11 h -3 c -2.209139,0 -4,1.790861 -4,4 0,2.209139 -1.790861,4 -4,4 H 15 C 12.790861,46 11,44.209139 11,42 11,39.790861 9.209139,38 7,38 H 4 C 2.8954305,38 2,37.104569 2,36 h 56 c 0,1.104569 -0.895431,2 -2,2 z m 2,-24 c 0,1.10457 -0.895431,2 -2,2 H 53.74 L 52.17,11 H 56 c 1.104569,0 2,0.895431 2,2 z"
       inkscape:connector-curvature="0"
       style="fill:#ffffff" />
  </g>
</svg>
