<svg xmlns="http://www.w3.org/2000/svg" width="2500" height="2500" viewBox="0 0 498.503 498.503"><path d="M143.99 484.77c-12.67-1.503-21.159-5.517-25.397-12.009-1.187-1.819-1.796-3.24-2.574-6.008-.408-1.455-.477-2.31-.472-5.898.008-4.819.316-6.398 1.9-9.67 3.129-6.464 10.24-11.036 20.46-13.156 10.943-2.27 26.719-2.145 37.049.292 8.572 2.023 14.637 5.666 17.996 10.812 2.131 3.265 3.215 7.2 3.215 11.67 0 6.21-1.784 10.872-5.671 14.825-4.953 5.035-12.352 7.913-23.594 9.177-3.804.428-19.21.405-22.913-.035zm19.623-10.397c4.968-.913 8.45-2.452 11.06-4.89 2.624-2.45 3.802-5.125 3.797-8.62-.007-4.56-2.4-8.253-7.03-10.854-1.686-.947-5.516-2.187-8.28-2.682-2.86-.511-11.283-.58-14.066-.115-7.826 1.307-12.814 4.222-14.948 8.733-.771 1.63-1.034 2.87-1.04 4.919-.02 6.206 4.327 10.818 12.131 12.868 1.575.414 2.844.64 5.899 1.054 1.735.235 10.533-.057 12.477-.414zM22.392 470.17v-14.533h17.009l.06 9.244.059 9.245 13.158.07c17.398.09 20.046-.163 24.556-2.351 3.73-1.81 6.036-4.767 6.627-8.495 1.08-6.812-2.223-12.175-8.856-14.385-3.771-1.257-3.996-1.266-29.303-1.267h-23.31v-10.456l26.145.08c28.128.087 27.449.06 33.149 1.302 10.96 2.389 17.303 7.757 19.469 16.478.718 2.891.72 8.609 0 11.494-2.207 8.885-8.779 14.38-19.967 16.698-5.908 1.224-5.758 1.218-33.22 1.317l-25.579.092zm188.521-.014v-14.52h17.241v18.603h13.46c8.115 0 14.442-.099 15.937-.249 5.376-.54 9.13-1.99 11.688-4.513 2.351-2.32 3.384-4.943 3.377-8.577-.012-6.596-3.877-10.827-11.566-12.662-1.561-.372-3.694-.416-25.862-.53l-24.161-.125-.061-5.17-.061-5.172 26.15.081c23.27.072 26.437.124 28.759.47 5.165.771 9.317 1.973 12.794 3.705 2.823 1.407 3.827 2.134 6.035 4.372 2.678 2.714 3.922 4.945 5.036 9.032.663 2.434.725 8.832.112 11.447-2.604 11.094-11.953 16.956-28.855 18.091-1.928.13-13.504.23-26.713.232l-23.31.003v-14.519zm123.526 14.367c-11.644-.718-19.624-3.46-24.615-8.455-4.04-4.044-5.843-9.268-5.605-16.234.209-6.106 1.737-10.047 5.356-13.808 4.135-4.297 10.109-6.842 19.323-8.232 2.31-.348 5.403-.4 28.51-.472l25.92-.08v10.455H360.13c-25.14 0-25.259.006-29.1 1.251-4.548 1.476-7.633 4.444-8.82 8.487-.467 1.59-.475 5.16-.015 6.925 1.438 5.523 6.444 8.798 14.721 9.63 1.495.15 7.822.248 15.937.248h13.46v-8.167H341.131V455.636h42.196v29.038l-23.877-.041c-13.133-.022-24.388-.072-25.012-.11zm68.853-23.555v-23.707h72.368v10.209H421.667v8.167h51.044V466.072h-51.044v8.167h54.447v10.436h-72.822zm-160.958-59.46c-56.868-29.486-81.339-42.853-109.801-59.978-15.458-9.3-25.591-17.099-33.52-25.796-12.991-14.251-19.805-28.922-23.291-50.15-3.401-20.712-6.248-73.69-7.725-143.773-.4-19.02-.747-52.452-.618-59.665.138-7.73.503-11.059 1.738-15.848 3.662-14.202 13.588-22.871 29.894-26.11 5.782-1.148 18.218-2.236 40.214-3.52 55.634-3.248 110.423-4.087 162.887-2.497 37.943 1.15 81.76 3.657 93.466 5.346 17.6 2.54 28.417 10.463 32.992 24.163 1.48 4.433 2.264 9.382 2.53 15.971.353 8.753-.577 66.157-1.613 99.479-.444 14.303-1.219 34.475-1.58 41.175-.068 1.248-.277 5.28-.465 8.96-.881 17.268-2.378 37.846-3.407 46.848-2.797 24.458-8.572 39.943-20.433 54.786-2.909 3.64-10.2 11.021-14.091 14.267-6.486 5.408-13.542 10.304-23.369 16.216-24.236 14.582-50.189 28.928-88.191 48.75-8.536 4.452-28.726 14.915-28.771 14.91-.022-.002-3.103-1.593-6.846-3.534zm9.248-15.32c6.094-3.055 38.446-20.037 50.416-26.463 27.033-14.514 53.578-29.79 65.336-37.598 22.53-14.963 33.952-30.58 38.79-53.037 1.45-6.728 2.434-14.267 3.4-26.022 3.084-37.574 5.115-93.158 5.799-158.765.252-24.145.167-28.054-.702-32.32-2.21-10.846-8.883-15.689-23.807-17.277-6.64-.707-21.367-1.775-35.957-2.608-53.61-3.06-107.012-3.826-158.463-2.273-41.865 1.265-85.622 3.934-94.737 5.779-11.21 2.27-16.39 7.382-18.16 17.922-.388 2.306-.417 3.983-.384 22.119.132 71.265 3.759 158.522 7.7 185.232 4.28 29 16.54 46.57 44.754 64.141 20.521 12.78 50.407 29.424 89.639 49.923l16.107 8.416c4.18 2.184 7.678 3.976 7.774 3.983.096.007 1.219-.512 2.495-1.152zm-9.392-67.578c-5.277-.603-8.62-2.54-10.477-6.073-1.11-2.112-1.387-3.253-4.005-16.497-1.258-6.363-2.426-11.881-2.596-12.262-.17-.381-3.25-5.74-6.845-11.91-6.452-11.076-7.996-14.04-8.919-17.128-.259-.867-2.467-10.05-4.907-20.406-2.44-10.356-4.533-19.19-4.65-19.632-.212-.802-.217-.805-8.386-4.405-4.496-1.982-8.946-4.097-9.89-4.702-6.26-4.01-9.168-10.12-9.168-19.26 0-4.076.43-7.567 1.507-12.233 1.185-5.135 1.189-4.645-.052-7.047-4.327-8.378-10.29-11.473-16.353-8.491-4.817 2.368-6.917 8.417-6.578 18.941.301 9.376 1.364 15.523 4.922 28.471 2.499 9.093 2.95 11.323 3.103 15.344.114 3.004.078 3.48-.38 4.99-1.385 4.555-5.638 5.585-11.071 2.68-2.133-1.14-3.363-2.082-5.699-4.365-4.77-4.666-9.237-11.336-13.515-20.184-4.924-10.186-9.04-22.592-11.235-33.855-.267-1.373-.537-2.674-.6-2.892-.103-.358-.486-.397-3.842-.397h-3.728v-4.027c0-21.898 10.549-40.196 26.886-46.644 7.777-3.07 17.7-3.588 26.459-1.382 20.736 5.22 37.95 24.336 49.532 55.002 2.052 5.433 3.383 9.558 3.137 9.724-3.593 2.44-8.997 6.326-9.074 6.526-.117.305 4.228 22.339 4.457 22.601.082.095 4.074 1.8 8.87 3.788l8.722 3.616.405 2.678c1.084 7.157 2.803 19.125 2.748 19.125-.034 0-1.912-2.271-4.174-5.048l-4.113-5.047-4.687-1.972c-2.578-1.084-4.714-1.945-4.747-1.912-.146.145 2.748 14.12 2.973 14.36.138.146 3.715 1.703 7.947 3.46 4.233 1.757 7.736 3.234 7.785 3.284.05.049 1.348 8.72 2.885 19.268l2.796 19.18-1.902 5.968c-1.046 3.282-1.902 6.07-1.902 6.195 0 .194 13.774 5.803 15.094 6.147.286.074 3.374-1.028 8.053-2.875 4.175-1.647 7.63-3.028 7.677-3.069.048-.04-.79-2.86-1.863-6.264l-1.95-6.19 2.789-19.112c1.534-10.511 2.849-19.172 2.922-19.246.074-.074 3.588-1.565 7.809-3.313 4.22-1.749 7.764-3.264 7.874-3.368.177-.166 3.119-14.325 3.002-14.446-.026-.027-2.141.82-4.7 1.883l-4.655 1.932-4.15 5.107c-2.282 2.808-4.176 5.074-4.208 5.035-.119-.142 3.07-21.614 3.23-21.754.09-.08 4.072-1.757 8.847-3.727 7.052-2.91 8.703-3.671 8.795-4.058.202-.847 4.415-22.01 4.415-22.178 0-.089-2.093-1.617-4.65-3.395-2.558-1.778-4.651-3.354-4.651-3.503 0-.77 3.505-10.342 5.602-15.299 11.465-27.092 27.766-44.135 46.89-49.025 9.508-2.43 19.876-1.756 28.008 1.822 12.44 5.475 21.341 17.84 24.508 34.045.8 4.094.953 5.633 1.092 10.94l.135 5.156-3.801.063-3.802.062-.762 3.709c-6.07 29.54-21.036 55.971-33.5 59.164-1.65.423-4.026.327-5.052-.204-2.616-1.353-3.664-4.54-3.247-9.882.251-3.223.961-6.472 3.207-14.674 3.223-11.77 4.177-16.942 4.717-25.575.881-14.091-2.309-21.454-9.698-22.382-3.217-.404-5.76.513-8.443 3.043-1.848 1.743-3.465 4.01-4.857 6.81l-1.01 2.033.76 3.062c1.445 5.81 1.764 8.231 1.777 13.499.014 5.276-.256 7.16-1.476 10.318-1.037 2.686-2.216 4.488-4.3 6.576-2.541 2.544-4.003 3.359-13.605 7.583l-7.824 3.442-4.02 17.007c-5.866 24.823-5.737 24.32-6.959 27.164-.652 1.517-3.845 7.27-7.897 14.23l-6.802 11.683-2.429 12.25c-1.335 6.739-2.686 13.037-3.001 13.997-1.093 3.324-2.975 5.542-5.847 6.887-2.74 1.284-4.242 1.49-11.486 1.578-3.556.044-7.245-.01-8.197-.118zm-46.92-123.228c-1.01-4.405-1.93-8.291-2.047-8.637-.227-.675-10.679-17.244-10.8-17.122-.041.04-.325 1.447-.633 3.127-2.477 13.523-.575 22.51 5.636 26.633 1.421.943 9.5 4.469 9.607 4.193.04-.103-.754-3.79-1.763-8.194zm114.441 4.78c5.688-2.93 8.396-9.276 7.975-18.687-.137-3.08-.428-5.438-1.21-9.821-.294-1.649-.435-2.045-.644-1.815-.147.161-2.587 3.94-5.422 8.396l-5.155 8.103-1.912 8.344c-1.051 4.59-1.912 8.513-1.912 8.719 0 .298.748.055 3.686-1.198 2.028-.865 4.095-1.783 4.594-2.04zm-160.433 71.482c-21.7-1.782-36.72-22.24-42.817-58.319-1.646-9.74-2.685-20.58-2.962-30.9-.068-2.518-.176-5.932-.24-7.585l-.116-3.006h7.924l.14 1.077c.433 3.327 2.045 12.429 2.842 16.047 3.096 14.058 7.948 27.981 13.37 38.367 10.846 20.771 23.841 29.688 35.146 24.115 3.416-1.684 5.75-4.654 6.88-8.757.416-1.515.485-2.358.477-5.854-.01-3.826-.156-5.323-1.082-11.002-.189-1.154 2.809 4.915 3.837 7.769 2.11 5.858 2.947 10.824 2.784 16.505-.124 4.31-.564 6.405-1.998 9.492-1.508 3.246-4.023 6.245-6.862 8.182-1.743 1.19-4.755 2.502-7.12 3.102-1.924.488-6.398 1.053-7.665.968-.25-.017-1.391-.107-2.538-.201zm194.236.014c-6.35-.594-11.116-2.776-15.006-6.87-3.842-4.046-5.526-8.8-5.536-15.63-.01-6.674 1.414-12.798 4.633-19.928 1.221-2.707 2.369-4.755 2.096-3.744-.345 1.278-1.053 7.179-1.185 9.869-.18 3.7.133 6.383 1.033 8.85 1.252 3.43 3.265 5.694 6.466 7.272 8.494 4.187 18.461-.12 27.34-11.812 10.707-14.099 19.534-37.816 23.262-62.5.32-2.121.634-4.188.698-4.594l.117-.737h7.764l-.146 7.203c-.777 38.293-8.673 66.542-22.702 81.217-6.921 7.24-15.07 11.015-24.75 11.468-1.249.059-3.086.03-4.084-.064zm-103.562-125.86c-7.045-13.648-13.433-23.606-20.841-32.486-2.637-3.161-8.456-9.045-11.26-11.387-14.462-12.074-29.767-16.814-47.074-14.577-15.97 2.064-30.225 10.552-40.256 23.97-.723.968-1.35 1.759-1.393 1.759-.209 0 2.051-4.49 3.406-6.768 2.456-4.126 5.327-7.756 9.192-11.62 9.4-9.4 20.602-15.092 33.938-17.246 4.181-.675 12.62-.847 17.089-.348 15.566 1.738 28.818 8.221 40.832 19.977 8.21 8.033 14.757 17.157 21.418 29.843l1.726 3.29-2.622 8.847c-1.442 4.867-2.686 8.919-2.765 9.005-.078.087-.704-.93-1.39-2.26zm17.18 2.294c-.065-.106-1.3-4.167-2.748-9.024l-2.63-8.832 1.774-3.421c6.459-12.455 13.125-21.69 21.624-29.959 4.102-3.99 7.11-6.437 11.48-9.336 3.189-2.117 9.847-5.508 13.287-6.769 5.133-1.881 11.185-3.237 16.786-3.76 3.7-.347 12.342-.152 15.466.348 13.768 2.202 25.11 7.868 34.5 17.237 3.389 3.38 5.69 6.184 8.021 9.767 1.558 2.395 4.681 8.227 4.502 8.406-.047.047-.618-.625-1.27-1.495-9.534-12.74-23.014-21.094-38.04-23.572-12.746-2.101-24.6-.385-35.648 5.162-16.745 8.408-31.247 25.085-45.183 51.959-.993 1.915-1.858 3.395-1.922 3.29z" fill="#ffff"/></svg>
