<?xml version="1.0" encoding="UTF-8" standalone="no"?>
<svg
   xmlns:dc="http://purl.org/dc/elements/1.1/"
   xmlns:cc="http://creativecommons.org/ns#"
   xmlns:rdf="http://www.w3.org/1999/02/22-rdf-syntax-ns#"
   xmlns:svg="http://www.w3.org/2000/svg"
   xmlns="http://www.w3.org/2000/svg"
   xmlns:sodipodi="http://sodipodi.sourceforge.net/DTD/sodipodi-0.dtd"
   xmlns:inkscape="http://www.inkscape.org/namespaces/inkscape"
   height="456pt"
   viewBox="0 -112 456 456"
   width="456pt"
   version="1.1"
   id="svg14"
   sodipodi:docname="FAMILY.svg"
   inkscape:version="0.92.5 (2060ec1f9f, 2020-04-08)">
  <metadata
     id="metadata20">
    <rdf:RDF>
      <cc:Work
         rdf:about="">
        <dc:format>image/svg+xml</dc:format>
        <dc:type
           rdf:resource="http://purl.org/dc/dcmitype/StillImage" />
      </cc:Work>
    </rdf:RDF>
  </metadata>
  <defs
     id="defs18" />
  <sodipodi:namedview
     pagecolor="#ffffff"
     bordercolor="#666666"
     borderopacity="1"
     objecttolerance="10"
     gridtolerance="10"
     guidetolerance="10"
     inkscape:pageopacity="0"
     inkscape:pageshadow="2"
     inkscape:window-width="892"
     inkscape:window-height="480"
     id="namedview16"
     showgrid="false"
     inkscape:zoom="0.38815789"
     inkscape:cx="304"
     inkscape:cy="304"
     inkscape:window-x="72"
     inkscape:window-y="27"
     inkscape:window-maximized="0"
     inkscape:current-layer="svg14" />
  <g
     id="g833"
     style="fill:#ffffff">
    <path
       id="path2"
       d="m317.351562 2.054688c-1.46875-1.320313-3.375-2.054688-5.351562-2.054688h-288c-13.253906 0-24 10.746094-24 24v168c0 4.417969 3.582031 8 8 8h32.800781c3.785157 18.644531 20.175781 32.039062 39.199219 32.039062s35.414062-13.394531 39.199219-32.039062h217.601562c3.785157 18.644531 20.175781 32.039062 39.199219 32.039062s35.414062-13.394531 39.199219-32.039062h32.800781c4.417969 0 8-3.582031 8-8v-88c0-3.199219-1.90625-6.089844-4.847656-7.351562l-54.785156-23.480469zm27.046876 45.867187 35.640624 32.078125h-76.039062v-32h40c.144531 0 .257812-.070312.398438-.078125zm-303.597657 136.078125h-24.800781v-16h32.207031c-3.636719 4.710938-6.171875 10.179688-7.40625 16zm39.199219 32c-13.253906 0-24-10.746094-24-24s10.746094-24 24-24 24 10.746094 24 24-10.746094 24-24 24zm64-32h-24.800781c-1.234375-5.820312-3.761719-11.289062-7.398438-16h32.199219zm0-32h-128v-128c0-4.417969 3.582031-8 8-8h120zm112 32h-96v-16h96zm0-32h-96v-136h96zm80.800781 32h-64.800781v-16h72.207031c-3.636719 4.710938-6.171875 10.179688-7.40625 16zm39.199219 32c-13.253906 0-24-10.746094-24-24s10.746094-24 24-24 24 10.746094 24 24-10.746094 24-24 24zm64-32h-24.800781c-1.234375-5.820312-3.761719-11.289062-7.398438-16h32.199219zm-31.296875-88.144531 31.296875 13.417969v10.726562h-24v16h24v16h-168v-136h36.929688l17.78125 16h-30.710938c-4.417969 0-8 3.582031-8 8v48c0 4.417969 3.582031 8 8 8h112c.246094 0 .457031-.121094.703125-.144531zm0 0"
       style="fill:#ffffff" />
    <path
       id="path4"
       d="m40 96h80c4.417969 0 8-3.582031 8-8v-48c0-4.417969-3.582031-8-8-8h-80c-4.417969 0-8 3.582031-8 8v48c0 4.417969 3.582031 8 8 8zm8-48h64v32h-64zm0 0"
       style="fill:#ffffff" />
    <path
       id="path6"
       d="m184 96h48c4.417969 0 8-3.582031 8-8v-48c0-4.417969-3.582031-8-8-8h-48c-4.417969 0-8 3.582031-8 8v48c0 4.417969 3.582031 8 8 8zm8-48h32v32h-32zm0 0"
       style="fill:#ffffff" />
    <path
       id="path8"
       d="m80 180c-6.628906 0-12 5.371094-12 12s5.371094 12 12 12 12-5.371094 12-12-5.371094-12-12-12zm0 16c-2.210938 0-4-1.789062-4-4s1.789062-4 4-4 4 1.789062 4 4-1.789062 4-4 4zm0 0"
       style="fill:#ffffff" />
    <path
       id="path10"
       d="m376 180c-6.628906 0-12 5.371094-12 12s5.371094 12 12 12 12-5.371094 12-12-5.371094-12-12-12zm0 16c-2.210938 0-4-1.789062-4-4s1.789062-4 4-4 4 1.789062 4 4-1.789062 4-4 4zm0 0"
       style="fill:#ffffff" />
    <path
       id="path12"
       d="m296 120h24v16h-24zm0 0"
       style="fill:#ffffff" />
  </g>
</svg>
