<svg xmlns="http://www.w3.org/2000/svg" width="2500" height="2500" viewBox="0 0 498.503 498.503"><path d="M229.717 376.682c-95.463-4.221-176.89-37.089-208.997-84.362-3.806-5.604-8.399-14.897-10.229-20.696-4.455-14.12-4.578-29.525-.348-43.63 6.017-20.063 23.775-41.172 48.65-57.83 41.345-27.686 102.645-45.12 168.858-48.022 83.793-3.672 162.205 14.297 213.463 48.92 27.801 18.778 44.68 41.155 49.366 65.45 1.303 6.756 1.284 18.784-.041 25.662-4.307 22.353-18.68 42.673-43.148 61.004-8.735 6.544-16.702 11.387-29.534 17.953-36.304 18.577-80.82 30.184-132.246 34.484-10.218.854-45.395 1.527-55.794 1.067zm58.156-14.04c48.11-4.375 89.628-15.299 123.692-32.545 50.82-25.73 74.301-60.072 65.293-95.494-11.908-46.823-84.03-86.725-175.7-97.206-19.919-2.278-27.72-2.679-51.957-2.672-24.253.006-32.436.43-51.957 2.683-87.66 10.119-157.792 47.011-173.855 91.455-3.59 9.936-4.632 20.251-2.988 29.59 2.72 15.45 9.797 27.857 23.874 41.858 12.465 12.396 24.923 20.957 44.628 30.665 6.495 3.2 14.983 7.065 18.863 8.59 31.441 12.357 70.766 20.906 107.19 23.303 5.359.352 10.805.738 12.104.857 6.222.569 51.515-.238 60.813-1.084zm-51.366-6.91c-39.91-.952-76.156-6.95-110.112-18.22-52.898-17.559-88.739-45.442-96.943-75.419-1.863-6.805-1.862-18.679.002-25.515 11.28-41.371 74.572-77.522 156.572-89.43 38.788-5.633 80.73-5.957 119.978-.927 53.524 6.86 102.318 24.802 132.424 48.696 5.85 4.642 15.745 14.577 19.6 19.68 12.667 16.759 15.927 36.274 8.948 53.558-7.14 17.684-21.917 32.854-46.556 47.794-24.035 14.575-59.355 27.04-94.466 33.34-29.864 5.359-55.98 7.24-89.447 6.442zm41.92-5.81c65.487-4.44 122.088-22.757 157.534-50.982 26.2-20.862 35.184-44.398 25.831-67.67-7.156-17.81-28.286-36.873-56.568-51.034-33.636-16.843-72.405-26.823-121.189-31.197-11.573-1.038-57.469-1.034-69.373.006-36.2 3.161-66.375 9.416-94.171 19.521-41.776 15.186-71.445 36.87-82.652 60.406-3.145 6.604-4.2 10.816-4.564 18.21-.763 15.489 5.168 28.353 19.888 43.136 6.433 6.46 9.35 8.905 18.618 15.605 7.138 5.159 24.824 14.503 37.196 19.653 35.258 14.673 78.05 23.27 124.873 25.085 8.668.336 35.206-.104 44.576-.74zm-76.985-40.249c-7.041-1.169-12.304-5.809-13.709-12.086-2.118-9.465 4.576-30.603 12.234-38.632 3.914-4.103 8.14-6.3 14.188-7.379 5.703-1.016 9.285-1.067 14.333-.202 13.087 2.24 17.22 11.414 12.73 28.262-1.85 6.945-4.116 12.768-6.784 17.431-2.508 4.383-8.038 9.342-12.123 10.87-5.906 2.21-13.974 2.881-20.87 1.736zm14.844-14.777c1.218-.612 2.9-2.198 3.737-3.525 1.977-3.131 5.329-11.838 6.497-16.876 1.75-7.548.096-9.883-6.912-9.753-7.135.133-9.876 2.612-13.74 12.43-3.848 9.778-4.68 15.945-2.405 17.833 2.316 1.922 8.888 1.866 12.823-.11zm-86.959 7.62a5700.57 5700.57 0 017.69-22.287c8.632-24.875 8.43-24.172 7.39-25.76-.49-.746-.89-1.633-.89-1.969 0-.406 5.248-.611 15.625-.611 12.765 0 16.134.173 18.406.944 3.812 1.294 5.907 2.973 7.3 5.85 2.943 6.08.098 18.691-5.654 25.058-2.124 2.351-6.426 4.754-8.512 4.754-.653 0-1.187.188-1.187.417 0 .43 3.929 11.226 5.947 16.34.626 1.586 1.138 3.114 1.138 3.395 0 .282-3.52.51-7.823.506l-7.823-.006-2.6-8.998c-1.43-4.948-2.834-9.462-3.12-10.03-.377-.748-1.236-1.034-3.108-1.034h-2.587l-3.345 10.037-3.346 10.037h-15.762l2.261-6.642zm37.774-26.578c1.844-.933 3.409-3.614 3.9-6.681.605-3.79-.383-4.379-7.356-4.379h-5.766l-1.874 5.461c-1.031 3.004-1.872 5.66-1.868 5.904.012.753 11.403.485 12.964-.305zm85.055 31.893c.006-1.844-1.694-38.333-2.134-45.876-.34-5.81-.46-6.263-2.046-7.746-.927-.866-1.518-1.742-1.313-1.947.205-.205 4.314-.373 9.13-.373 6.612 0 8.76.18 8.76.738.019 5.794.814 31.564 1.098 35.507l.377 5.25 9.28-18.239c5.104-10.03 9.906-19.396 10.671-20.812l1.39-2.574 7.91.095c4.349.053 7.943.148 7.987.213.044.064-5.05 9.416-11.322 20.782-6.27 11.365-13.339 24.182-15.707 28.483l-4.305 7.818-9.89.006c-9.864.006-9.889.001-9.886-1.324zm39.555 1.156c0-.104 1.695-5.089 3.766-11.078 11.676-33.763 13.946-40.54 13.946-41.635 0-.664-.369-1.712-.82-2.329-.45-.616-.714-1.398-.584-1.736.16-.415 6.96-.562 20.87-.453l20.634.163-2.264 6.332-2.264 6.332-11.066.295-11.067.295-1.036 2.657c-.57 1.462-1.224 3.52-1.453 4.576l-.416 1.919h19.998l-2.13 5.896-2.128 5.897-10.037.009-10.037.009-1.624 4.597c-.893 2.53-1.624 4.787-1.624 5.017 0 .231 5.038.42 11.196.42h11.195l-2.235 6.347-2.236 6.347-19.292.155c-10.61.086-19.292.072-19.292-.032zm47.823-.291c0-.274 1.707-5.396 3.793-11.383 10.259-29.442 13.92-40.282 13.92-41.22 0-.565-.39-1.542-.867-2.173-.477-.63-.875-1.345-.886-1.588-.012-.244 6.974-.443 15.52-.443 12.205 0 16.19.193 18.57.9 9.51 2.824 11.534 12.17 5.487 25.34-2.48 5.4-8.16 10.304-11.994 10.353-1.392.017-1.305 1.043.49 5.756.837 2.199 2.42 6.456 3.517 9.46l1.994 5.461H373.233l-.673-2.51c-.37-1.38-1.024-3.571-1.453-4.87-.429-1.3-1.485-4.7-2.347-7.558l-1.566-5.197-2.702.178-2.701.178-3.348 9.742-3.348 9.741-7.78.165c-4.28.09-7.78-.06-7.78-.333zm40.105-32.873c2.868-1.483 4.782-8.627 2.76-10.304-.535-.445-2.846-.626-6.588-.516l-5.764.17-1.43 4.133c-.785 2.273-1.654 4.863-1.93 5.756l-.502 1.624h5.893c4.014 0 6.424-.275 7.56-.863zm-297.075 4.812l2.625-7.284 21.236-6.95c11.68-3.822 21.365-6.82 21.523-6.661.158.158-.09 1.18-.55 2.27-.816 1.936-1.16 2.092-14.647 6.643-7.596 2.563-14.063 4.888-14.371 5.166-.314.282 4.964.506 11.955.506 6.885 0 12.512.199 12.506.442-.006.244-1.045 3.233-2.31 6.643l-2.3 6.199-19.146.155-19.147.156zm27.87-46.606c11.162-32.426 15.96-46.873 15.96-48.048 0-.779-.321-1.931-.715-2.561-.394-.63-.504-1.358-.246-1.616.525-.525 19.262-.66 19.264-.139 0 .303-8.572 25.5-12.926 37.993-1.009 2.894-1.834 5.351-1.834 5.462 0 .11 5.048.2 11.218.2s11.219.2 11.22.443c.001.244-.965 3.299-2.147 6.79l-2.15 6.347h-39.32zm43.025 2.952c7.745-12.576 29.748-50.064 30.02-51.15.198-.785.036-1.945-.359-2.577-.395-.632-.567-1.3-.382-1.485.185-.185 5.37-.358 11.523-.386l11.187-.049.324 3.543c.179 1.948.855 13.505 1.504 25.683.649 12.177 1.316 23.535 1.483 25.24l.304 3.1h-15.361V226.062l-8.68.072-8.678.071-2.157 3.543a284.199 284.199 0 00-3.745 6.347l-1.587 2.804h-16.578l1.182-1.919zm39.653-30.85c0-4.708-.2-8.56-.443-8.558-.429.002-8.547 13.996-9.333 16.086-.35.935.1 1.034 4.694 1.034h5.082zm26.662 11.957c3.911-11.447 7.882-23.054 8.823-25.794 1.928-5.614 2.125-7.814.8-8.914-1.895-1.573.223-1.979 10.19-1.954l9.877.024 1.269 6.436c.697 3.54 2.012 10.356 2.921 15.145.91 4.79 1.813 8.709 2.008 8.709.195 0 2.601-6.775 5.347-15.056 4.729-14.26 5.071-15.06 6.482-15.133.819-.043 4.226-.109 7.57-.147 5.153-.06 6.041.065 5.814.815-.147.487-3.37 9.92-7.16 20.96-10.818 31.5-12.115 35.305-12.115 35.52 0 .11-3.279.2-7.286.2h-7.285l-3.421-17.565c-1.881-9.66-3.613-17.928-3.848-18.373-.366-.693-5.587 13.984-11.262 31.658l-1.375 4.28h-14.46zm57.292 3.542a82718.24 82718.24 0 018.799-25.721c2.952-8.622 3.41-11.165 2.225-12.35-.368-.368-.535-1.02-.37-1.447.399-1.041 26.61-.967 30.56.086 8.628 2.302 13.144 9.093 12.088 18.179-1.953 16.796-9.7 31.832-18.377 35.67-5.574 2.466-8.616 2.81-25.094 2.832l-15.737.02zm25.567 3.124c4.656-1.062 8.464-7.525 11.668-19.803 2.063-7.907.687-9.792-7.45-10.204l-4.808-.243-5.019 14.658c-2.76 8.061-5.104 14.995-5.209 15.408-.23.906 7.103 1.03 10.818.183zm33.763 3.59l.9-2.29 12.78-4.293c7.029-2.362 13.444-4.642 14.256-5.067 1.26-.66-.31-.777-10.775-.797-8.45-.015-12.251-.224-12.251-.668 0-.355.996-3.407 2.214-6.783l2.214-6.138 19.04-.006c10.473-.006 19.03.193 19.016.436-.015.243-1.143 3.451-2.51 7.128l-2.483 6.685-21.255 7.037c-11.69 3.87-21.433 7.04-21.65 7.042-.218.002.009-1.025.504-2.285z" fill="#ffff"/></svg>
