<svg xmlns="http://www.w3.org/2000/svg" width="2500" height="2500" viewBox="0 0 498.503 498.503"><path d="M225.718 417.762c-44.733-4.04-78.08-12.813-111.908-29.442-24.644-12.114-42.673-25.136-60.737-43.867-37.55-38.938-50.066-87.342-34.566-133.672 21.876-65.386 96.43-115.456 189.145-127.028 17.712-2.21 50.948-3.895 62.227-3.154 14.533.955 27.418 2.445 40.146 4.645 14.208 2.455 15.325 2.789 14.707 4.398-1.114 2.903-89.984 127.589-103.25 144.86-15.878 20.674-19.402 35.35-11.103 46.244 3.238 4.252 12.71 8.737 21.36 10.117 6.996 1.115 195.281 1.543 198.13.45 1.589-.61 4.338-8.74 6.75-19.97 2.025-9.426 1.73-36.336-.51-46.63-9.806-45.05-40.522-82.754-86.44-106.104-6.071-3.088-11.226-5.777-11.454-5.976-.227-.199.832-2.057 2.355-4.13 1.523-2.072 3.968-5.714 5.433-8.094 3.164-5.142 3.59-5.131 17.595.448 58.708 23.387 101.18 63.097 116.508 108.931 10.87 32.504 7.832 66.555-8.868 99.403l-4.23 8.32H186.073l-9.033-2.82c-20.791-6.494-30.748-17.017-30.846-32.603-.02-3.8.505-9.353 1.174-12.34 4.446-19.838 46.67-85.623 95.914-149.432 17.595-22.798 16.898-21.784 16.203-23.595-1.235-3.217-32.868-1.458-55.848 3.105-73.537 14.602-128.961 63.659-142.184 125.85-2.51 11.806-2.51 36.37 0 48.176 11.577 54.451 54.44 98.333 116.09 118.85 71.928 23.939 152.84 9.939 207.447-35.893 5.073-4.259 11.848-10.86 15.054-14.671l5.83-6.928 23.336-.067c12.834-.035 23.335.31 23.335.771 0 1.646-23.742 23.94-32.117 30.158-34.64 25.719-80.325 43.152-130.476 49.79-11.996 1.588-53.952 2.829-64.234 1.9z" fill="#ffff"/></svg>
