<svg xmlns="http://www.w3.org/2000/svg" width="2500" height="2500" viewBox="0 0 498.503 498.503"><path d="M23.479 440.404v-39.162H72.02c48.032 0 48.573.01 51.414.874 8.64 2.632 15.336 9.49 17.602 18.026.57 2.148.714 4.698.738 13.036.026 9.636.204 11.615.859 9.553.828-2.61 6.284-8.012 10.05-9.95 5.592-2.88 4.96-2.804 24.567-2.962l17.855-.144.972-1.035c1.287-1.37 1.304-3.628.039-4.895l-.933-.933-24.701-.114-24.7-.115v-21.341h28.107c31.242 0 30.435-.063 36.395 2.845 4.135 2.018 8.573 6.372 10.602 10.402 2.993 5.942 2.946 5.568 3.2 25.665l.23 18.178 4.677-3.728c2.572-2.051 7.661-6.102 11.309-9.003 7.751-6.164 49.539-39.436 52.914-42.13l2.304-1.84 37.862.019c41.856.021 40.045-.087 45.907 2.744 10.263 4.957 14.3 12.622 15.375 29.2l.483 7.446 1.286-1.573c4.067-4.974 8.054-7.595 13.834-9.096 2.025-.525 5.297-.648 17.31-.648h14.813l1.224-1.224c1.498-1.498 1.566-2.94.214-4.512l-1.01-1.175-22.864-.115-22.864-.115v-20.954l29.424.121 29.424.12 2.805 1.125c7.253 2.909 12.456 8.131 15.061 15.118l.972 2.606.124 29.439.123 29.439-32.16-.124c-32.022-.122-32.17-.127-34.598-1.05-5.998-2.278-11.344-6.991-13.841-12.2-.778-1.623-1.539-3.384-1.692-3.913-.247-.858-.36-.75-1.041.976-2.797 7.1-8.186 12.394-15.409 15.138-2.429.923-2.56.927-35.003 1.05l-32.566.122V450.89c0-15.788-.142-28.706-.315-28.706-.174 0-1.446.914-2.828 2.03a2225.478 2225.478 0 01-11.097 8.825 64839.165 64839.165 0 00-53.347 42.277l-5.389 4.275-38.59-.117-38.59-.117-2.922-1.169c-1.606-.642-3.813-1.74-4.903-2.44-2.364-1.517-6.505-5.856-7.663-8.03-.456-.855-.927-1.555-1.048-1.555-.12 0-.218 2.968-.218 6.597v6.597l-13.508.11-13.508.11v-49.303l-.965-1.824c-.659-1.247-1.541-2.13-2.788-2.788-1.689-.893-2.331-.965-8.669-.965h-6.845v54.869H69.552v-54.884l-9.738.112-9.738.112-.108 27.33-.108 27.33H23.48zm174.24 12.984v-5.235h-12.956c-7.127 0-13.422.177-13.99.393-1.49.566-3.171 2.531-3.454 4.037-.341 1.82.757 4.18 2.417 5.192 1.314.801 2.086.846 14.685.847h13.299v-5.235zm251.31 0v-5.235h-13.132c-12.952 0-13.151.012-14.54.949-.81.546-1.67 1.634-2.022 2.561-.835 2.192-.015 4.647 2.007 6.005 1.406.945 1.576.956 14.555.956h13.131zm-87.045 2.02c4.398-2.019 6.01-6.73 5.682-16.593-.304-9.11-1.637-12.174-5.894-13.546-1.749-.564-4.494-.735-14.21-.887l-12.041-.188v32.411l12.25-.148c11.474-.14 12.377-.206 14.213-1.049zm-112.038 21.987a398.783 398.783 0 005-3.875c2.345-1.859 2.498-1.977 14.397-11.128l8.167-6.281h25.76v23.455h-56.176zm-20.928-53.372c-.167-.167-.304-5.36-.304-11.542v-11.24l28.168.015 28.167.015-1.047.86c-.576.473-2.743 2.247-4.816 3.943-2.074 1.695-7.81 6.39-12.75 10.434l-8.979 7.353-13.22.006c-7.27.004-13.6.108-14.067.234-.467.125-.985.091-1.152-.076zm-6.377-45.452c-21.224-1.179-43.414-4.166-60.663-8.167-59.044-13.694-99.067-43.176-119.398-87.95-11.607-25.56-16.69-53.574-16.044-88.408.243-13.085.79-20.24 2.37-31.024 4.288-29.258 14.861-55.424 30.477-75.421l2.723-3.488 6.34 6.234c7.852 7.718 14.031 12.766 22.452 18.342 14.485 9.59 25.781 14.997 58.186 27.845 24.135 9.57 36.938 15.808 49.263 23.999 15.692 10.43 29.358 24.176 40.054 40.291 3.55 5.35 7.934 12.718 9.407 15.81.41.864.854 1.57.984 1.57.13-.001.578-.832.995-1.847 1.374-3.34 7.834-14.59 11.807-20.56 12.999-19.534 29.094-34.14 51.1-46.372 5.762-3.203 17.426-8.723 27.062-12.807 5.388-2.283 15.073-6.38 21.524-9.105 29.58-12.495 47.425-23.533 64.098-39.65l5.065-4.896-.337 2.803c-.88 7.304-2.87 24.423-3.53 30.365l-.735 6.621-1.914 1.59c-10.764 8.937-27.006 17.382-50.802 26.412-15.522 5.89-16.322 6.196-22.945 8.756-36.067 13.944-57.389 27.596-75.95 48.627-9.13 10.344-18.76 24.72-24.21 36.138-.522 1.094-1.065 1.99-1.207 1.99-.142 0-.594-.708-1.005-1.572-.412-.864-1.883-3.55-3.27-5.968-14.845-25.881-35.163-44.678-64.958-60.094-10.942-5.662-21.818-10.357-42.384-18.297-22.816-8.809-29.36-11.552-39.79-16.68-14.113-6.937-28.14-16.268-30.1-20.022-1.993-3.815-3.537-10.429-5.572-23.876-1.318-8.706-.825-8.348-4.454-3.23-12.057 17.003-21.363 42.203-25.02 67.75-1.987 13.889-2.882 33.017-2.158 46.177l.415 7.539 1.886 4.607c9.119 22.27 17.158 34.658 27.595 42.522 3.23 2.435 3.494 2.756 4.745 5.787 10.03 24.305 28.29 45.83 50.947 60.052 26.383 16.562 59.1 26.221 101.087 29.842 24.067 2.076 41.853 1.792 66.388-1.062 77.309-8.992 127.811-40.57 149.326-93.371 5.366-13.17 8.882-27.967 10.748-45.236.814-7.532.688-30.123-.214-38.534-2.15-20.021-5.408-34.178-11.262-48.919l-2.544-6.405 1.525-10.767c1.613-11.389 2.541-19.47 2.999-26.116.258-3.74.369-4.126 1.495-5.205.669-.641 1.285-1.085 1.368-.987.084.099 1.387 1.81 2.895 3.802 15.747 20.797 25.605 45.176 30.04 74.283 1.734 11.387 2.18 17.385 2.403 32.38.278 18.615-.345 28.196-2.851 43.85-5.29 33.038-18.861 61.564-39.504 83.037-33.247 34.585-83.996 53.265-155.01 57.057-9.253.495-42.77.467-51.938-.042zm9.005-28.897c-19.957-.832-37.757-3.263-53.403-7.293-19.926-5.132-36.185-12.53-50.052-22.774-3.56-2.63-10.573-8.575-12.147-10.297-.576-.63-2.083-1.864-3.35-2.742-2.601-1.802-5.185-3.972-11.16-9.372-2.27-2.052-5.448-4.705-7.06-5.894-3.072-2.266-9.434-5.95-11.938-6.912-2.111-.812-2.474-1.201-5.968-6.405-11.452-17.056-17.78-35.397-20.919-60.617-.73-5.875-.74-31.221-.012-37.487 1.07-9.223 2.284-16.922 3.9-24.712 1.667-8.044 4.405-18.545 5.008-19.21.18-.2 4.461 7.905 9.513 18.01l9.185 18.372-.628 4.817c-.838 6.433-.943 35.05-.158 43.141 1.532 15.784 4.698 31.066 8.82 42.568 6.387 17.826 14.575 31.092 26.614 43.12 8.092 8.084 14.241 12.838 23.649 18.28 13.908 8.045 31.312 14.13 50.525 17.664 17.495 3.219 27.196 4.03 51.564 4.315 23.057.27 37.133-.385 51.263-2.382 36.73-5.193 63.601-16.602 83.33-35.38 19.977-19.014 31.647-43.513 36.42-76.457 1.72-11.872 1.926-15.366 1.926-32.67 0-16.547-.317-22.668-1.637-31.592l-.517-3.496 6.45-13.346c3.548-7.34 6.592-13.492 6.764-13.672.172-.179 1.187 2.272 2.255 5.445 5.07 15.066 7.596 29.988 8.107 47.865.983 34.484-7.637 65.274-23.748 84.817-3.92 4.754-9.765 10.129-14.123 12.983-1.052.689-2.575 2.355-3.7 4.045-13.903 20.915-35.566 36.782-62.993 46.14-26.321 8.98-61.376 12.814-101.78 11.128zm15.274-78.38c-4.016-8.607-11.37-21.392-16.204-28.172-11.307-15.859-23.326-27.06-38.86-36.216-7.88-4.644-17.458-9.229-23.246-11.128-3.22-1.056-65.918-22.194-76.65-25.84l-6.701-2.278-1.818-4.99c-1-2.743-2.543-6.967-3.43-9.386-3.8-10.364-6.27-17.317-6.27-17.652 0-.197 1.743.845 3.874 2.316 14.706 10.154 29.422 17.054 68.168 31.963 22.641 8.712 32.367 13.15 43.35 19.785 22.976 13.878 40.455 33.035 54.864 60.132a816.293 816.293 0 003.423 6.37l1.42 2.6 2.982-5.742c6.807-13.106 12.995-23.317 19.341-31.919 8.369-11.342 17.028-20.135 27.708-28.137 11.882-8.901 23.679-15.022 43.98-22.817 16.242-6.238 21.19-8.197 30.575-12.106 10.97-4.569 12.376-5.203 21.78-9.821 10.645-5.228 16.805-8.72 23.263-13.185 2.525-1.746 4.59-3.08 4.59-2.965 0 .235-6.077 16.627-6.764 18.246-.245.576-1.159 3.026-2.031 5.445-2.837 7.862-2.815 7.823-4.53 8.29-.85.23-10.025 3.465-20.391 7.188a37157.53 37157.53 0 01-21.571 7.742l-18.22 6.515-20.074 7.178c-5.044 1.802-14.922 6.45-20.135 9.473-23.522 13.644-41.602 34.476-56.875 65.53-1.892 3.846-3.551 7.003-3.688 7.015-.136.013-.973-1.533-1.86-3.434zM99.512 109.417c-1.397-.354-5.263-2.646-9.547-5.66-6.204-4.362-8.666-6.443-18.68-15.787-2.85-2.657-5.546-5.088-5.992-5.4-.447-.314-.756-.82-.685-1.126.187-.814 8.262-9.037 13.112-13.352 20.216-17.985 46.88-31.109 80-39.374 28.903-7.214 61.162-10.357 99.895-9.734 16.755.27 23.839.644 36.894 1.948 47.376 4.733 85.412 17.14 113.472 37.016 7.823 5.541 20.896 16.845 22.745 19.667.63.962.595 1.035-1.099 2.266-.963.7-4.2 3.131-7.195 5.402a15485.021 15485.021 0 00-25.937 19.71c-1.595 1.22-3.008 2.21-3.141 2.2-.133-.009-1.184-1.37-2.336-3.022-6.463-9.267-17.413-19.695-27.853-26.523-21.505-14.066-47.305-21.8-83.77-25.112-10.137-.921-37.019-1.274-49.424-.65-61.215 3.083-100.98 20.627-124.637 54.989-1.9 2.758-3.028 3.25-5.822 2.542zM88.4 89.13c7.725-7.182 19.508-16.214 28.5-21.845 29.731-18.62 61.994-28.11 105.113-30.92 10.494-.683 43.695-.687 54.66-.004 53.618 3.334 93.265 18.122 128.946 48.094 3.68 3.09 4.229 3.418 5.027 2.997.492-.26 3.723-2.257 7.178-4.437 3.456-2.18 6.749-4.256 7.318-4.613l1.034-.65-3.547-3.323c-11.645-10.905-23.01-18.778-37.699-26.113-28.981-14.475-63.738-22.598-108.467-25.349-10.567-.65-44.414-.651-54.66-.004-45.012 2.851-79.537 10.973-108.481 25.52-13.611 6.841-24.2 14.06-35.326 24.082-4.542 4.09-8.73 8.53-8.377 8.883.508.508 15.71 9.79 16.059 9.805.23.01 1.455-.945 2.722-2.124z" fill="#ffff"/></svg>
