<svg xmlns="http://www.w3.org/2000/svg" width="2500" height="2500" viewBox="0 0 498.503 498.503"><path d="M240.745 485.212c-30.512-1.21-59.6-7.888-86.93-19.959-5.837-2.578-15.964-7.689-21.37-10.785-35.754-20.48-65.123-49.32-86.25-84.694-6.712-11.238-13.346-25.015-17.933-37.24-8.395-22.378-12.964-43.859-14.739-69.296-.346-4.967-.347-23.09-.002-28.008 1.375-19.557 4.038-34.905 9.067-52.256 6.975-24.066 18.44-48.03 32.786-68.528 6.677-9.54 12.362-16.594 20.537-25.483 19.156-20.828 42.182-38.15 67.53-50.801 8.709-4.347 15.173-7.19 22.718-9.991 20.025-7.435 39.47-11.915 60.685-13.982 8.36-.814 11.529-.949 22.407-.949s14.047.135 22.407.949c25.714 2.505 50.03 8.841 73.03 19.03 34.087 15.102 63.88 37.856 87.688 66.968 28.516 34.87 46.594 77.938 51.503 122.698 1.13 10.296 1.361 14.778 1.361 26.349 0 10.033-.131 13.37-.837 21.265-2.303 25.753-8.67 50.377-19.23 74.379-2.05 4.661-6.94 14.49-9.392 18.88-18.216 32.614-43.572 60.284-74.371 81.16-14.959 10.14-32.603 19.266-49.067 25.379-22.021 8.176-43.673 12.857-67.22 14.533-4.071.29-20.3.544-24.378.382zm19.73-11.71c50.969-2.579 99.164-22.267 137.527-56.18 4.07-3.598 12.945-12.326 16.388-16.116 8.16-8.983 14.603-17.202 21.064-26.868 3.977-5.949 6.804-10.639 6.71-11.131-.059-.3-21.162-8.94-96.338-39.447-52.945-21.485-96.45-39.03-96.679-38.989-.888.16-191.857 79.313-191.956 79.562-.195.488 4.758 8.345 9.447 14.985 17.069 24.172 39.237 45.123 64.147 60.623 6.311 3.927 10.514 6.273 17.947 10.018 14.559 7.336 28.208 12.5 43.865 16.597 15.428 4.037 27.956 5.943 46.177 7.024 2.786.166 17.971.111 21.702-.078zM135.143 294.657c44.217-35.722 80.595-65.153 80.84-65.403.402-.413 1.871-9.916 15.718-101.687 10.17-67.403 15.205-101.302 15.067-101.44-.248-.248-4.849-.206-9.86.089-23.72 1.396-46.219 6.262-68.25 14.76-37.89 14.615-71.411 39.554-96.306 71.652C62.553 125.259 54 139.194 47.017 153.9c-12.163 25.615-19.076 51.97-21.25 81.017-.368 4.908-.37 25.202-.003 29.876 2.18 27.812 8.129 51.796 18.836 75.934 2.474 5.58 7.57 15.62 9.343 18.413.163.257.411.466.551.466.14 0 36.432-29.229 80.65-64.95zm313.515 56.809c5.481-10.952 9.025-19.323 12.434-29.372 8.519-25.105 12.345-49.256 11.955-75.453-.154-10.287-.656-17.274-1.916-26.649-7.282-54.162-34.519-104.235-76.131-139.958-35.412-30.4-79.432-49.072-125.416-53.197-6.54-.587-10.425-.826-13.797-.85-3.887-.029-3.63-.061-3.63.477 0 .705 28.996 204.777 29.147 205.136.197.467 163.224 126.538 163.644 126.548.27.006 1.208-1.681 3.71-6.682z" fill="#ffff"/></svg>
