<svg xmlns="http://www.w3.org/2000/svg" width="32" height="32"><path d="M15.989 30.393a31.863 31.863 0 01-3.66-1.973 32.83 32.83 0 01-2.895-2.07c-1.363-1.116-2.623-2.768-3.332-4.368-.293-.66-.477-1.263-.544-1.783C5.526 19.95 4.39 3.054 4.404 3.032c.013-.02.108-.047.752-.204a46.13 46.13 0 017.972-1.206 39.684 39.684 0 012.456-.085c3.925-.036 7.747.441 11.285 1.41.682.187.723.2.727.237.008.066-1.151 16.753-1.177 16.945-.14 1.034-.754 2.477-1.592 3.732-.316.474-.608.855-.997 1.301-.202.232-.795.818-1.022 1.01-.112.094-.28.24-.375.324-1.266 1.127-2.431 1.913-4.507 3.042a99.67 99.67 0 01-1.74.926c-.013.005-.088-.021-.197-.071zm.37-1.58a29.245 29.245 0 005.287-3.535c.437-.369.986-.93 1.39-1.423 1.1-1.344 1.82-2.83 1.998-4.126.016-.116.232-3.129.553-7.724.29-4.143.527-7.543.527-7.555 0-.024-.08-.052-.489-.174-2.451-.728-5.036-1.16-7.8-1.302a33.76 33.76 0 00-2.24-.04c-.917.006-1.141.013-1.86.052a40.04 40.04 0 00-6.874.99c-.5.118-.964.237-.979.252-.01.011.132 2.078.523 7.618.295 4.182.543 7.664.55 7.737.08.71.38 1.619.804 2.425a10.81 10.81 0 002.2 2.876c.656.622 1.885 1.567 3.052 2.347.847.567 1.503.955 2.203 1.304.323.162.854.398.902.402.007 0 .122-.055.254-.123zm-.394-.42c-.93-.318-2.236-1.088-3.712-2.187a30.766 30.766 0 01-1.898-1.532c-.238-.21-.738-.712-.94-.94-1.216-1.377-1.893-2.84-2.05-4.424-.007-.076-.25-3.412-.54-7.413C6.343 5.24 6.3 4.622 6.32 4.61c.026-.02.94-.245 1.427-.352a37.98 37.98 0 0110.275-.851c2.327.129 4.62.497 6.692 1.073.339.094.939.274.971.292.017.01.024.027.024.069 0 .136-1.044 14.415-1.068 14.604-.194 1.542-.88 2.965-2.097 4.349-.414.47-.81.858-1.24 1.218-1.382 1.151-2.813 2.148-4.183 2.912-.284.159-.944.5-.99.512a.631.631 0 01-.165-.041zm.526-.624c1.447-.76 3.265-2.014 4.552-3.14.246-.215.704-.665.951-.933.686-.745 1.125-1.36 1.478-2.07.35-.703.564-1.434.655-2.227a93.55 93.55 0 00.163-2.256c-.003-.005-1.027-.01-2.275-.01h-2.27l-.008.193c-.045.988-.38 1.837-.99 2.514-.111.123-.292.294-.407.385-.042.034-.051.05-.066.12a6.393 6.393 0 00-.061.461c-.01.089-.026.089.206.007l.156-.056.114-.222a2.13 2.13 0 01.437-.616c.304-.306.665-.488.936-.473.072.005.106.012.121.028.025.026.033.018-.127.123-.296.193-.642.59-.727.832a.544.544 0 00-.027.09c.003.003.471-.071.598-.095.047-.009.057-.019.133-.133.26-.39.65-.644.966-.63.11.006.112.027.01.103a1.75 1.75 0 00-.335.346c-.073.102-.149.244-.14.26.004.005.098.013.21.017l.204.008.061-.038c.101-.062.294-.148.395-.177.121-.034.308-.046.432-.027.12.019.258.08.251.112-.003.019-.023.024-.105.032a.927.927 0 00-.392.13.378.378 0 00-.08.064c-.003.007.029.03.069.049.21.102.509.35.633.524.067.094.12.208.152.328.031.116.034.4.005.457-.034.066-.054.054-.107-.064-.197-.438-.624-.724-1.234-.827a4.447 4.447 0 00-.849-.007c-.185.027-.597.113-.899.189-.604.151-1.089.339-1.442.557-.111.069-.111.07-.12.13-.011.088-.065.188-.12.226-.05.034-.107.039-.215.019a.195.195 0 00-.118.006c-.155.055-.333-.007-.398-.138-.045-.09-.043-.164.008-.28a.553.553 0 00.048-.192.5.5 0 01.029-.14c.066-.126.221-.177.365-.12a.383.383 0 00.086.025c.011 0 .065-.02.12-.046.089-.042.1-.051.11-.092.016-.057.072-.355.084-.438.01-.073.027-.075-.19.016a4.075 4.075 0 01-1.216.281c-.021 0-.022.168-.022 3.453 0 2.62.003 3.452.015 3.452.008 0 .092-.04.187-.09zm.54-2.078a.368.368 0 00-.127-.031c-.105-.01-.136-.036-.157-.134a.204.204 0 01.047-.192.422.422 0 00.058-.11.294.294 0 01.06-.101c.037-.035.045-.037.148-.037h.11l.022-.132c.04-.242.092-.384.194-.528.111-.156.288-.28.42-.295.05-.006.057-.004.057.017 0 .013-.02.05-.046.081a1.2 1.2 0 00-.266.613c-.01.083-.006.085.075.045.051-.024.061-.038.114-.149.08-.169.148-.27.26-.386.166-.17.322-.257.488-.272.066-.006.073-.004.073.018 0 .016-.039.055-.107.11a.97.97 0 00-.256.302c-.037.074-.063.174-.048.189.006.006.055 0 .116-.015.088-.022.109-.032.123-.06a1.74 1.74 0 01.106-.15c.172-.222.322-.32.5-.331.183-.01.208.018.082.092a.839.839 0 00-.146.113c-.069.07-.158.208-.147.226a.35.35 0 00.123.003c.106-.008.122-.013.204-.064a.694.694 0 01.328-.112c.124-.001.123.033-.002.107-.074.044-.157.123-.147.14a.232.232 0 00.062.04c.086.044.25.157.328.226.08.07.15.17.191.268.041.098.02.103-.11.025a2.365 2.365 0 00-.592-.255c-.362-.092-.98.056-1.636.392-.19.096-.19.098-.19.14-.001.047-.042.13-.085.17-.068.063-.159.078-.227.037zm.235-1.698a3.884 3.884 0 01-.077-.031c-.048-.02-.067-.022-.108-.01a.453.453 0 01-.124.008c-.067-.005-.08-.01-.117-.051a.25.25 0 01-.055-.247.56.56 0 01.061-.1.288.288 0 00.057-.12.232.232 0 01.127-.177.248.248 0 01.225-.001l.072.03.054-.031c.037-.02.059-.043.066-.068.137-.443.308-.775.498-.966.156-.156.386-.272.539-.272.087 0 .084.02-.016.1a1.23 1.23 0 00-.165.177c-.189.25-.294.47-.332.698l-.009.054.038-.016.19-.085.155-.068.114-.195c.175-.297.31-.45.511-.584.167-.111.377-.173.594-.175.156-.001.203.008.203.042 0 .018-.017.03-.067.046-.249.082-.628.387-.763.614a.645.645 0 00-.057.108.971.971 0 00.132-.019c.07-.012.174-.027.231-.032l.104-.008.102-.118c.124-.142.289-.3.375-.357.035-.023.112-.06.172-.082a.535.535 0 01.242-.042c.094 0 .14.004.154.016.028.023.016.048-.031.065-.07.024-.249.152-.358.256-.1.094-.197.22-.182.235.004.003.077.012.164.02l.156.014.108-.06c.212-.118.344-.16.515-.16.12 0 .199.023.26.077.043.036.043.038.02.056a.14.14 0 01-.073.02.639.639 0 00-.35.122c-.023.017-.042.039-.042.048 0 .01.047.045.105.078.39.224.58.463.58.73 0 .109-.018.11-.131.002a1.927 1.927 0 00-.495-.309c-.47-.182-1.142-.218-1.734-.092-.385.082-.989.32-1.284.505l-.07.045-.008.076a.304.304 0 01-.1.207.276.276 0 01-.176.027zm-1.474 2.062l.002-1.38-2.333-.004a192.607 192.607 0 00-2.34.002c-.018.015.635.548 1.113.909 1.192.9 2.406 1.68 3.3 2.121l.24.12.009-.195c.004-.106.008-.814.01-1.573zm-.019-4.622a7.349 7.349 0 00-.016-.467 1.33 1.33 0 00-.179-.023c-1.003-.087-2.141-.739-2.595-1.486l-.045-.074-2.498-.006a186.135 186.135 0 00-2.507.003c-.014.012.011.278.049.504a5.59 5.59 0 00.675 1.848l.096.162h7.028zm.767-.966c1.128-.171 2.013-.813 2.447-1.774a3.64 3.64 0 00.262-.912c.026-.156.026-.211.035-3.047.005-1.588.006-2.892.004-2.897-.003-.005-1.47-.01-3.26-.01h-3.256l.004 2.86c.005 3.144-.001 2.914.08 3.301.206.973.779 1.724 1.644 2.153.368.183.758.296 1.18.343.158.017.704.006.86-.017zm.314-.698c-.02-.014-.022-.027-.014-.084.005-.037.026-.122.047-.188.046-.143.067-.169.308-.37.092-.077.187-.168.21-.2.208-.295.255-.373.255-.423a.25.25 0 00-.083-.175.407.407 0 00-.093-.048.847.847 0 01-.291-.163c-.086-.07-.11-.083-.124-.07-.033.027-.045.107-.036.25.006.096.004.146-.007.166-.017.031-.098.075-.313.167-.187.08-.3.155-.392.26a.595.595 0 01-.108.102.536.536 0 01-.141.027c-.138.011-.165.034-.16.136.002.062-.002.075-.034.108-.075.078-.274.131-.313.084-.027-.033-.02-.114.02-.216a.542.542 0 01.195-.26c.139-.116.175-.136.298-.165.263-.06.493-.234.547-.411.043-.14.018-.227-.113-.4-.13-.174-.151-.218-.144-.298a.848.848 0 01.011-.084c.004-.016-.031-.02-.243-.027a2.134 2.134 0 01-.582-.082.821.821 0 01-.33-.15c-.042-.034-.086-.058-.104-.058a.22.22 0 00-.087.038.207.207 0 01-.108.04 2.203 2.203 0 01-.644-.086c-.267-.067-.273-.062-.279.214l-.004.187.046.042c.058.053.074.11.074.266 0 .153.015.176.106.165.141-.016.187.123.1.302-.03.06-.04.07-.076.073-.093.01-.237-.109-.276-.228-.016-.046-.039-.077-.095-.126-.113-.098-.136-.18-.117-.418.014-.168 0-.333-.042-.469-.035-.119-.04-.213-.014-.264.037-.07.06-.08.23-.1.223-.024.502-.082.502-.104a.262.262 0 00-.05-.059c-.047-.045-.054-.048-.084-.034-.06.028-.104.019-.155-.033a.941.941 0 01-.167-.323c-.032-.106-.067-.155-.135-.188-.074-.036-.132-.032-.191.012-.12.088-.164.167-.15.274.009.077-.002.104-.072.178-.071.075-.114.145-.114.186 0 .02.013.074.028.118.027.076.027.081.006.113-.047.073-.233.17-.294.155-.044-.011-.063-.065-.063-.178 0-.095.003-.106.042-.163a.51.51 0 00.096-.27.518.518 0 01.06-.194 5.48 5.48 0 01.476-.651c.043-.04.093-.054.135-.038.016.007.09.061.162.121.145.12.26.185.326.185.037 0 .046-.006.061-.042.01-.024.03-.114.044-.2a2.41 2.41 0 01.04-.199c.018-.056.108-.177.238-.32.248-.27.325-.38.317-.454-.006-.048-.066-.063-.166-.042-.074.015-.092.028-.189.136-.053.059-.1.073-.16.048-.034-.014-.041-.024-.041-.056 0-.02.01-.058.02-.083.013-.024.019-.048.014-.052-.004-.005-.035.001-.068.012-.078.027-.11.026-.145-.003-.021-.017-.03-.037-.03-.069 0-.053.02-.08.077-.104.032-.013.043-.027.05-.062.006-.033.03-.067.092-.127.12-.116.253-.222.29-.231a.43.43 0 01.12.006c.087.015.15.01.15-.012a.389.389 0 00-.088-.07c-.1-.067-.112-.1-.063-.162.045-.057.073-.065.248-.072.157-.006.17-.009.251-.05.108-.054.122-.046.1.06l-.017.073.08.069c.32.277.427.515.462 1.022l.01.14.01-.076a2.1 2.1 0 00.006-.26c-.01-.353-.097-.549-.381-.86-.073-.08-.083-.098-.076-.128a.41.41 0 01.096-.173c.063-.044.124-.008.124.073 0 .08.072.092.274.047.193-.043.287-.03.267.035-.009.027-.058.054-.098.054-.034 0-.09.056-.08.081.01.026.037.025.183-.005.14-.029.314-.045.36-.034.043.011.055.054.025.087-.03.034-.069.048-.17.062-.12.018-.164.035-.164.063 0 .018.009.025.032.025.074 0 .099.039.067.108-.012.027-.011.036.006.053.028.029.17.025.281-.008.1-.03.144-.024.16.021.024.06-.007.092-.135.136-.149.051-.183.074-.183.12 0 .058.031.072.187.088.15.015.213.036.226.078.02.064-.027.102-.146.12-.107.017-.158.034-.139.046.01.007.043.012.073.012.098 0 .171.06.142.114-.016.03-.037.035-.184.043-.123.005-.225.036-.178.052.07.024.089.068.052.125-.033.05 0 .066.13.066.097 0 .109.003.131.03.062.077-.014.123-.18.111-.13-.009-.145.003-.078.063.062.056.066.082.018.12-.032.025-.044.027-.14.019-.122-.01-.136-.003-.149.072a.136.136 0 01-.121.12c-.103.016-.13.085-.062.162.069.078.438.252.637.3.086.02.15.025.355.025.342 0 .403.015.626.157.13.082.19.102.27.09.075-.01.117-.053.117-.115 0-.065-.038-.12-.137-.197-.196-.153-.211-.178-.223-.368a.966.966 0 00-.078-.354c-.049-.116-.039-.214.025-.243.025-.012.038-.01.063.006.018.012.042.021.055.021.035 0 .108-.082.175-.197.065-.112.12-.176.175-.205.02-.01.131-.03.247-.044.115-.013.214-.027.22-.03.005-.004.002-.03-.008-.059-.042-.119 0-.266.089-.308.054-.026.101-.019.121.019.011.021.008.038-.019.088-.039.076-.04.1-.007.197.055.158.03.194-.173.247-.165.043-.222.065-.281.11-.04.03-.09.116-.091.153-.001.037.064.014.133-.047.082-.07.185-.127.234-.127.09 0 .124.097.05.137-.058.03-.138.104-.138.125 0 .01.003.017.006.017.004 0 .064-.029.135-.064.13-.066.17-.073.193-.035.01.016.003.038-.034.097-.065.106-.063.116.025.113.13-.005.126.064-.008.197-.071.07-.09.1-.107.155a.19.19 0 01-.08.117c-.143.113-.13.138.028.054.089-.048.13-.063.162-.06.038.003.042.008.045.05a.29.29 0 01-.016.1c-.037.102-.038.098.008.108.07.015.074.023.066.137a.59.59 0 01-.019.125.291.291 0 01-.1.057c-.122.049-.133.071-.054.109.078.037.102.081.08.15-.024.084-.144.151-.268.151-.12 0-.325-.056-.443-.123-.057-.032-.065-.033-.083-.015-.018.018-.017.027.01.102.042.11.051.183.035.283-.018.11-.05.183-.172.375-.118.188-.165.308-.153.393.01.07.092.247.157.337.094.131.104.15.104.196 0 .056-.027.09-.146.185-.168.134-.3.32-.337.47a.404.404 0 01-.033.093c-.03.047-.126.1-.26.143-.173.055-.17.052-.15.156.015.075.015.09-.001.12-.047.084-.29.18-.348.137zM15.16 13.72c-.043-.012-.048-.058-.01-.099.051-.056.227-.182.252-.182.014 0 .025.01.025.02a.84.84 0 01-.072.207c-.034.052-.117.076-.195.054zm-1.94-.514c-.11-.037-.167-.102-.193-.222-.022-.101-.007-.118.106-.113l.091.004.017.05c.022.068.05.096.094.096.083 0 .127-.066.095-.143-.017-.04-.037-.054-.166-.116-.15-.074-.18-.1-.21-.184a.386.386 0 010-.206c.056-.167.27-.245.438-.16.102.052.157.135.157.238 0 .049-.023.063-.104.063-.069 0-.075-.002-.087-.035-.036-.09-.042-.098-.095-.102-.07-.005-.114.039-.102.104.01.05.05.084.128.109.184.059.266.15.266.298a.48.48 0 01-.017.126.365.365 0 01-.159.175.404.404 0 01-.258.018zm.67-.007c-.015-.01-.019-.072-.022-.4l-.004-.388h-.086c-.05 0-.092-.006-.1-.015-.009-.008-.016-.047-.016-.086 0-.04.007-.078.015-.087.011-.01.098-.015.311-.015.333 0 .322-.003.322.102 0 .09-.013.101-.121.101h-.095v.385c0 .282-.004.389-.015.4-.018.018-.16.02-.188.003zm.614-.019a.28.28 0 01-.155-.199c-.018-.083-.019-.715 0-.748.01-.02.026-.025.1-.025.084 0 .09.002.102.033.007.018.012.182.012.372 0 .38.002.387.082.387.09 0 .09 0 .094-.408.002-.267.007-.367.019-.374.024-.015.167-.011.184.005.01.012.015.112.015.373 0 .386-.005.423-.07.508-.078.102-.252.137-.383.076zm.735.016c-.011-.011-.015-.118-.015-.4v-.384l-.099-.003-.098-.004v-.19h.622v.19l-.098.004-.098.003-.004.388c-.003.327-.006.388-.022.399-.028.017-.17.015-.188-.003zm.685 0c-.01-.011-.015-.118-.015-.4v-.384l-.098-.003-.099-.004v-.19h.622v.19l-.098.004-.097.003-.004.388c-.003.327-.007.388-.023.399-.027.017-.17.015-.188-.003zm.572-.012c-.114-.056-.168-.183-.177-.417-.009-.204.01-.325.064-.425.055-.1.111-.144.206-.161.116-.022.21.002.278.07.06.06.1.158.093.226l-.004.042h-.202l-.01-.055c-.012-.073-.04-.103-.095-.103-.034 0-.047.007-.066.04-.034.055-.046.202-.03.386.013.164.033.215.087.229.068.017.106-.025.11-.122l.003-.057-.05-.007-.051-.006v-.165l.15-.004c.113-.003.155 0 .163.013.011.019.014.48.003.51-.01.024-.132.029-.168.006-.018-.011-.032-.01-.063.006a.32.32 0 01-.241-.006zm.531.01c-.012-.015.007-.103.088-.41.156-.593.145-.56.197-.57a.59.59 0 01.204.01c.014.014.247.941.24.958-.008.022-.204.023-.218 0a.54.54 0 01-.03-.091l-.02-.077-.097-.003-.097-.004-.014.054c-.027.105-.04.135-.059.143-.04.015-.179.008-.194-.01zm.418-.414c0-.034-.05-.233-.058-.226-.01.01-.053.225-.046.231.012.012.104.008.104-.005zm.816.418c-.031-.013-.037-.038-.047-.206-.009-.153-.023-.18-.1-.185l-.06-.004-.003.195-.003.194h-.203v-.965h.446l.054.036a.223.223 0 01.078.089c.043.095.027.248-.035.316-.02.021-.019.027.008.081a.525.525 0 01.04.206c.006.082.014.169.019.194.006.04.004.047-.022.054a.402.402 0 01-.172-.005zm-.058-.63c.035-.038.039-.112.008-.146-.015-.017-.04-.023-.089-.023h-.068v.099c0 .055.004.104.01.109.018.018.111-.007.14-.039zm.48.628a7.057 7.057 0 01-.01-.398l-.003-.38-.088-.004a.294.294 0 01-.105-.018c-.021-.017-.022-.152-.001-.173.021-.021.595-.021.616 0 .021.021.02.156 0 .173a.297.297 0 01-.106.018l-.088.004-.006.393-.007.394-.098.003c-.072.003-.1 0-.105-.012zm-6.34 2.643v-.863l-.049-.02c-.31-.13-.968-.151-1.38-.043a3.7 3.7 0 00-.825.387c-.161.109-.62.48-.638.515a.606.606 0 00-.026.133.548.548 0 01-.032.14.335.335 0 01-.166.138c-.057.022-.064.022-.16 0a.602.602 0 00-.203-.015.434.434 0 01-.137-.005.303.303 0 01-.167-.238.76.76 0 01.037-.157.764.764 0 00.039-.161c0-.184.156-.322.318-.28.121.03.123.03.17-.016l.043-.044-.001-.177a1.78 1.78 0 01.194-.828c.084-.18.16-.29.273-.395.107-.1.241-.174.338-.187.086-.01.088.011.015.131-.033.055-.084.151-.114.214-.11.234-.234.692-.234.861V15l.093-.06a5.13 5.13 0 01.176-.11l.083-.048.022-.097c.062-.263.202-.586.312-.722.124-.153.329-.293.479-.328.117-.027.146 0 .08.074-.155.178-.343.564-.377.775-.008.05-.007.05.022.042l.145-.038a.372.372 0 00.123-.047l.083-.176c.118-.25.255-.413.458-.544.137-.088.297-.132.314-.086a.38.38 0 01-.07.123c-.123.173-.245.426-.272.568l-.008.043.156-.009.155-.009.165-.169c.168-.17.294-.266.483-.364l.082-.042v-1.452l-.073-.01c-.04-.006-.17-.01-.289-.01a1.49 1.49 0 00-.355.03c-.42.086-.945.247-1.38.42-.215.087-.59.268-.69.333l-.063.042-.016.125c-.025.186-.084.282-.213.345-.085.042-.122.037-.268-.034l-.104-.05-.066.019c-.268.08-.491-.079-.465-.33.008-.082.028-.12.108-.21a.3.3 0 00.079-.14c.06-.256.235-.35.478-.258l.106.039c.046.015.06-.024.119-.312.068-.344.097-.435.211-.667.158-.321.362-.59.551-.723.09-.063.252-.147.343-.176.147-.046.286-.055.286-.019a1.8 1.8 0 01-.176.194c-.201.204-.289.328-.414.585-.133.272-.235.58-.235.707 0 .033.002.06.004.06s.04-.014.082-.031c.043-.017.153-.058.245-.09.093-.03.175-.063.184-.07.01-.007.043-.093.076-.19.095-.286.233-.532.403-.717.216-.235.526-.425.756-.462.08-.012.116-.008.116.014 0 .007-.066.082-.146.167-.08.085-.18.2-.223.256a2.094 2.094 0 00-.285.582.645.645 0 00-.025.135c.003.005.041 0 .085-.012.044-.012.137-.032.207-.045.07-.012.139-.03.154-.039a.52.52 0 00.086-.128c.076-.142.177-.283.297-.411.148-.16.275-.247.442-.305.13-.045.296-.047.296-.004 0 .01-.051.068-.114.128s-.15.155-.191.21c-.087.116-.201.34-.211.415l-.007.052.08-.002c.045 0 .113-.005.152-.01l.07-.007.006-.165.006-.165 1.733-.007 1.732-.006V6.655l-.425.004c-2.884.025-5.528.37-8.083 1.053-.201.054-.27.077-.27.091 0 .04.637 8.843.643 8.87l.006.029h4.645zm-3.555-4.792a.952.952 0 01-.14-.05.319.319 0 00-.146-.033c-.194 0-.294-.042-.37-.156-.081-.12-.068-.243.042-.404.088-.13.1-.155.118-.241.031-.152.153-.281.29-.307a.49.49 0 01.255.055c.093.043.112.045.15.015.025-.019.039-.07.1-.374.073-.37.09-.428.204-.738.13-.35.234-.517.467-.752.265-.266.534-.41.761-.41.1 0 .095.024-.031.138-.364.33-.553.644-.671 1.116a6.855 6.855 0 00-.124.632c.003.003.085-.028.182-.07.097-.04.242-.099.322-.128.08-.03.15-.058.155-.062a1.31 1.31 0 00.054-.16c.148-.488.322-.82.545-1.043.265-.264.579-.44.817-.458.08-.007.092-.005.092.014a.887.887 0 01-.143.164c-.24.238-.402.48-.531.795-.061.148-.143.428-.13.447.002.005.037-.002.077-.016.064-.022.26-.076.407-.114.051-.012.057-.019.092-.095.091-.205.262-.483.386-.629.187-.22.466-.374.706-.389.167-.01.165.014-.01.17a1.1 1.1 0 00-.286.355 2.26 2.26 0 00-.156.453l-.009.047h.114c.063 0 .172.006.242.013l.127.013.115-.119c.183-.189.388-.321.604-.39.114-.036.398-.051.422-.023.02.024.012.033-.091.102-.161.108-.364.307-.434.425-.036.062-.056.123-.044.14.004.005.065.053.135.104.154.114.422.38.513.51.09.128.15.25.179.363.023.091.023.131-.003.131a.593.593 0 01-.103-.08c-.236-.21-.522-.387-.739-.458a2.68 2.68 0 00-.856-.126c-.258 0-.387.013-.654.069-.709.148-1.458.457-2.28.94l-.147.085-.022.087a1.39 1.39 0 01-.07.188c-.097.21-.28.306-.483.254zm15.544 5.6c.01-.026.207-2.489.2-2.5a272.89 272.89 0 00-4.388-.001l-.402.008V15.4c0 .686.004 1.25.009 1.255.005.005 1.036.009 2.292.009 1.901 0 2.284-.003 2.29-.018zm-11.99-2.321v-.219l-.046.044a1.66 1.66 0 00-.207.26c0 .008.198.114.25.132.002 0 .003-.097.003-.217zm12.394-3.016c.007-.063.186-2.405.186-2.43 0-.013-7.215-.013-8.027-.002l-.592.009v.8c0 .44.003 1.002.008 1.249l.008.447h8.41l.007-.073zm.254-3.738c.02-.122.222-2.453.214-2.46-.026-.023-.887-.262-1.412-.393-2.057-.513-4.106-.801-6.512-.915a52.244 52.244 0 00-2.469-.013 35.91 35.91 0 00-6.842.852c-.396.088-1.114.266-1.13.28-.01.007.018.387.087 1.227.056.668.103 1.218.106 1.221.002.003.166-.033.363-.079a36.122 36.122 0 017.168-.962c.781-.03 2.137-.017 2.977.027 2.136.111 4.193.412 6.125.895a27.227 27.227 0 011.31.36c.005 0 .012-.017.015-.04zm-1.272-.663a19.79 19.79 0 01-.882-.22c-.017-.018.134-1.763.155-1.784.016-.016 1.813.417 1.84.443.016.014.015.045-.002.216-.01.11-.026.205-.033.212-.008.008-.236-.042-.676-.148a10.51 10.51 0 00-.672-.15.591.591 0 00-.017.125c-.007.105-.006.117.014.124l.658.16c.349.085.642.161.651.17.015.014.015.045.002.184a.588.588 0 01-.032.18c-.012.01-.194-.03-.656-.14a26.184 26.184 0 00-.66-.153c-.016 0-.022.02-.028.086-.005.047-.011.098-.014.113-.007.034-.079.012.673.201.66.166.662.167.67.188a2.85 2.85 0 01-.035.39c-.004.007-.026.011-.048.01-.023 0-.431-.094-.908-.207zm-16.409.066a86.36 86.36 0 01-.146-1.695c0-.044.005-.056.029-.066.015-.006.407-.1.87-.209.947-.222.95-.223 1.08-.158.327.164.339.817.018.992-.042.023-.274.087-.745.204-.375.094-.686.175-.69.18-.005.004.005.153.022.33.018.2.025.329.018.336-.014.013-.39.115-.425.115-.015 0-.027-.011-.03-.029zm.984-1.336c.431-.107.597-.154.615-.172.03-.03.035-.123.008-.156-.01-.011-.035-.02-.057-.02s-.305.065-.63.143l-.59.144.002.09c.002.11.01.134.04.125l.612-.154zm14.033.921c-.268-.052-.248-.043-.248-.105 0-.03.01-.176.02-.324.012-.149.02-.273.016-.276-.01-.01-1.33-.226-1.338-.22a3.79 3.79 0 00-.032.304 5.94 5.94 0 01-.03.313c-.008.022-.066.02-.256-.01a4.811 4.811 0 00-.177-.025.083.083 0 01-.035-.016c-.02-.015-.02-.064.03-.86.028-.464.054-.857.057-.873.005-.02.016-.028.041-.028.062 0 .438.062.45.073.006.007 0 .146-.013.328a3.45 3.45 0 00-.016.324c.01.01 1.35.228 1.357.22a5.22 5.22 0 00.028-.317 2.47 2.47 0 01.034-.325c.015-.015.467.066.488.087.01.01-.008.278-.058.879-.039.476-.074.87-.078.877-.01.016-.039.013-.24-.026zM9.948 6.33a.355.355 0 01-.183-.15 2.067 2.067 0 01-.09-.434 5.951 5.951 0 01-.026-.729c.007-.136.012-.16.045-.22a.377.377 0 01.167-.16c.116-.055 1.044-.213 1.566-.267.275-.028.372-.006.473.106.054.06.064.092.098.314.06.383.063.982.007 1.117a.401.401 0 01-.174.178c-.127.065-.783.173-1.495.246-.297.03-.307.03-.388 0zm.608-.532c.522-.058.923-.129.96-.169.035-.037.043-.116.034-.345-.01-.222-.024-.32-.053-.349-.036-.035-.351-.005-.914.089-.47.078-.45.066-.45.257-.001.197.036.49.065.519.03.03.073.03.358-.002zm9.071.316a192.55 192.55 0 01-1.53-.15c-.143-.014-.23-.05-.295-.12-.093-.101-.096-.12-.088-.57.01-.534.041-.777.114-.886a.45.45 0 01.204-.141c.094-.028.48-.012 1.018.041.386.039.935.111.95.125.016.017-.01.444-.03.463-.014.014-.04.011-.831-.08-.4-.046-.693-.07-.792-.062-.088.006-.122.029-.134.09a4.929 4.929 0 00-.026.55c.014.074.056.102.173.118.2.028.69.077 1.096.11.223.018.425.035.45.039l.042.006-.009.218c-.005.12-.014.227-.021.24-.014.026-.06.027-.29.009zm-7.23-.063c-.015-.026-.099-1.713-.085-1.727.007-.007.459-.046 1.013-.088 1.036-.077 1.046-.078 1.155-.032a.44.44 0 01.182.178c.033.062.034.071.034.273 0 .203-.002.212-.035.28a.94.94 0 01-.05.091c-.014.019-.01.028.019.059.062.065.087.154.098.357.016.283.015.44-.004.454a1.18 1.18 0 01-.22.022c-.162.007-.206.005-.218-.008a1.284 1.284 0 01-.018-.273c-.004-.236-.006-.259-.03-.292-.055-.074-.035-.073-.739-.023-.354.025-.651.048-.66.051-.01.003-.014.016-.011.028.004.012.01.155.015.317l.009.294-.03.007c-.03.008-.367.045-.399.045a.033.033 0 01-.026-.013zm1.104-1.178l.545-.035.03-.035c.048-.056.03-.153-.03-.168a28.74 28.74 0 00-1.183.08l-.08.008.005.085a.48.48 0 00.013.096c.008.013-.025.015.7-.031zm1.513 1.01a2.294 2.294 0 01-.008-.427c.014-.025.022-.026.897-.03.857-.002.883-.003.901-.027.024-.033.023-.09-.003-.11-.017-.015-.161-.02-.771-.025-.843-.007-.815-.004-.928-.103-.114-.101-.154-.239-.143-.498a.932.932 0 01.03-.222.44.44 0 01.211-.231l.067-.03 1.046-.004c.77-.003 1.05 0 1.063.011.023.02.025.417.002.44-.012.012-.242.016-.957.016-1.043 0-.957-.008-.957.083 0 .085-.032.082.834.082.753 0 .78 0 .847.026.091.034.187.12.221.201.06.139.064.49.008.649a.336.336 0 01-.176.18l-.065.03-1.057.003c-.85.002-1.058 0-1.062-.013z" fill="#ffff"/></svg>
