<svg xmlns="http://www.w3.org/2000/svg" width="2500" height="2500" viewBox="0 0 498.503 498.503"><path d="M114.772 389.535c-5.19-.21-8.586-.552-7.548-.76 1.857-.37 1.851-.378-.393-.47-5.594-.232-10.251-3.071-12.914-7.875l-1.789-3.227-.191-24.374-.191-24.373h13.843l.189 21.228c.17 19.212.296 21.387 1.32 22.895 2.095 3.086 3.828 3.366 20.883 3.366 13.824 0 15.97-.134 17.75-1.108 1.114-.609 2.317-1.651 2.673-2.317.408-.762.648-9.144.648-22.637v-21.427h14.536l-.228 23.744c-.253 26.335-.299 26.66-4.367 31.282-2.543 2.89-6.415 4.66-10.525 4.81l-2.247.083 2.202.464c1.48.311-.168.491-5.032.55-3.979.047-9.923.185-13.21.307-3.286.122-10.22.05-15.41-.16zm325.816-.025c-5.189-.224-8.444-.502-7.233-.617 1.907-.18 1.721-.278-1.39-.734-6.58-.965-11.399-4.662-12.988-9.964-.482-1.612-.718-10.15-.718-26.068v-23.672H432.097v42.898l2.073 2.072c1.863 1.864 2.565 2.12 6.934 2.529 2.674.25 10.162.336 16.64.19 18.745-.422 17.751 1.095 17.752-27.09l.001-20.599h6.553c3.605 0 7.001-.171 7.548-.381.896-.344.99 1.797.949 21.543-.026 12.058-.274 23.198-.55 24.755-.278 1.556-.552 2.406-.61 1.887-.059-.52-.49.131-.959 1.445-2.256 6.324-7.48 10.414-13.526 10.588-2.857.083-2.859.084-.663.547 1.522.32.144.488-4.462.546-3.665.045-9.609.184-13.209.308-3.6.124-10.79.042-15.98-.183zm-412.617-.62c2.184-.348 1.85-.451-2.527-.786-2.774-.211-6.17-.855-7.548-1.43-5.547-2.313-8.48-7.369-8.48-14.618v-3.345h13.838v1.852c0 1.05.657 2.616 1.517 3.616l1.517 1.765 18.453.197c21.101.225 22.762-.007 24.178-3.396 1.294-3.099.453-5.946-2.146-7.262-1.25-.633-4.494-1.18-8.463-1.43-41.473-2.597-40.98-2.524-45.128-6.672-1.495-1.495-2.816-3.632-3.38-5.469-.526-1.709-.98-2.47-1.05-1.756-.067.691-.328-.016-.578-1.57-.517-3.206-.075-8.664.612-7.553.273.442.594.026.81-1.048.932-4.638 6.635-9.59 12.547-10.894 4.71-1.038 31.985-1.53 41.468-.747 12.843 1.061 16.586 4.025 17.838 14.128l.451 3.638-7.146-.179-7.146-.178-.32-1.82c-.176-1.005-1.116-2.415-2.096-3.146-1.713-1.276-2.45-1.324-20.271-1.324H26.426l-1.712 1.712c-3.302 3.304-1.817 8.059 2.885 9.238 1.243.311 9.335.897 17.984 1.301 27.788 1.3 30.104 1.751 34.156 6.667 2.634 3.195 3.476 6.758 3.145 13.303-.581 11.47-5.91 16.372-18.074 16.624-4.535.094-4.612.12-1.615.53 1.73.238-6.054.436-17.298.441-11.243.007-19.31-.17-17.926-.39zm145.926.096c.404-.297.629-11.148.629-30.339V328.77l27.046-.192c29.534-.21 31.882-.01 36.167 3.095 6.229 4.512 7.74 16.622 2.807 22.485-.852 1.012-1.549 2.125-1.549 2.473 0 .348.963 1.595 2.14 2.773 2.37 2.369 4.15 7.299 4.15 11.49 0 3.864-1.728 9.755-3.57 12.17-1.724 2.26-7.002 5.1-9.639 5.184-1.443.046-1.468.095-.314.59.726.313-11.368.556-28.62.576-16.431.019-29.593-.173-29.247-.428zm52.02-12.123c1.282-.356 2.91-1.383 3.617-2.283 1.58-2.01 1.713-6.238.26-8.311-2.057-2.939-3.988-3.219-22.175-3.219-9.323 0-17.399.172-17.946.382-.813.312-.995 1.5-.995 6.478 0 3.904.272 6.369.755 6.852.968.968 33.042 1.057 36.484.1zm1.99-26.314c3.24-3.046 2.651-7.97-1.17-9.784-1.733-.822-4.936-.988-19.076-.988-9.346 0-17.44.172-17.988.382-.802.308-.995 1.446-.995 5.87 0 3.02.2 5.69.446 5.935.245.245 8.714.363 18.82.262 18.36-.183 18.375-.185 19.964-1.677zm19.048 38.437c.4-.254 8.063-13.906 17.03-30.339l16.305-29.877h17.387l16.242 29.828c8.934 16.405 16.605 30.058 17.048 30.339.444.281-3.416.516-8.576.521-5.16.007-9.207-.166-8.993-.38.445-.445-3.6-8.8-5.065-10.46-.884-1.002-2.654-1.101-19.735-1.101h-18.764l-1.495 2.367c-2.475 3.922-4.78 8.776-4.364 9.193.216.215-3.689.386-8.676.381-4.988-.007-8.742-.218-8.344-.472zm53.616-22.736c1.263-.8.83-1.915-5.262-13.563-4.09-7.82-5.737-10.415-6.519-10.27-.634.118-3.362 4.6-6.925 11.377-4.808 9.145-5.74 11.35-5.112 12.106.622.75 2.862.922 11.854.914 6.098-.007 11.482-.259 11.964-.564zm36.391 22.801c.614-.248.787-6.94.787-30.485v-30.168l29.405.186 29.405.186 2.753 1.468c6.036 3.22 7.826 6.739 7.892 15.515.051 6.702-.918 9.757-3.973 12.52-1.729 1.563-1.671 2.347.307 4.195 3.733 3.489 4.583 6.674 4.693 17.595.06 5.908.321 8.807.812 9.008.399.164-2.813.319-7.137.345l-7.863.049v-9.075c0-8.23-.123-9.24-1.318-10.848-2.405-3.237-3.008-3.328-22.035-3.338-14.455-.007-17.826.153-18.427.877-.514.62-.68 4.11-.549 11.637l.187 10.751-7.862-.05c-4.325-.029-7.51-.194-7.077-.368zm54.932-37.175c3.145-3.522 2.295-9.253-1.65-11.125-1.7-.806-5.062-.974-19.6-.974-12.81 0-17.752.204-18.303.755-1.044 1.045-1.022 11.935.026 12.984.595.595 5.174.737 19.236.597l18.456-.183 1.834-2.054zM8.338 370.913c.006-1.73.127-2.363.272-1.407.144.956.14 2.371-.01 3.145-.15.774-.267-.01-.263-1.738zM227.99 300.11c-38.844-2.97-72.76-11.75-101.147-26.185-23.324-11.86-41.071-27.881-49.335-44.536-24.44-49.259 29.337-100.303 121.863-115.672 9.854-1.636 26.154-3.443 32.638-3.616l3.529-.094-2.83-.397c-1.83-.257.839-.514 7.547-.726 12.344-.392 32.537.124 28.305.722-2.738.387-2.701.404 1.118.495 6.185.148 21.528 1.857 32.204 3.588 50.822 8.24 93.513 29.239 113.735 55.947 3.951 5.218 9.675 16.586 11.243 22.328.83 3.04 1.117 6.43 1.117 13.209 0 10.747-.765 14.174-5.261 23.587-8.72 18.256-26.874 34.354-53.203 47.18-24.656 12.01-52.908 19.62-86.486 23.292-10.88 1.19-44.036 1.719-55.037.878zm51.892-8.502c57.882-5.395 107.78-27.523 127.875-56.71 3.22-4.674 6.952-12.587 8.384-17.774 1.562-5.657 1.562-18.245 0-23.902-1.432-5.187-5.164-13.1-8.384-17.775-25.476-37.001-97.156-61.267-170.502-57.72-39.733 1.922-72.315 9.575-101.748 23.898-14.971 7.285-24.015 13.56-33.944 23.554-9.448 9.509-13.564 15.76-16.802 25.511-1.815 5.468-1.99 6.706-2.011 14.168-.025 9.395.826 13.311 4.699 21.602 16.027 34.31 70.537 60.234 137.71 65.495 17.922 1.404 37.255 1.281 54.723-.347zm-35.486-16.775c-1.613-7.575-4.24-12.755-7.246-14.289-2.388-1.218-14.646-3.264-24.885-4.154-8.402-.73-7.752-1.21 3.216-2.375 16.638-1.767 20.73-2.686 23.627-5.302 2.072-1.873 2.745-3.185 4.467-8.72 1.114-3.583 2.205-6.516 2.424-6.516.218 0 .718 1.275 1.11 2.833 2.193 8.71 5.35 13.662 9.4 14.75 3.077.828 22.667 3.784 25.692 3.877l2.398.075-2.83.536c-1.557.294-7.772 1.276-13.812 2.18-6.546.981-11.917 2.124-13.299 2.829-2.952 1.506-4.988 5.476-6.923 13.501-.79 3.28-1.617 5.965-1.836 5.965-.218 0-.895-2.336-1.503-5.19zm79.312-.471c-.187-.52-.81-2.634-1.384-4.699-1.701-6.116-3.186-8.469-6.158-9.76-1.448-.63-8.011-1.95-14.584-2.935-6.573-.985-11.102-1.875-10.064-1.977 6.558-.65 22.443-3.571 24.648-4.534 3.043-1.328 4.343-3.468 6.487-10.68l1.399-4.707 2.001 6.136c1.199 3.674 2.622 6.753 3.547 7.672 2.054 2.043 6.734 3.165 20.764 4.98 6.38.825 11.256 1.53 10.834 1.567-5.408.473-26.099 3.39-27.917 3.934-3.555 1.066-5.03 3.072-7.242 9.848-1.095 3.354-2.144 5.674-2.33 5.155zM198.517 238.49c-2.47-11.886-6.368-27.367-7.966-31.638-2.767-7.396-8.06-11.931-16.21-13.893-7.88-1.897-43.866-6.53-69.183-8.908-2.52-.236-4.48-.531-4.356-.655.124-.124 10.535-1.375 23.137-2.78 44.578-4.97 55.483-7.063 60.882-11.684 4.7-4.023 7.079-9.657 12.704-30.09l2.763-10.036.827 3.118c6.175 23.287 8.967 30.85 13.075 35.42 4.93 5.482 9.216 6.539 42.44 10.462 27.221 3.214 44.859 5.371 45.525 5.567.315.092-4.356.676-10.379 1.296-15.887 1.636-49.963 5.86-58.857 7.297-8.98 1.45-12.915 2.663-15.936 4.913-2.755 2.051-3.439 2.88-5.289 6.408-2.784 5.31-4.574 12.097-10.944 41.493-.415 1.914-.688 1.144-2.233-6.29zm99.204-1.654c-2.98-12.26-3.907-13.045-17.704-15.013-5.524-.787-12.202-1.634-14.84-1.881-2.636-.247-4.794-.65-4.794-.895s4.458-.946 9.907-1.558c12.005-1.347 18.326-2.49 21.122-3.816 2.587-1.228 4.197-4.033 6.41-11.172.939-3.027 1.793-5.504 1.898-5.504.105 0 1.077 2.85 2.16 6.334 3.261 10.499 4.37 11.18 22.543 13.84 5.08.744 9.662 1.497 10.18 1.673.52.176-3.726.999-9.434 1.83-11.864 1.726-16.079 2.792-18.469 4.672-2.361 1.857-3.169 3.691-5.105 11.592-.933 3.805-1.78 7.005-1.885 7.11-.104.106-.999-3.14-1.989-7.212zm74.035-1.823c-2.08-7.955-3.346-10.205-6.529-11.604-2.657-1.17-14.91-3.768-17.76-3.768-.848 0-1.541-.283-1.541-.63 0-.345.668-.628 1.486-.628 2.62 0 16.68-3.074 18.598-4.067 2.597-1.343 3.618-3.023 5.51-9.066l1.651-5.271 1.63 4.992c3.042 9.315 4.223 10.072 19.253 12.345 5.53.837 9.629 1.677 9.11 1.867-.52.19-4.199.81-8.177 1.376-9.73 1.384-14.46 2.63-16.2 4.265-1.298 1.218-3.469 7.097-5.042 13.649-.498 2.075-.58 1.933-1.99-3.46zm-20.999-33.015c-.912-3.481-2.212-7.58-2.888-9.108-2.175-4.917-3.856-5.459-24.98-8.056l-11.229-1.38 13.381-1.762c21.926-2.885 22.04-2.947 25.412-13.966l2.028-6.627 2.227 6.892c1.322 4.091 2.854 7.56 3.77 8.534 2.074 2.209 5.852 3.207 19.173 5.065 6.191.864 11.348 1.662 11.46 1.773.111.112-4.536.862-10.327 1.667-17.145 2.383-19.286 3.123-21.443 7.416-.65 1.292-1.956 5.321-2.903 8.954-.946 3.632-1.788 6.677-1.871 6.766-.083.089-.898-2.687-1.81-6.168z" fill="#ffff"/></svg>
