<svg xmlns="http://www.w3.org/2000/svg" width="2500" height="2500" viewBox="0 0 498.503 498.503"><path d="M217.179 296.601l-32.05-179.125-16.411.452c-45.222 1.246-61.55 8.358-65.737 28.632-1.15 5.567-.476 5.568-11.65-.02-20.245-10.126-39-24.91-47.852-37.722l-2.178-3.152 10.469-4.417c42.739-18.036 97.958-31.2 141.045-33.626l9.212-.519 23.578 28.734c18.38 22.4 23.773 28.523 24.463 27.776.486-.526 11.119-13.457 23.627-28.734l22.743-27.777 9.225.52c43.1 2.426 98.313 15.588 141.058 33.626l10.469 4.417-2.178 3.152c-8.852 12.811-27.608 27.596-47.853 37.723-11.173 5.588-10.499 5.587-11.649.019-3.395-16.438-15.599-24.214-42.838-27.298-3.989-.451-14.515-1.042-23.393-1.313l-16.141-.492-.833 4.126c-.459 2.27-14.76 82.612-31.783 178.539-17.022 95.926-31.026 174.68-31.12 175.009-.095.328-14.595-80.01-32.223-178.53zM27.452 80.822c-3.317-6.798-6.031-12.704-6.031-13.124-.001-1.421 33.356-13.197 56.465-19.933 41.009-11.954 80.237-19.14 127.47-23.351 17.57-1.566 74.607-1.317 92.74.406 55.29 5.253 100.938 14.93 151.132 32.041 18.079 6.163 27.847 9.974 27.854 10.867.003.436-2.722 6.35-6.056 13.144l-6.063 12.351-4.432-1.971c-13.466-5.99-40.405-15.593-58.452-20.837-87.508-25.429-193.339-27.593-283.375-5.796-26.91 6.515-55.123 15.766-78.858 25.858l-6.363 2.706z" fill="#ffff"/></svg>
