<svg xmlns="http://www.w3.org/2000/svg" width="2500" height="2500" viewBox="0 0 498.503 498.503"><path d="M234.625 481.887c-26.911-1.632-55.145-8.444-79.39-19.156-41.314-18.254-75.731-47.286-100.633-84.888-18.764-28.336-31.259-61.194-36.084-94.9-1.8-12.568-2.158-18.133-2.162-33.585-.004-15.916.393-21.833 2.36-35.147 6.262-42.395 24.342-82.291 52.472-115.793 5.653-6.732 20.96-22.015 27.545-27.5 55.68-46.381 127.441-64.38 198.47-49.778 90.948 18.696 162.156 90.546 180.51 182.136 4.624 23.072 5.692 49.919 2.92 73.42-7.652 64.888-41.736 123.043-94.647 161.488-43.201 31.391-97.21 46.985-151.361 43.703zm29.908-21.46c44.81-3.45 86.005-20.432 121.045-49.903 6.303-5.302 20.154-19.202 25.366-25.456 46.083-55.303 61.687-127.49 42.054-194.547-2.347-8.018-4.963-15.298-5.354-14.903-.175.176-25.784 51.548-56.909 114.16-74.628 150.124-68.126 137.259-70.011 138.507-3.204 2.12-7.23 1.44-9.561-1.616-.572-.75-13.983-30.32-29.8-65.71-15.82-35.39-29.171-65.006-29.672-65.811-1.036-1.668-2.6-1.983-3.715-.75-.356.393-13.67 29.862-29.588 65.486-15.918 35.624-29.392 65.452-29.942 66.284-2.787 4.211-8.612 4.51-11.535.592-.804-1.078-48.008-95.798-109.518-219.762-12.966-26.13-15.859-31.689-16.188-31.1-.63 1.126-4.127 11.67-5.582 16.833-3.808 13.514-6.212 27.616-7.257 42.568-.58 8.314-.258 27.537.593 35.343 5.592 51.268 28.353 97.114 65.827 132.593 34.159 32.339 79.53 52.96 124.97 56.8 2.685.227 5.497.471 6.248.542 3.408.32 23.803.213 28.529-.15zm-81.36-106.575c.387-.414 9.664-21.88 20.616-47.7 10.953-25.82 20.225-47.458 20.606-48.085 1.396-2.301 1.4-2.302 24.418-2.18 23.497.124 22.112-.054 23.701 3.049.498.972 9.896 22.236 20.886 47.254 10.989 25.018 20.41 46.146 20.937 46.952 1.058 1.62 2.375 1.931 3.483.823.353-.353 25.147-49.651 55.097-109.552l54.456-108.911-2.38-3.54c-14.844-22.076-34.95-42.266-57.665-57.909-5.92-4.077-15.853-10.042-16.144-9.696-.13.154-17.604 38.916-38.831 86.137-21.228 47.221-38.968 86.409-39.422 87.083-1.516 2.25-.995 2.201-23.46 2.208-19.37.006-20.79-.041-22.045-.714-.737-.396-1.646-1.318-2.019-2.05-.566-1.113-75.284-167.065-77.219-171.508l-.639-1.468-5.467 3.243c-17.199 10.2-32.154 22.236-46.395 37.339-7.58 8.038-16.866 19.673-22.117 27.711l-2.122 3.248 1.89 3.774c1.039 2.076 25.154 50.696 53.59 108.046 28.435 57.349 52.135 104.93 52.666 105.736 1.102 1.67 2.438 1.936 3.58.71zm67.855-153.628c.686-1.047 66.514-149.247 66.825-150.444.188-.725-.417-1-6.65-3.017-31.553-10.215-66.2-12.404-99.411-6.281-12.084 2.228-31.545 7.908-31.343 9.147.179 1.096 65.753 148.565 66.714 150.034 1.169 1.785 2.899 2.036 3.865.561z" fill="#ffff"/></svg>
