<svg xmlns="http://www.w3.org/2000/svg" width="2500" height="2500" viewBox="0 0 498.503 498.503"><path d="M223.6 484.56c-9.778-1.03-26.805-4.426-37.837-7.548C42.39 436.436-28.507 277.51 36.67 142.798 66.19 81.78 120.842 36.948 189.073 17.778c19.412-5.453 24.428-5.934 61.207-5.863 34.173.066 42.717.798 58.12 4.978 28.064 7.615 57.888 21.32 78.998 36.304 5.716 4.056 5.875 4.042 10.573-.958 2.623-2.792 4.769-5.756 4.769-6.585 0-.83-7.011-6.17-15.58-11.868-9.958-6.622-15.58-11.848-15.58-14.485 0-3.906 2.952-4.124 55.642-4.124h55.643v55.642c0 52.69-.22 55.642-4.125 55.642-2.637 0-7.863-5.622-14.485-15.58-5.698-8.569-11.039-15.58-11.868-15.58-.83 0-3.782 2.137-6.562 4.748l-5.054 4.748 6.167 9.163c16.342 24.28 27.627 49.797 35.057 79.272 3.33 13.212 4.208 24.813 4.208 55.642 0 33.81-.68 41.446-5.16 57.868-26.92 98.69-107.396 167.687-207.574 177.967-24.72 2.537-24.337 2.538-49.87-.15zm69.168-62.118c49.21-12.541 91.043-44.888 115.28-89.138 6.364-11.62 16.949-37.46 16.949-41.377 0-.42-78.623-.765-174.717-.765-96.094 0-174.717.344-174.717.765 0 .42 1.95 6.433 4.335 13.362 10.738 31.21 31.62 61.453 56.371 81.635 17.483 14.257 49.669 30.437 70.932 35.658 23.503 5.77 62.626 5.707 85.567-.14zM142.517 252.316c7.929-15.171 10.91-18.942 15.397-19.474 3.169-.376 5.564-2.098 5.564-4 0-4.516-30.266-4.906-31.765-.409-.537 1.611 1.072 3.465 3.575 4.12 4.477 1.17 4.455 1.388-1.342 13.207-3.241 6.61-6.436 12.016-7.1 12.014-1.296-.003-13.446-20.91-13.446-23.139 0-.737 2.003-1.34 4.451-1.34 2.968 0 4.452-1.485 4.452-4.452 0-4.155-1.484-4.452-22.257-4.452-20.773 0-22.257.297-22.257 4.452 0 3.132 1.485 4.452 5.008 4.453 3.74.001 6.634 2.96 11.433 11.685 15 27.27 13.853 26.15 26.768 26.15h11.686zm73.496 10.378c13.404-15.001 4.953-34.025-16.547-37.25-26.53-3.978-45.496 10.302-39.164 29.487 4.009 12.147 13.287 16.576 32.898 15.704 15.237-.677 16.814-1.226 22.813-7.94zm-32.378-3.187c-7.436-10.617-2.96-26.213 7.525-26.213 5.143 0 6.85 1.347 8.8 6.941 5.886 16.883-7.188 32.317-16.325 19.272zm103.369.495c0-12.946-3.555-14.632-9.356-4.437-3.23 5.678-5.123 6.663-12.798 6.663h-9.006v-14.467c0-14.057.162-14.467 5.728-14.467 4.256 0 5.534-1 4.977-3.895-.648-3.364-3.47-3.895-20.72-3.895s-20.073.53-20.72 3.895c-.558 2.895.72 3.895 4.977 3.895 5.565 0 5.727.41 5.727 14.467 0 13.948-.2 14.467-5.564 14.467-4.08 0-5.564 1.187-5.564 4.452 0 4.239 1.483 4.45 31.16 4.45h31.159zm53.6-7.686c7.928-15.171 10.91-18.942 15.396-19.474 3.169-.376 5.565-2.098 5.565-4 0-4.516-30.267-4.906-31.766-.409-.537 1.611 1.072 3.465 3.576 4.12 4.476 1.17 4.454 1.388-1.342 13.207-3.242 6.61-6.437 12.016-7.1 12.014-1.296-.003-13.447-20.91-13.447-23.139 0-.737 2.004-1.34 4.452-1.34 2.967 0 4.451-1.485 4.451-4.452 0-4.155-1.484-4.452-22.257-4.452-20.773 0-22.257.297-22.257 4.452 0 3.132 1.485 4.452 5.008 4.453 3.74.001 6.635 2.96 11.434 11.685 14.999 27.27 13.853 26.15 26.767 26.15h11.687zm73.496 10.378c13.378-14.973 4.672-34.067-17.016-37.32-26.063-3.908-44.973 10.536-38.695 29.557 4.008 12.147 13.287 16.576 32.898 15.704 15.236-.677 16.813-1.226 22.813-7.94zm-32.378-3.187c-7.455-10.644-2.96-26.213 7.57-26.213 5.34 0 6.85 1.285 8.933 7.6 5.298 16.052-7.884 30.92-16.503 18.613zm40.625-63.493c-13.082-47.653-56.807-95.522-104.802-114.736-33.245-13.309-80.313-16.24-114.005-7.101-56.473 15.319-104.559 60.59-123.82 116.571-2.286 6.646-4.157 12.427-4.157 12.848 0 .42 78.542.764 174.538.764h174.537z" fill="#ffff"/></svg>
